<svg width="29" height="17" viewBox="0 0 29 17" fill="none" xmlns="http://www.w3.org/2000/svg">
<path d="M9.77344 9.33984V9.26953C9.77344 8.53516 9.14453 6.69922 7.88672 3.76172C7.66797 3.25391 7.55469 3 7.54688 3L7.20703 3.78516C5.91016 6.80859 5.26172 8.64453 5.26172 9.29297C5.26172 9.40234 5.32812 9.46094 5.46094 9.46875C5.60156 9.47656 5.70703 9.48047 5.77734 9.48047L6.69141 9.50391H7.52344L7.60547 9.49219C9.05078 9.49219 9.77344 9.44141 9.77344 9.33984ZM0 15.5859C0 15.3906 0.222656 15.1641 0.667969 14.9062C1.11328 14.6484 1.44141 14.3203 1.65234 13.9219C1.86328 13.5234 2.16016 12.8047 2.54297 11.7656C2.92578 10.7188 3.44531 9.40234 4.10156 7.81641C4.76562 6.23047 5.28906 4.80859 5.67188 3.55078C6.0625 2.28516 6.32812 1.48438 6.46875 1.14844C6.78906 0.382813 7.24219 0 7.82812 0H8.15625C8.30469 0 8.48828 0.0820312 8.70703 0.246094C9.15234 0.582031 9.61719 1.30078 10.1016 2.40234C10.2656 2.77734 10.5117 3.42188 10.8398 4.33594C11.168 5.24219 11.8242 7.01953 12.8086 9.66797C13.793 12.3164 14.3438 13.7578 14.4609 13.9922C14.6562 14.3984 14.9883 14.7266 15.457 14.9766C15.9258 15.2188 16.1602 15.4141 16.1602 15.5625C16.1602 15.8906 15.9648 16.0938 15.5742 16.1719C15.3086 16.2266 14.6367 16.2539 13.5586 16.2539L12.8789 16.2656C11.4336 16.2656 10.7109 16.0703 10.7109 15.6797C10.7109 15.6094 10.8008 15.4414 10.9805 15.1758C11.168 14.9102 11.2617 14.5742 11.2617 14.168C11.2617 13.7617 11.1133 13.1797 10.8164 12.4219C10.5273 11.6641 10.2812 11.1953 10.0781 11.0156C9.88281 10.8359 9.03516 10.7461 7.53516 10.7461C6.03516 10.7461 5.16016 10.8281 4.91016 10.9922C4.66016 11.1562 4.39062 11.5977 4.10156 12.3164C3.8125 13.0352 3.66797 13.6211 3.66797 14.0742C3.66797 14.5195 3.80469 14.9141 4.07812 15.2578C4.35938 15.6016 4.5 15.7812 4.5 15.7969C4.5 16.0781 4.01953 16.2188 3.05859 16.2188C2.10547 16.2188 1.35547 16.1836 0.808594 16.1133C0.269531 16.0352 0 15.8594 0 15.5859ZM23.8828 10.8633H23.6836C22.6602 10.8633 21.8047 11.0938 21.1172 11.5547C20.4375 12.0078 20.0977 12.5742 20.0977 13.2539V13.4883C20.0977 13.8867 20.2188 14.2461 20.4609 14.5664C20.7109 14.8789 21.0312 15.0352 21.4219 15.0352L21.5625 15.0586H21.9141C22.7266 15.0586 23.3906 14.7266 23.9062 14.0625C24.1328 13.7734 24.2461 13.1797 24.2461 12.2812C24.2461 12.2109 24.2461 12.1406 24.2461 12.0703L24.2578 11.7891V11.5078C24.2578 11.0781 24.1328 10.8633 23.8828 10.8633ZM18.1875 7.07812C18.1875 6.5 18.6445 5.98438 19.5586 5.53125C20.4805 5.07031 21.4336 4.83984 22.418 4.83984C22.4492 4.83984 22.4805 4.83984 22.5117 4.83984C23.4492 4.83984 24.1992 4.95312 24.7617 5.17969C25.9023 5.63281 26.5547 6.59375 26.7188 8.0625C26.7344 8.21094 26.7422 9.19531 26.7422 11.0156C26.7422 12.8281 26.7891 13.8906 26.8828 14.2031C26.9844 14.5156 27.25 14.7461 27.6797 14.8945C28.1172 15.043 28.3359 15.1836 28.3359 15.3164C28.3359 15.5977 28.1953 15.8125 27.9141 15.9609C27.3516 16.2578 26.7969 16.4062 26.25 16.4062C25.7109 16.4062 25.3086 16.2812 25.043 16.0312C24.5664 15.5859 24.3125 15.3633 24.2812 15.3633C24.25 15.3633 23.8086 15.5625 22.957 15.9609C22.1055 16.3516 21.3594 16.5469 20.7188 16.5469C19.7578 16.5469 19.0039 16.2812 18.457 15.75C17.9102 15.2188 17.6367 14.5742 17.6367 13.8164V13.5234C17.6367 12.7109 17.9883 11.9961 18.6914 11.3789C19.3945 10.7617 20.6602 10.2812 22.4883 9.9375C23.1523 9.8125 23.5703 9.69531 23.7422 9.58594C24.0859 9.36719 24.2578 8.92188 24.2578 8.25C24.2578 7.57812 24.0781 7.0625 23.7188 6.70312C23.3594 6.34375 22.8789 6.16406 22.2773 6.16406C21.6758 6.16406 21.0938 6.51562 20.5312 7.21875C19.9766 7.91406 19.4688 8.26172 19.0078 8.26172C18.4609 8.26172 18.1875 7.86719 18.1875 7.07812Z" fill="#FFAB6D"/>
</svg>
