<svg width="29" height="35" viewBox="0 0 29 35" fill="none" xmlns="http://www.w3.org/2000/svg">
<path d="M1 11C1 11 0.993559 7.84812 1.97778 6.33333C2.82051 5.03631 5 4 5 4" stroke="#FFAB6D" stroke-width="2" stroke-linecap="round"/>
<path d="M27.1496 10.8812C27.1496 10.8812 27.0203 7.85017 25.7654 6.3575C24.6879 5.07583 22.0002 4.00001 22.0002 4.00001" stroke="#FFAB6D" stroke-width="2" stroke-linecap="round"/>
<path d="M1.11998 23.9656C0.95597 24.4533 0.964097 24.7846 1.11998 25.2746C1.29295 25.8183 1.59431 26.0523 2.01133 26.4645C2.24114 26.6917 2.64801 27 2.64801 27H25.3774C25.3774 27 26.1983 26.82 26.5235 26.4645C26.8608 26.0957 26.8281 25.7543 26.9055 25.2746C26.987 24.7691 27.0695 24.4533 26.9055 23.9656C26.6524 23.2133 25.9114 23.1484 25.3774 22.5377C24.692 21.7538 24.3453 21.2644 23.9131 20.3362C23.5111 19.4729 23.4255 18.9361 23.2127 18.0158C22.6451 15.5604 23.7444 13.9733 22.8944 11.59C22.388 10.1702 21.9958 9.3591 20.9844 8.19867C19.4906 6.48482 18.2961 5.35793 15.9546 5.04528C15.1916 4.9434 14.7517 5.04528 13.9809 5.04528C13.3344 5.04528 12.9678 4.97664 12.3255 5.04528C9.87197 5.30751 8.54776 6.41754 6.97742 8.19867C5.95902 9.35376 5.54775 10.1623 5.06739 11.59C4.26197 13.9839 5.64566 15.5653 5.06739 18.0158C4.8489 18.9417 4.74228 19.4814 4.30337 20.3362C3.81695 21.2836 3.38204 21.7417 2.64801 22.5377C2.09708 23.1351 1.373 23.2133 1.11998 23.9656Z" stroke="#FFAB6D" stroke-width="2" stroke-linecap="round"/>
<line x1="13.5" y1="3.5" x2="13.5" y2="1.5" stroke="#FFAB6D" stroke-width="3" stroke-linecap="round"/>
<mask id="mask0_389_5" style="mask-type:alpha" maskUnits="userSpaceOnUse" x="10" y="28" width="8" height="7">
<ellipse cx="3.6897" cy="3.1591" rx="3.6897" ry="3.1591" transform="matrix(-1 0.000581331 -0.000769857 -1 17.3843 34.3182)" fill="#FFAB6D"/>
</mask>
<g mask="url(#mask0_389_5)">
<path d="M13.7521 38.7525L8.62394 30.6927L18.8679 30.6868L13.7521 38.7525Z" fill="#FFAB6D"/>
</g>
</svg>
