<svg width="61" height="46" viewBox="0 0 61 46" fill="none" xmlns="http://www.w3.org/2000/svg">
<path d="M46.3452 6.77391C45.2436 6.77391 44.1717 6.87381 43.1484 7.06551C42.0279 3.25311 36.9033 0.374903 30.75 0.374903C25.4715 0.374903 20.9463 2.49441 19.0617 5.5049C17.2878 4.865 15.2655 4.50321 13.119 4.50321C6.08013 4.50321 0.375031 8.38581 0.375031 13.1729C0.375031 15.4814 1.70073 17.582 3.86343 19.1345C3.15333 20.1524 2.76183 21.2621 2.76183 22.4258C2.76183 27.3101 9.63873 31.271 18.1221 31.271C22.7499 31.271 26.8998 30.0938 29.7159 28.2308C32.235 30.3341 36.0906 31.6787 40.4106 31.6787C46.3776 31.6787 51.4563 29.1137 53.349 25.5308C57.1776 23.7461 59.7291 20.5493 59.7291 16.8989C59.7291 11.3072 53.7351 6.77391 46.3452 6.77391ZM16.6502 12.2162C17.1011 12.5888 18.2895 13.4321 20.0391 13.6346C21.9858 13.8587 23.6561 12.9943 24.1502 12.7162C24.3826 12.5854 23.9163 13.0352 23.9055 13.1297M32.5644 12.4007C35.0862 14.342 38.3586 14.7875 41.1774 13.5779L32.5644 12.4007ZM16.6502 12.2162C16.1502 12.7162 16.3937 13.863 16.6502 14.7162C16.9661 15.7672 17.4714 16.1834 18.2085 16.8125C19.3047 17.744 21.3945 18.0302 22.8444 16.8125C23.9217 15.908 24.3645 14.4068 23.973 12.9893M32.6103 12.4007C32.1513 14.1611 32.6508 16.1483 33.882 17.4713C34.2087 17.8223 34.5921 18.1355 35.0349 18.311C35.5587 18.5189 36.1365 18.5297 36.6954 18.4892C37.8186 18.4109 39.0012 18.1112 39.7626 17.2688C40.1001 16.8962 40.335 16.4372 40.5213 15.9647C40.7994 15.2546 40.9749 14.504 41.037 13.7426" fill="#465783"/>
<path d="M23.9055 13.1297C23.9163 13.0352 24.3826 12.5854 24.1502 12.7162C23.6561 12.9943 21.9858 13.8587 20.0391 13.6346C18.2895 13.4321 17.1011 12.5888 16.6502 12.2162C16.1502 12.7162 16.3937 13.863 16.6502 14.7162C16.9661 15.7672 17.4714 16.1834 18.2085 16.8125C19.3047 17.744 21.3945 18.0302 22.8444 16.8125C23.9217 15.908 24.3645 14.4068 23.973 12.9893M32.5644 12.4007C35.0862 14.342 38.3586 14.7875 41.1774 13.5779M32.6103 12.4007C32.1513 14.1611 32.6508 16.1483 33.882 17.4713C34.2087 17.8223 34.5921 18.1355 35.0349 18.311C35.5587 18.5189 36.1365 18.5297 36.6954 18.4892C37.8186 18.4109 39.0012 18.1112 39.7626 17.2688C40.1001 16.8962 40.335 16.4372 40.5213 15.9647C40.7994 15.2546 40.9749 14.504 41.037 13.7426M46.3452 6.77391C45.2436 6.77391 44.1717 6.87381 43.1484 7.06551C42.0279 3.25311 36.9033 0.374903 30.75 0.374903C25.4715 0.374903 20.9463 2.49441 19.0617 5.5049C17.2878 4.865 15.2655 4.50321 13.119 4.50321C6.08013 4.50321 0.375031 8.38581 0.375031 13.1729C0.375031 15.4814 1.70073 17.582 3.86343 19.1345C3.15333 20.1524 2.76183 21.2621 2.76183 22.4258C2.76183 27.3101 9.63873 31.271 18.1221 31.271C22.7499 31.271 26.8998 30.0938 29.7159 28.2308C32.235 30.3341 36.0906 31.6787 40.4106 31.6787C46.3776 31.6787 51.4563 29.1137 53.349 25.5308C57.1776 23.7461 59.7291 20.5493 59.7291 16.8989C59.7291 11.3072 53.7351 6.77391 46.3452 6.77391Z" stroke="#1D1D1B" stroke-width="0.75" stroke-miterlimit="10"/>
<path d="M17.0507 12.5143C17.0183 12.4981 16.9832 12.4792 16.9481 12.4873C16.8833 12.5008 16.7317 12.6112 16.729 12.6787C16.4122 13.5913 16.7292 14.6787 17.2291 15.1787C17.4181 15.7295 17.7971 16.2872 18.2291 16.6787C18.4127 16.8461 18.5816 16.7965 18.7976 16.918C19.3889 17.2474 20.0342 17.5552 20.7092 17.5147C21.0278 17.4958 21.3356 17.4013 21.6407 17.3014C21.9593 17.1961 22.2752 17.08 22.5614 16.9099C23.1149 16.5778 23.5307 16.0378 23.7656 15.4384C24.0005 14.839 24.0599 14.1802 23.9978 13.5376C23.9843 13.4053 23.9654 13.2676 23.8844 13.165C23.8034 13.0624 23.6414 13.0084 23.5334 13.0867C22.9151 13.543 22.143 13.7671 21.3734 13.8157C20.6498 13.8616 19.7589 13.8184 19.073 13.5646C18.3872 13.3108 17.7096 12.8545 17.0534 12.5143H17.0507Z" fill="#FBF1D0"/>
<path d="M25.9474 24.0352C26.0851 23.7517 26.4199 23.6275 26.7277 23.5519C28.0507 23.2279 29.4439 23.3089 30.775 23.5951C32.1061 23.8813 33.3859 24.3592 34.6603 24.8398" stroke="#1D1D1B" stroke-width="0.75" stroke-miterlimit="10" stroke-linecap="round"/>
<path d="M18.9786 16.4591C19.6079 16.4591 20.118 15.8511 20.118 15.101C20.118 14.351 19.6079 13.7429 18.9786 13.7429C18.3494 13.7429 17.8392 14.351 17.8392 15.101C17.8392 15.8511 18.3494 16.4591 18.9786 16.4591Z" fill="#1D1D1B" stroke="#1D1D1B" stroke-miterlimit="10"/>
<path d="M34.6603 16.7748C35.2895 16.7748 35.7997 16.1668 35.7997 15.4167C35.7997 14.6666 35.2895 14.0586 34.6603 14.0586C34.031 14.0586 33.5209 14.6666 33.5209 15.4167C33.5209 16.1668 34.031 16.7748 34.6603 16.7748Z" fill="#1D1D1B" stroke="#1D1D1B" stroke-miterlimit="10"/>
<path d="M18.3685 16.3949C18.9978 16.3949 19.5079 15.7869 19.5079 15.0368C19.5079 14.2868 18.9978 13.6787 18.3685 13.6787C17.7393 13.6787 17.2291 14.2868 17.2291 15.0368C17.2291 15.7869 17.7393 16.3949 18.3685 16.3949Z" fill="#1D1D1B" stroke="#1D1D1B" stroke-miterlimit="10"/>
<path d="M33.2211 12.9004C33.0942 12.7978 32.8971 12.6223 32.7594 12.6844C32.5731 12.7681 32.6217 13.2514 32.7216 14.2099C32.7729 14.6878 32.7999 14.9443 32.8971 15.3034C32.9592 15.5356 33.0456 15.8515 33.24 16.2268C33.4965 16.7263 33.7989 17.0476 34.0959 17.3554C34.4334 17.7091 34.6035 17.8873 34.833 18.0223C35.3595 18.3355 35.8725 18.3409 36.6825 18.3463C37.1469 18.349 37.5303 18.3517 38.0244 18.214C38.2053 18.1627 38.6238 18.0439 39.0612 17.755C39.5796 17.4121 39.8577 16.9531 40.4139 16.0351C40.6542 15.6382 41.0376 14.9605 41.0592 14.2639C41.0619 14.1397 41.07 13.8346 40.9323 13.7779C40.8243 13.732 40.6758 13.8643 40.6353 13.8967C40.0305 14.4016 38.0568 14.3476 37.8111 14.3422C37.2954 14.3287 36.4449 14.3071 35.4675 13.9318C34.2444 13.462 33.6315 13.2298 33.2265 12.8977L33.2211 12.9004Z" fill="#FBF1D0"/>
<path d="M34.3417 16.5319C34.9709 16.5319 35.4811 15.9238 35.4811 15.1738C35.4811 14.4237 34.9709 13.8157 34.3417 13.8157C33.7124 13.8157 33.2023 14.4237 33.2023 15.1738C33.2023 15.9238 33.7124 16.5319 34.3417 16.5319Z" fill="#1D1D1B" stroke="#1D1D1B" stroke-miterlimit="10"/>
<path d="M17.8393 36.8981C18.5595 36.8981 19.1434 36.0846 19.1434 35.081C19.1434 34.0775 18.5595 33.2639 17.8393 33.2639C17.119 33.2639 16.5352 34.0775 16.5352 35.081C16.5352 36.0846 17.119 36.8981 17.8393 36.8981Z" fill="#77C5D9"/>
<path d="M30.6994 34.4924C31.4196 34.4924 32.0035 33.6788 32.0035 32.6753C32.0035 31.6717 31.4196 30.8582 30.6994 30.8582C29.9791 30.8582 29.3953 31.6717 29.3953 32.6753C29.3953 33.6788 29.9791 34.4924 30.6994 34.4924Z" fill="#77C5D9"/>
<path d="M36.9499 40.5321C37.6701 40.5321 38.254 39.7186 38.254 38.7151C38.254 37.7115 37.6701 36.8979 36.9499 36.8979C36.2296 36.8979 35.6458 37.7115 35.6458 38.7151C35.6458 39.7186 36.2296 40.5321 36.9499 40.5321Z" fill="#77C5D9"/>
<path d="M24.6432 44.7792C25.3634 44.7792 25.9473 43.9657 25.9473 42.9621C25.9473 41.9586 25.3634 41.145 24.6432 41.145C23.923 41.145 23.3391 41.9586 23.3391 42.9621C23.3391 43.9657 23.923 44.7792 24.6432 44.7792Z" fill="#77C5D9"/>
<path d="M16.5784 34.9675C16.5838 35.2726 16.6432 35.5777 16.7512 35.8639C16.8862 36.2149 17.1076 36.5497 17.437 36.7333C17.7664 36.9169 18.2092 36.925 18.4981 36.682C18.5926 36.601 18.6655 36.5011 18.733 36.3958C19.0246 35.9314 19.1704 35.3779 19.1488 34.8298" stroke="#1D1D1B" stroke-width="0.75" stroke-miterlimit="10" stroke-linecap="round"/>
<path d="M23.3445 42.5627C23.3796 42.8759 23.3391 43.1918 23.3796 43.505C23.4255 43.8695 23.5875 44.2177 23.8332 44.4904C23.9412 44.6092 24.0654 44.7145 24.2166 44.7685C24.4272 44.8468 24.6594 44.8171 24.8781 44.7685C25.0941 44.7226 25.3155 44.6552 25.4829 44.5121C25.7097 44.3204 25.8096 44.0207 25.8663 43.7318C25.9554 43.2944 25.9716 42.8407 25.9176 42.3979" stroke="#1D1D1B" stroke-width="0.75" stroke-miterlimit="10" stroke-linecap="round"/>
<path d="M29.3845 32.2729C29.3656 32.8102 29.4169 33.3718 29.6923 33.8335C29.9677 34.2952 30.5131 34.63 31.0396 34.5166C31.4419 34.4302 31.7686 34.0901 31.8874 33.6959C31.9684 33.4286 31.9657 33.1451 31.9387 32.867C31.9225 32.6888 31.8955 32.5078 31.8577 32.3323" stroke="#1D1D1B" stroke-width="0.75" stroke-miterlimit="10" stroke-linecap="round"/>
<path d="M35.6998 38.1075C35.662 38.3343 35.6593 38.5692 35.6836 38.7987C35.7241 39.2145 35.8483 39.633 36.1183 39.9489C36.3883 40.2648 36.8176 40.4646 37.228 40.3836C37.6978 40.2864 38.0353 39.8463 38.1514 39.3792C38.2675 38.9121 38.2054 38.4261 38.1433 37.9509C38.1406 37.9293 38.1325 37.9023 38.1109 37.8969C38.0893 37.8915 38.0785 37.9374 38.1001 37.932" stroke="#1D1D1B" stroke-width="0.75" stroke-miterlimit="10" stroke-linecap="round"/>
</svg>
