<svg width="86" height="76" viewBox="0 0 86 76" fill="none" xmlns="http://www.w3.org/2000/svg">
<path d="M47.5872 13.6909C47.6491 13.8566 47.5906 14.0436 47.4462 14.2427C46.7668 14.6105 44.9023 15.6745 42.8314 17.4301C40.9119 18.8498 39.4774 20.5644 38.411 22.2683C36.6084 24.5179 35.6212 26.9438 35.5403 29.1433C35.4956 29.3956 35.4543 29.6525 35.4199 29.9124C35.3081 30.7681 35.2634 31.6254 35.2858 32.4812C35.3339 37.4257 37.6422 41.1345 38.3886 42.2973C38.8995 43.0923 40.5025 45.5258 43.399 47.8605C46.12 50.1284 49.4465 51.9934 53.2563 53.2489C53.2064 54.1913 49.4465 54.8176 45.8414 55.2249C45.6797 55.2553 45.4974 55.2857 45.2979 55.3146C36.187 56.6826 19.8625 51.4417 17.1535 37.9334C14.8126 26.2659 23.619 15.1289 36.8217 13.0601C37.6284 12.934 40.8052 12.3336 44.9246 12.9993C46.6034 13.2684 47.4582 13.3398 47.5872 13.694V13.6909Z" fill="#CCE9F4"/>
<path d="M48.4661 50.9536C50.9394 52.045 53.2907 52.5648 53.2545 53.2473C49.4447 51.9918 46.1183 50.1267 43.3972 47.8589C44.7835 48.9776 46.4657 50.072 48.4661 50.9536Z" fill="#CCE9F4"/>
<path d="M47.4462 14.2425C46.8683 15.0283 44.9316 16.0209 43.6072 16.8858C43.3406 17.0606 43.0808 17.2414 42.8297 17.4284C44.9006 15.6728 46.7651 14.6088 47.4445 14.241L47.4462 14.2425Z" fill="#CCE9F4"/>
<path d="M42.8314 17.4299C41.3471 18.6839 39.7561 20.2936 38.4213 22.2559C38.4179 22.259 38.4145 22.2635 38.411 22.2681C39.4774 20.5642 40.9119 18.8496 42.8314 17.4299Z" fill="#CCE9F4"/>
<path d="M38.4217 22.2561C38.413 22.2694 38.4008 22.2827 38.3921 22.2975L38.413 22.2679C38.413 22.2679 38.42 22.2591 38.4235 22.2561H38.4217Z" fill="#CCE9F4"/>
<path d="M38.411 22.2681L38.3903 22.2985C37.0762 24.238 36.0116 26.5196 35.5403 29.1416C35.6211 26.9436 36.6084 24.5162 38.411 22.2666V22.2681Z" fill="#CCE9F4"/>
<path d="M38.3921 22.2986C36.5173 25.3067 35.7811 28.2752 35.5369 29.5383C35.5352 29.4076 35.5369 29.2754 35.5421 29.1431C36.0133 26.5211 37.078 24.2381 38.3921 22.3001V22.2986Z" fill="#CCE9F4"/>
<path d="M35.4337 30.1402C35.3236 30.9458 35.2789 31.7286 35.2858 32.481C35.2651 31.6267 35.3099 30.7679 35.4199 29.9122C35.4526 29.6523 35.4939 29.3954 35.5403 29.1431C35.5352 29.2768 35.5335 29.4075 35.5352 29.5383C35.4733 29.8544 35.4423 30.0627 35.432 30.1402H35.4337Z" fill="#CCE9F4"/>
<path d="M36.0976 37.3405C35.6022 35.7476 35.3236 34.1181 35.2874 32.4796C35.2806 31.7272 35.3236 30.9459 35.4354 30.1388C35.4457 30.0613 35.4766 29.853 35.5386 29.5369C35.5558 30.9109 35.941 32.1862 36.7168 33.2563C37.1726 33.8856 37.9672 34.7246 39.3759 35.4405C38.8478 35.8129 38.3766 36.1063 37.9964 36.3252C37.4804 36.6246 37.2224 36.7751 36.9971 36.8648C36.906 36.9013 36.6824 36.9864 36.4072 37.1445C36.2764 37.2189 36.1732 37.2889 36.101 37.339L36.0976 37.3405Z" fill="#CCE9F4"/>
<path d="M36.0976 37.3405C37.3119 41.2317 39.8386 44.8918 43.399 47.8589C40.5025 45.5241 38.8995 43.0906 38.3886 42.2957C37.6422 41.1329 35.3339 37.4241 35.2858 32.4795C35.3219 34.1181 35.6005 35.7475 36.0959 37.3405H36.0976Z" fill="#CCE9F4"/>
<path d="M53.2563 53.2472C53.2064 54.1896 49.4465 54.8159 45.8414 55.2232C45.6797 55.2536 45.4974 55.284 45.2979 55.3129C36.187 56.6809 19.8625 51.4399 17.1535 37.9317C14.8126 26.2642 23.619 15.1271 36.8217 13.0584C37.6284 12.9323 40.8052 12.3319 44.9246 12.9976C46.6034 13.2667 47.4582 13.3381 47.5872 13.6923C47.6491 13.8579 47.5906 14.0449 47.4462 14.244C46.8682 15.0299 44.9315 16.0224 43.6071 16.8873C43.3405 17.0621 43.0808 17.243 42.8297 17.4299C40.9102 18.8496 39.4757 20.5642 38.4093 22.2681" stroke="#1D1D1B" stroke-width="0.75" stroke-miterlimit="10" stroke-linecap="round"/>
<path d="M36.0977 37.3403C37.312 41.2315 39.8387 44.8917 43.3991 47.8587C46.1201 50.1266 49.4466 51.9916 53.2564 53.2471" stroke="#1D1D1B" stroke-width="0.75" stroke-miterlimit="10" stroke-linecap="round"/>
<path d="M42.8314 17.4299C41.347 18.6839 39.756 20.2936 38.4213 22.2559C38.4127 22.2696 38.4007 22.2833 38.3921 22.2985" stroke="#1D1D1B" stroke-width="0.75" stroke-miterlimit="10" stroke-linecap="round"/>
<path d="M47.57 14.1755C47.5339 14.195 47.4926 14.216 47.4462 14.2415" stroke="#1D1D1B" stroke-miterlimit="10"/>
<path d="M38.5572 22.0872C38.5108 22.1419 38.4661 22.1981 38.4214 22.2544C38.4179 22.2574 38.4145 22.262 38.411 22.2665C36.6085 24.5161 35.6212 26.942 35.5404 29.1415C35.5352 29.2752 35.5335 29.406 35.5352 29.5367C35.5524 30.9108 35.9377 32.186 36.7134 33.2561C37.1692 33.8854 37.9638 34.7244 39.3725 35.4404C38.8445 35.8128 38.3732 36.1061 37.9931 36.325C37.4771 36.6244 37.2191 36.7749 36.9938 36.8646C36.9026 36.9011 36.679 36.9862 36.4038 37.1443C36.2731 37.2188 36.1699 37.2887 36.0976 37.3388C36.089 37.3434 36.0839 37.348 36.077 37.3525" stroke="#1D1D1B" stroke-width="0.75" stroke-miterlimit="10" stroke-linecap="round"/>
<path d="M30.6899 27.0257C28.6982 28.1839 26.2778 28.3584 23.8889 28.3584C23.8889 28.3584 23.9424 30.1554 24.3586 30.8926C24.7749 31.6298 25.4783 32.2697 26.3693 32.5083C27.0779 32.6983 27.8433 32.6238 28.5623 32.4688C29.037 32.367 29.5083 32.2271 29.9211 31.9961C31.0838 31.3425 31.5964 30.055 31.6755 28.839C31.7202 28.1459 31.6325 27.4042 31.1612 26.8494C30.9892 26.9223 30.6166 27.0622 30.4584 27.1549L30.6899 27.0257Z" fill="#F4F4F4" stroke="#1D1D1B" stroke-width="0.75" stroke-miterlimit="10"/>
<path d="M28.5 29.5C29.3264 30.6184 29.5437 30.5885 30 31C30.5774 31.5207 30.4583 30.6269 30.7255 30.6734C31.1703 30.7508 31.3223 30.076 31.4118 29.7142C31.6061 28.9314 31.6646 28.0726 31.2363 27.3674C31.183 27.2792 31.1108 27.1865 30.999 27.1637C30.9061 27.1439 30.8115 27.1789 30.7255 27.2138C30.1665 27.4342 28.7888 27.7626 28.5583 28.2642C28.5 28.5 29 30 29.1576 30.0469L28.5 29V29.5Z" fill="#1D1D1B" stroke="#1D1D1B" stroke-width="0.75" stroke-miterlimit="10"/>
<path d="M29.6923 29.2098C29.9451 29.0578 30.081 28.7842 30.0982 28.5136C30.1103 28.316 30.0604 28.1063 29.9142 27.9558C29.7129 27.7445 29.3431 27.6852 29.0576 27.7992C28.7721 27.9132 28.5846 28.1838 28.5691 28.4604C28.5416 28.9879 29.0731 29.5837 29.6906 29.2113L29.6923 29.2098Z" fill="#F4F4F4"/>
<path d="M33.2303 41.2498H33.896C34.2383 41.2514 34.5823 41.2514 34.9211 41.2179C35.6504 41.1465 36.347 40.923 37.0298 40.689" stroke="#1D1D1B" stroke-width="0.75" stroke-miterlimit="10" stroke-linecap="round"/>
<path d="M65.3841 21.8485C65.3841 19.9744 63.1533 18.4392 60.3239 18.3054C60.3256 18.2644 60.3273 18.2218 60.3273 18.1792C60.3273 16.1531 57.6957 14.5115 54.4501 14.5115C51.2045 14.5115 48.5729 16.1531 48.5729 18.1792C48.5729 18.2628 48.578 18.3449 48.5866 18.427C48.4112 18.4179 48.2323 18.4133 48.0534 18.4133C44.5205 18.4133 41.6567 20.0367 41.6567 22.0385C41.6567 23.0144 42.3344 23.899 43.4404 24.5511L42.3723 29.0594L48.9169 27.2886C50.4098 28.1368 52.8815 28.6916 55.6799 28.6916C60.2396 28.6916 63.9359 27.2187 63.9359 25.4008C63.9359 25.0785 63.8189 24.7669 63.6022 24.4736C64.6979 23.823 65.3841 22.8882 65.3841 21.8485Z" fill="#F4F4F4" stroke="#1D1D1B" stroke-width="0.75" stroke-miterlimit="10"/>
</svg>
