<svg width="48" height="40" viewBox="0 0 48 40" fill="none" xmlns="http://www.w3.org/2000/svg">
<path d="M21.2829 25.149L21.1852 25.2183L21.1873 25.0881L21.2829 25.149Z" fill="white" stroke="#1D1D1B" stroke-miterlimit="10"/>
<path d="M37.0948 17.5805C38.5947 18.259 40.2819 19.0108 41.4438 19.5621C41.542 19.6087 41.6831 19.6517 41.6791 19.7603C41.6791 19.7645 41.6787 19.7685 41.6775 19.7725C41.6369 19.908 41.2043 20.1451 40.4842 20.6066C38.3695 21.9443 34.5538 24.3488 33.1951 25.2119C32.7814 25.4618 32.4832 25.6676 32.5777 26.2073C32.8759 29.4077 33.571 36.7325 33.7432 38.5889C33.7432 38.8767 33.4933 38.9567 33.2278 38.8454C32.8974 38.707 32.4573 38.475 31.8007 38.1962C29.2072 37.0223 26.0446 35.5964 23.3755 34.3868C22.5796 34.0277 21.9517 33.9779 21.1831 33.6335C20.3191 33.244 19.3348 33.6469 18.4809 34.0582L18.3714 34.111C17.1916 34.6793 16.0077 35.2495 14.8012 35.8295C13.2073 36.5981 11.2585 37.5326 9.80107 38.2361C9.51295 38.3636 9.27281 38.482 9.06481 38.5873C8.34756 38.9506 7.88635 38.6799 7.97826 37.8812C8.09796 36.9173 8.21976 35.966 8.37516 34.7018C8.67546 32.2994 8.99256 29.7521 9.29076 27.3623C9.31806 27.1271 9.35167 26.9087 9.37477 26.6924L9.37701 26.6737C9.46112 25.9725 9.47286 25.8746 8.92746 25.5332C8.42766 25.2203 7.92787 24.9242 7.40287 24.6008C5.45617 23.4143 3.12727 21.9905 1.24147 20.8439C1.12691 20.7709 0.992599 20.6912 0.855439 20.6099C0.203651 20.2236 0.349514 19.727 1.02744 19.3887C3.19638 18.3063 7.36417 16.4625 10.4198 14.9716C11.9559 14.2221 13.229 13.0525 14.1598 11.619C16.492 8.02713 20.3636 1.922 21.265 0.55579C21.4813 0.24289 21.5317 0.33319 21.7816 0.84979C21.8614 1.01989 21.9412 1.17949 22.0273 1.36429C22.6909 2.76709 23.7262 4.91329 24.5053 6.55759C25.3306 8.28589 26.1601 10.0268 26.9686 11.7194C27.1303 12.0575 27.2773 12.3746 27.4327 12.6938C27.7372 13.3301 27.7561 13.3553 28.3525 13.6262C31.2148 14.9219 34.2136 16.2785 37.0948 17.5805Z" fill="#EBE378" stroke="#1D1D1B" stroke-width="0.75" stroke-miterlimit="10"/>
<path d="M21.2829 25.149L21.1852 25.2183L21.1873 25.0881L21.2829 25.149Z" fill="white" stroke="#1D1D1B" stroke-miterlimit="10"/>
<path d="M33.0375 20.1069C32.9325 19.5966 32.0337 19.2585 31.578 19.0107C29.7342 18.0573 27.8715 17.2761 26.097 16.2345C25.2612 15.6969 24.6669 14.8359 24.2448 13.872C23.6421 12.5154 23.0394 11.1189 22.422 9.71186C22.1301 9.08396 21.8844 8.35526 21.4392 7.87436C20.7462 7.17296 19.881 9.51446 19.3938 10.1508C18.6567 11.4087 17.8776 12.7359 17.1342 13.9917C16.4979 15.1131 15.8868 16.035 14.8893 16.6146C13.6167 17.3748 12.2265 18.0237 10.9203 18.702C10.3743 18.9813 9.85769 19.2417 9.42089 19.4748C8.94629 19.7268 8.64388 19.9704 8.63758 20.2413C8.61868 20.5206 8.91059 20.8335 9.37049 21.1779C10.1685 21.7554 11.0988 22.3413 11.9304 22.9062C13.6041 23.8911 13.8687 25.1259 13.5243 27.2196C13.3794 28.5321 13.2051 29.9328 13.0791 31.1907C13.0518 31.5435 13.0266 31.8879 13.119 32.205C13.4067 32.9211 14.2593 32.3352 14.7423 32.1273C22.0083 28.2633 19.8768 28.8639 27.1239 32.2239C28.1088 32.6733 28.7934 32.793 28.6401 31.302C28.5372 29.9181 28.3335 27.8286 28.2096 26.1696C28.1466 25.2414 28.2033 24.2502 28.8459 23.595C29.8245 22.6542 31.1895 21.9213 32.2542 21.1107C32.5881 20.844 33.0123 20.5878 33.0375 20.1405L33.0333 20.109L33.0375 20.1069ZM21.0549 23.6013C21.099 23.6328 21.1284 23.6307 21.0696 23.6769C21.0318 23.7105 21.0528 23.6244 21.0486 23.6034H21.0549V23.6013ZM20.9688 28.5384C20.9856 28.5153 21.0402 28.467 21.1179 28.4292C21.1914 28.3893 21.2082 28.3809 21.1494 28.425C21.078 28.4838 20.9646 28.5636 20.9604 28.5552L20.9688 28.5405V28.5384ZM27.4683 22.125L27.4809 22.1523H27.4704V22.125H27.4683Z" fill="#EFE8A4"/>
<path d="M27.2541 21.3395C27.1974 21.0959 26.7123 20.9363 26.4687 20.8187C25.4754 20.3651 24.4716 19.9955 23.5161 19.4999C23.0667 19.2437 22.7454 18.8342 22.5186 18.3764C22.1952 17.7317 21.8697 17.0681 21.5358 16.4003C21.3783 16.1021 21.246 15.7556 21.0066 15.5267C20.6328 15.1928 20.1666 16.3058 19.9041 16.6082C19.5072 17.2067 19.0872 17.8367 18.6882 18.4331C18.3459 18.9665 18.0162 19.4033 17.4786 19.6805C16.794 20.0417 16.0443 20.3504 15.3408 20.6717C15.0468 20.804 14.7675 20.9279 14.5323 21.0392C14.2761 21.1589 14.1144 21.2744 14.1102 21.4025C14.0997 21.5348 14.2572 21.6839 14.505 21.8477C14.9355 22.1228 15.4353 22.4 15.8847 22.6688C16.7856 23.1371 16.9284 23.723 16.7436 24.7184C16.6659 25.3421 16.5714 26.0078 16.5042 26.6042C16.4895 26.7722 16.4748 26.936 16.5252 27.0872C16.6806 27.4274 17.1405 27.1502 17.3988 27.0494C21.3132 25.214 20.1645 25.4996 24.0663 27.0956C24.5976 27.3098 24.9651 27.3665 24.8832 26.6567C24.8265 25.9994 24.7173 25.0061 24.6522 24.2186C24.6186 23.7776 24.6501 23.3072 24.9945 22.9964C25.5216 22.5491 26.2566 22.2005 26.8299 21.8162C27.0105 21.6881 27.2394 21.5684 27.252 21.3542V21.3395H27.2541ZM20.8008 23.0006C20.8239 23.0153 20.8407 23.0153 20.8092 23.0363C20.7882 23.0531 20.8008 23.0111 20.7987 23.0006H20.8008ZM20.7546 25.3463C20.7651 25.3358 20.7924 25.3127 20.8344 25.2938C20.8743 25.2749 20.8827 25.2707 20.8512 25.2917C20.8134 25.319 20.7525 25.3568 20.7504 25.3526L20.7546 25.3442V25.3463ZM24.2553 22.2992L24.2616 22.3118H24.2553V22.2992Z" fill="#F1EEC6"/>
<path d="M16.584 18.3616C17.5385 18.3616 18.3123 16.9767 18.3123 15.2683C18.3123 13.56 17.5385 12.175 16.584 12.175C15.6295 12.175 14.8557 13.56 14.8557 15.2683C14.8557 16.9767 15.6295 18.3616 16.584 18.3616Z" fill="#1D1D1B" stroke="#1D1D1B" stroke-miterlimit="10"/>
<path d="M16.1998 16.5115C16.8075 16.5115 17.3002 15.5854 17.3002 14.443C17.3002 13.3006 16.8075 12.3745 16.1998 12.3745C15.592 12.3745 15.0994 13.3006 15.0994 14.443C15.0994 15.5854 15.592 16.5115 16.1998 16.5115Z" fill="#FBF1D0"/>
<path d="M25.0365 18.3616C25.991 18.3616 26.7648 16.9767 26.7648 15.2683C26.7648 13.56 25.991 12.175 25.0365 12.175C24.082 12.175 23.3082 13.56 23.3082 15.2683C23.3082 16.9767 24.082 18.3616 25.0365 18.3616Z" fill="#1D1D1B" stroke="#1D1D1B" stroke-miterlimit="10"/>
<path d="M24.6501 16.5115C25.2578 16.5115 25.7505 15.5854 25.7505 14.443C25.7505 13.3006 25.2578 12.3745 24.6501 12.3745C24.0423 12.3745 23.5497 13.3006 23.5497 14.443C23.5497 15.5854 24.0423 16.5115 24.6501 16.5115Z" fill="#FBF1D0"/>
<path d="M15.2526 23.1035C18.81 24.8192 23.1843 24.7289 26.6703 22.8704" stroke="#1D1D1B" stroke-width="0.75" stroke-miterlimit="10" stroke-linecap="round"/>
<path d="M46.5983 10.5729C46.5983 14.6221 42.6405 17.9071 37.7562 17.9071C37.4177 17.9071 37.0833 17.8906 36.7547 17.8597C36.5354 17.8391 36.3142 17.8831 36.1242 17.9944L30.8235 21.1009C30.1405 21.5011 29.2853 20.9867 29.3188 20.1957L29.595 13.6858C29.6022 13.514 29.5636 13.3439 29.4918 13.1877C29.1186 12.376 28.9141 11.4951 28.9141 10.5729C28.9141 6.52376 32.8718 3.23877 37.7562 3.23877C42.6405 3.23877 46.5983 6.52376 46.5983 10.5729Z" fill="#FBF1D0" stroke="#BF3818" stroke-miterlimit="10"/>
<path d="M38.8615 5.44946H36.651V10.9758H38.8615V5.44946Z" fill="#BF3818" stroke="#BF3818" stroke-miterlimit="10"/>
<path d="M37.7563 15.3968C38.3667 15.3968 38.8615 14.902 38.8615 14.2915C38.8615 13.6811 38.3667 13.1863 37.7563 13.1863C37.1458 13.1863 36.651 13.6811 36.651 14.2915C36.651 14.902 37.1458 15.3968 37.7563 15.3968Z" fill="#BF3818" stroke="#BF3818" stroke-miterlimit="10"/>
</svg>
