<svg width="68" height="68" viewBox="0 0 68 68" fill="none" xmlns="http://www.w3.org/2000/svg">
<path d="M46.7296 59.2281C46.6983 59.2634 46.6874 59.2281 46.6983 59.1234C46.7078 59.02 46.7391 58.8459 46.7812 58.6283C46.8724 58.1496 46.9771 57.6423 47.0424 57.1582C47.5088 54.1675 45.6919 57.0684 45.0241 58.0748C44.6896 58.4855 43.2398 61.2722 43.8287 59.5001C44.8228 56.3748 44.1292 56.7107 42.4741 59.0758C42.2089 59.3627 41.0964 61.3946 41.3167 60.3215C42.3204 56.1055 40.0547 59.6592 39.1816 61.0056C39.0211 61.2259 38.9082 61.4014 38.8062 61.245C38.6484 60.3256 39.1204 58.2013 37.604 59.598C37.249 59.938 36.9212 60.3324 36.6139 60.7227C36.3174 61.0219 35.6156 62.3003 35.3817 62.1426C35.258 61.857 35.3817 61.3796 35.3885 61.0301C35.7299 57.2466 31.6744 62.197 30.6992 62.7233C30.6802 62.7219 30.668 62.7124 30.6612 62.692C30.6571 62.3343 30.9277 61.9032 31.0515 61.5374C32.4822 58.1945 29.4086 60.0658 28.0255 60.822C27.136 61.3252 27.8378 60.9778 27 61.5C26.1962 61.9978 25.6491 61.8794 26 61.5C26.5114 60.9438 27.782 59.477 27.4407 58.9248C27.2176 58.563 26.1405 58.8527 24.9247 59.1778C23.6204 59.5273 23.1854 59.6818 22.5 60C22.9624 59.5254 22.8357 59.2934 23.3104 58.7603C23.6803 58.3455 24.0325 57.9334 24.3684 57.5281C24.3875 57.49 24.4065 57.4383 24.3848 57.407C24.314 57.305 23.8788 57.5118 23.2587 57.7715C22.8629 57.9361 22.459 58.083 22.0605 58.2394C21.1561 58.5943 20.7032 58.7711 20.6543 58.7086C20.5713 58.6025 20.8882 58.1129 22.7378 56.3653C20.5 57 19.3079 57.7416 19.195 57.5634C19.0046 57.2588 20.1443 55.5438 20.0668 55.144C20.064 55.129 20.0559 55.0882 20.026 55.0542C19.8968 54.9074 19.5268 55.0284 19.2997 55.1154C18.2607 55.5112 16.5376 56.5774 16.3825 56.417C16.2832 56.3136 16.8232 55.6853 17.5807 54.5946C18.2512 53.6276 18.5353 52.9218 18.334 52.7191C18.2198 52.6035 18.3382 52.4308 17.7888 52.7191C16.3431 53.4767 13.8556 54.34 13.6217 54C13.4259 53.7171 15.1558 52.8238 15.2891 51.4162C15.3367 50.9049 15.3911 51.0133 15.2891 50.7114C15.0048 50.8787 14.3126 50.5934 13.6217 50.5839C12.7704 50.5717 12.0278 50.1528 12.0591 50.01C12.1012 49.8237 13.415 50.301 14.144 49.6156C14.435 49.3422 14.6689 48.8472 14.5071 48.5521C14.2895 48.1522 13.5143 48.4242 11.9557 48.0829C11.628 48.0122 11.4104 47.9442 11.0187 47.8231C9.61923 47.3907 9.34587 47.4188 9.39075 47.2828C9.46147 47.0706 11.8252 47.5511 12.0428 47.0262C12.0536 47.0003 12.0564 46.9704 12.0482 46.935C12.0224 46.7134 11.598 46.3176 10.8188 45.7573C9.74435 44.9495 8.40747 44.2314 7.38747 43.4861C7.36299 43.4507 7.41059 43.4507 7.53435 43.4847C8.07971 43.6384 8.80595 43.9417 9.39075 44.0967C12.9363 45.1602 8.05523 41.8228 7.36299 41.3019C7.21475 41.1945 6.91827 40.9755 6.88699 40.9089C6.86251 40.8681 6.89243 40.8545 6.97811 40.8681C9.81507 41.8011 10.7317 41.8582 7.96139 39.455C7.70979 39.183 6.04787 38.042 6.46539 38.0447C6.90603 38.091 7.39563 38.295 7.84443 38.382C8.52851 38.5357 8.88483 38.484 8.90251 38.2188C8.78147 37.5578 8.15995 36.9989 7.46771 36.2563C7.09643 35.8728 6.74419 35.5614 6.39467 35.2159C6.25051 35.05 6.12539 34.9657 6.16211 34.8555C6.23555 34.8025 6.33211 34.8297 6.42595 34.8392C6.75643 34.8895 7.41875 35.0772 7.84851 35.1153C8.22931 35.1615 8.76651 35.1534 8.51627 34.6366C8.37483 34.2843 7.92875 33.6261 7.44459 33.0032C7.15355 32.6238 6.84483 32.2634 6.55379 31.9098C6.43819 31.7724 6.23147 31.4909 6.25731 31.4011C6.28723 31.1142 7.82811 31.8458 8.14907 31.7629C9.83411 31.7642 6.99987 28.2187 6.82987 27.5183C6.84347 27.4626 6.91283 27.4667 6.96723 27.483C7.29227 27.585 7.64451 27.8243 7.96683 27.9807C10.0721 29.0932 9.21667 26.8356 8.76787 25.5776C8.47139 24.6038 7.36707 22.9569 9.13643 24.5481C11.3777 26.3786 9.78107 22.1314 9.50227 21.2338C9.38395 20.8475 9.19627 20.3185 9.78379 20.8693C11.938 23.131 11.8877 21.5629 11.5232 19.391C11.428 18.8266 11.307 18.3424 11.205 17.8297C11.02 16.9348 11.6116 17.797 11.8279 18.0582C14.129 21.2066 13.8461 16.6737 13.9019 15.1002C13.9114 13.5593 14.7886 16.9851 15.4428 16.6084C15.5393 16.5771 15.606 16.4901 15.6685 16.403C15.9106 16.0603 16.1255 15.1314 16.2669 14.2855C16.3839 13.8911 16.4492 11.8552 16.7497 12.5937C16.9428 13.0262 17.2992 14.567 17.7915 14.4297C17.8826 14.412 17.9533 14.3399 18.02 14.2692C18.4728 13.7674 18.904 11.9082 19.1093 11.0705C19.2562 10.5156 19.3868 10.721 19.5146 11.1398C20.1416 13.6735 20.8991 12.5026 21.7124 10.74C21.9028 10.3878 22.2509 9.15017 22.4617 9.60033C22.7106 10.2817 22.7827 11.9354 23.8054 10.691C24.0747 10.3646 24.3059 9.98929 24.5208 9.61801C24.7234 9.27393 24.892 8.83329 25.164 8.67009C25.6196 8.73129 25.4823 10.1144 26.1419 9.96481C26.4724 9.88593 26.9429 9.24945 27.3196 8.58849C27.6787 8.00913 27.9847 7.06393 28.4049 8.25121C29.3379 10.9562 31.3017 6.71985 31.775 7.08433C31.9654 7.30465 31.9736 7.71129 32.0552 8.00913C32.2728 9.25897 33.3472 8.60073 34.0312 8.01729C34.5154 7.66913 34.9601 7.03265 35.4511 6.80281C35.8264 6.75521 35.5884 8.03497 35.734 8.29337C36.0821 9.37185 37.4693 8.31649 38.2459 7.80649C38.5954 7.56169 38.9476 7.26521 39.1707 7.13601C40.1567 6.58249 38.488 9.31337 39.8561 9.33785C40.547 9.41809 42.1219 8.63881 42.9025 8.26617C44.2707 7.73305 41.1848 10.6951 43.6546 10.3361C44.4556 10.2246 45.375 9.89817 46.104 9.64521C46.3188 9.57721 46.4603 9.55409 46.5215 9.59489C46.5555 9.61937 46.5609 9.65201 46.5527 9.69961C46.4671 9.98929 46.1992 10.2817 46.0251 10.5591C44.8215 12.2482 47.3334 11.7042 48.2256 11.5193C48.6757 11.4499 50.0507 10.9154 49.4455 11.6566C48.7451 12.4536 47.7863 13.4328 49.5053 13.5307C50.3281 13.5742 51.2448 13.4682 52.0431 13.3594C52.432 13.324 52.9828 13.2465 52.4579 13.7062C51.5548 14.4297 50.2832 15.3803 52.1818 15.6578C53.1161 15.7951 54.1851 15.7815 55.1003 15.7489C55.3125 15.7502 55.7817 15.7353 55.7763 15.825C55.7885 15.9298 55.6797 15.9692 55.5492 16.0658C54.6611 16.573 52.8359 17.351 53.9743 18.103C55.0147 18.7681 57.0084 19.1407 58.2882 19.4345C58.6214 19.4998 58.8825 19.6031 58.5344 19.6806C57.0506 19.9309 54.1307 20.0615 56.6671 21.6758C57.7782 22.4401 59.3354 23.067 60.3935 23.713C60.4125 23.7498 60.3472 23.7579 60.2044 23.7443C59.6387 23.675 58.9668 23.5226 58.3766 23.4682C54.9861 23.0698 59.8468 26.0713 60.5376 26.5854C60.7797 26.7363 61.457 27.1892 60.9851 27.0818C60.4588 26.9621 59.8413 26.739 59.2919 26.6289C56.3121 25.9747 60.6492 29.304 61.1986 29.8004C61.5196 30.071 61.7888 30.3118 61.2965 30.1812C60.913 30.0779 60.4696 29.9065 60.0712 29.8004C57.1934 28.9817 60.6464 32.3286 61.2027 32.9502C61.3455 33.1134 61.6596 33.4221 61.6338 33.4901C61.6379 33.5499 61.5604 33.5527 61.4108 33.5119C61.0068 33.3935 60.5594 33.18 60.1405 33.0617C59.6672 32.9162 59.4102 32.942 59.3 33.0712C59.198 33.1895 59.1681 33.4887 60.3228 35.3111C60.7253 35.9463 61.0789 36.4631 61.3346 36.8262C60.9592 36.8479 60.5254 36.5555 60.1419 36.4522C57.8054 35.6416 60.0657 38.892 60.49 39.6101C60.6832 39.9406 60.9769 40.3812 60.3486 40.1283C57.8272 38.8281 58.4555 40.4397 59.1572 42.069C59.2742 42.428 60.0494 43.599 59.7176 43.6316C59.4156 43.5826 59.0865 43.3188 58.7887 43.1665C56.4835 41.8228 58.1685 45.605 58.4772 46.4522C58.6132 46.8303 58.8281 47.3566 58.2487 46.9405C57.2899 46.1857 56.0456 45.1657 56.2196 47.1581C56.3026 48.1563 56.5773 49.2362 56.8194 50.1759C56.9391 50.6438 56.9214 50.8954 56.5841 50.539C56.3869 50.3405 56.1747 50.0658 55.9789 49.8427C54.0708 47.5538 54.2123 50.5173 54.2272 51.9426C54.2476 52.6946 54.3007 53.3094 54.3483 53.9649C54.3768 54.1322 54.3728 54.5143 54.3184 54.5429C54.2 54.5116 54.1429 54.3022 54.0586 54.1512C53.6465 53.2291 52.7462 50.875 52.0662 52.1275C51.2964 53.5963 51.1836 55.9382 50.7674 57.5784C50.7456 57.6002 50.7239 57.5662 50.7035 57.4778C50.5933 56.9038 50.5661 56.2361 50.4627 55.6458C50.135 53.5487 49.5842 53.5868 48.5506 55.4568C48.0256 56.4074 47.5088 57.543 47.0995 58.4787C47.0206 58.6977 46.7948 59.141 46.7296 59.2281Z" fill="#F4DD49"/>
<path d="M61.3346 36.8262C60.9592 36.8479 60.5254 36.5555 60.1419 36.4522C57.8054 35.6416 60.0657 38.892 60.49 39.6101C60.6832 39.9406 60.9769 40.3812 60.3486 40.1283C57.8272 38.8281 58.4555 40.4397 59.1572 42.069C59.2742 42.428 60.0494 43.599 59.7176 43.6316C59.4156 43.5826 59.0865 43.3188 58.7887 43.1665C56.4835 41.8228 58.1685 45.605 58.4772 46.4522C58.6132 46.8303 58.8281 47.3566 58.2487 46.9405C57.2899 46.1857 56.0456 45.1657 56.2196 47.1581C56.3026 48.1563 56.5773 49.2362 56.8194 50.1759C56.9391 50.6438 56.9214 50.8954 56.5841 50.539C56.3869 50.3405 56.1747 50.0658 55.9789 49.8427C54.0708 47.5538 54.2123 50.5173 54.2272 51.9426C54.2476 52.6946 54.3007 53.3094 54.3483 53.9649C54.3768 54.1322 54.3728 54.5143 54.3184 54.5429C54.2 54.5116 54.1429 54.3022 54.0586 54.1512C53.6465 53.2291 52.7462 50.875 52.0662 52.1275C51.2964 53.5963 51.1836 55.9382 50.7674 57.5784C50.7456 57.6002 50.7239 57.5662 50.7035 57.4778C50.5933 56.9038 50.5661 56.2361 50.4627 55.6458C50.135 53.5487 49.5842 53.5868 48.5506 55.4568C48.0256 56.4074 47.5088 57.543 47.0995 58.4787C47.0206 58.6977 46.7948 59.141 46.7296 59.2281C46.6983 59.2634 46.6874 59.2281 46.6983 59.1234C46.7078 59.02 46.7391 58.8459 46.7812 58.6283C46.8724 58.1496 46.9771 57.6423 47.0424 57.1582C47.5088 54.1675 45.6919 57.0684 45.0241 58.0748C44.6896 58.4855 43.2398 61.2722 43.8287 59.5001C44.8228 56.3748 44.1292 56.7107 42.4741 59.0758C42.2089 59.3627 41.0964 61.3946 41.3167 60.3215C42.3204 56.1055 40.0547 59.6592 39.1816 61.0056C39.0211 61.2259 38.9082 61.4014 38.8062 61.245C38.6484 60.3256 39.1204 58.2013 37.604 59.598C37.249 59.938 36.9212 60.3324 36.6139 60.7227C36.3174 61.0219 35.6156 62.3003 35.3817 62.1426C35.258 61.857 35.3817 61.3796 35.3885 61.0301C35.7299 57.2466 31.6744 62.197 30.6992 62.7233C30.6802 62.7219 30.668 62.7124 30.6612 62.692C30.6571 62.3343 30.9277 61.9032 31.0515 61.5374C32.4822 58.1945 29.4086 60.0659 28.0255 60.822C27.136 61.3252 27.8378 61.0151 27 61.5374C26.1962 62.0351 25.6491 61.9168 26 61.5374C26.5114 60.9811 27.782 59.477 27.4407 58.9248C27.2176 58.563 26.1405 58.8527 24.9247 59.1778C23.6204 59.5273 23.5 60 22.5 60C22.5 59.5001 22.8357 59.2934 23.3104 58.7603C23.6803 58.3455 24.0325 57.9334 24.3684 57.5281C24.3875 57.49 24.4065 57.4383 24.3848 57.407C24.314 57.305 23.8788 57.5118 23.2587 57.7715C22.8629 57.9361 22.459 58.083 22.0605 58.2394C21.1561 58.5943 20.7032 58.7711 20.6543 58.7086C20.5713 58.6025 22.5 57 22.5 56.417C21.5 56 19.3079 57.7416 19.195 57.5634C19.0046 57.2588 20.1443 55.5438 20.0668 55.144C20.064 55.129 20.0559 55.0882 20.026 55.0542C19.8968 54.9074 19.5268 55.0284 19.2997 55.1154C18.2607 55.5112 16.5376 56.5774 16.3825 56.417C16.2832 56.3136 16.8232 55.6853 17.5807 54.5946C18.2512 53.6276 18.4772 52.9218 18.2759 52.7191C18.1617 52.6035 16.932 53.2117 16.3825 53.5C14.9368 54.2575 13.7339 54.34 13.5 54C13.3042 53.7171 15.1558 52.8238 15.2891 51.4162C15.3367 50.9049 15.3911 51.1701 15.2891 50.8682C15.2891 50.8682 14.6909 50.5095 14 50.5C13.1486 50.4878 12.0278 50.1528 12.0591 50.01C12.1012 49.8237 13.415 50.301 14.144 49.6156C14.435 49.3422 14.6689 48.8472 14.5071 48.5521C14.2895 48.1522 13.5143 48.4242 11.9557 48.0829C11.628 48.0122 11.4104 47.9442 11.0187 47.8231C9.61923 47.3907 9.34587 47.3134 9.39075 47.1774C9.46147 46.9653 11.8252 47.5511 12.0428 47.0262C12.0536 47.0003 12.0564 46.9704 12.0482 46.935C12.0224 46.7134 11.598 46.3176 10.8188 45.7573C9.74435 44.9494 8.40747 44.2314 7.38747 43.4861C7.36299 43.4507 7.41059 43.4507 7.53435 43.4847C8.07971 43.6384 8.80595 43.9417 9.39075 44.0967C12.9363 45.1602 8.05523 41.8228 7.36299 41.3019C7.21475 41.1945 6.91827 40.9755 6.88699 40.9089C6.86251 40.8681 6.89243 40.8545 6.97811 40.8681C9.81507 41.8011 10.7317 41.8582 7.96139 39.455C7.70979 39.183 6.04787 38.042 6.46539 38.0447C6.90603 38.091 7.39563 38.295 7.84443 38.382C8.52851 38.5357 8.88483 38.484 8.90251 38.2188C8.78147 37.5578 8.15995 36.9989 7.46771 36.2563C7.09643 35.8728 6.74419 35.5614 6.39467 35.2159C6.25051 35.05 6.12539 34.9657 6.16211 34.8555C6.23555 34.8025 6.33211 34.8297 6.42595 34.8392C6.75643 34.8895 7.41875 35.0772 7.84851 35.1153C8.22931 35.1615 8.76651 35.1534 8.51627 34.6366C8.37483 34.2843 7.92875 33.6261 7.44459 33.0032C7.15355 32.6238 6.84483 32.2634 6.55379 31.9098C6.43819 31.7724 6.23147 31.4909 6.25731 31.4011C6.28723 31.1142 7.82811 31.8458 8.14907 31.7629C9.83411 31.7642 6.99987 28.2187 6.82987 27.5183C6.84347 27.4626 6.91283 27.4666 6.96723 27.483C7.29227 27.585 7.64451 27.8243 7.96683 27.9807C10.0721 29.0932 9.21667 26.8356 8.76787 25.5776C8.47139 24.6039 7.36707 22.9569 9.13643 24.5481C11.3777 26.3786 9.78107 22.1314 9.50227 21.2338C9.38395 20.8475 9.19627 20.3185 9.78379 20.8693C11.938 23.131 11.8877 21.5629 11.5232 19.391C11.428 18.8266 11.307 18.3424 11.205 17.8297C11.02 16.9348 11.6116 17.797 11.8279 18.0582C14.129 21.2066 13.8461 16.6737 13.9019 15.1002C13.9114 13.5593 14.7886 16.9851 15.4428 16.6084C15.5393 16.5771 15.606 16.4901 15.6685 16.403C15.9106 16.0603 16.1255 15.1314 16.2669 14.2855C16.3839 13.8911 16.4492 11.8552 16.7497 12.5937C16.9428 13.0262 17.2992 14.567 17.7915 14.4297C17.8826 14.412 17.9533 14.3399 18.02 14.2692C18.4728 13.7674 18.904 11.9082 19.1093 11.0705C19.2562 10.5156 19.3868 10.721 19.5146 11.1398C20.1416 13.6735 20.8991 12.5026 21.7124 10.74C21.9028 10.3878 22.2509 9.15017 22.4617 9.60033C22.7106 10.2817 22.7827 11.9354 23.8054 10.691C24.0747 10.3646 24.3059 9.98929 24.5208 9.61801C24.7234 9.27393 24.892 8.83329 25.164 8.67009C25.6196 8.73129 25.4823 10.1144 26.1419 9.96481C26.4724 9.88593 26.9429 9.24945 27.3196 8.58849C27.6787 8.00913 27.9847 7.06393 28.4049 8.25121C29.3379 10.9562 31.3017 6.71985 31.775 7.08433C31.9654 7.30465 31.9736 7.71129 32.0552 8.00913C32.2728 9.25897 33.3472 8.60073 34.0312 8.01729C34.5154 7.66913 34.9601 7.03265 35.4511 6.80281C35.8264 6.75521 35.5884 8.03497 35.734 8.29337C36.0821 9.37185 37.4693 8.31649 38.2459 7.80649C38.5954 7.56169 38.9476 7.26521 39.1707 7.13601C40.1567 6.58249 38.488 9.31337 39.8561 9.33785C40.547 9.41809 42.1219 8.63881 42.9025 8.26617C44.2707 7.73305 41.1848 10.6951 43.6546 10.3361C44.4556 10.2246 45.375 9.89817 46.104 9.64521C46.3188 9.57721 46.4603 9.55409 46.5215 9.59489C46.5555 9.61937 46.5609 9.65201 46.5527 9.69961C46.4671 9.98929 46.1992 10.2817 46.0251 10.5591C44.8215 12.2482 47.3334 11.7042 48.2256 11.5193C48.6757 11.4499 50.0507 10.9154 49.4455 11.6566C48.7451 12.4536 47.7863 13.4328 49.5053 13.5307C50.3281 13.5742 51.2448 13.4682 52.0431 13.3594C52.432 13.324 52.9828 13.2465 52.4579 13.7062C51.5548 14.4297 50.2832 15.3803 52.1818 15.6578C53.1161 15.7951 54.1851 15.7815 55.1003 15.7489C55.3125 15.7502 55.7817 15.7353 55.7763 15.825C55.7885 15.9298 55.6797 15.9692 55.5492 16.0658C54.6611 16.573 52.8359 17.351 53.9743 18.103C55.0147 18.7681 57.0084 19.1407 58.2882 19.4345C58.6214 19.4998 58.8825 19.6031 58.5344 19.6806C57.0506 19.9309 54.1307 20.0614 56.6671 21.6758C57.7782 22.4401 59.3354 23.067 60.3935 23.713C60.4125 23.7498 60.3472 23.7579 60.2044 23.7443C59.6387 23.675 58.9668 23.5226 58.3766 23.4682C54.9861 23.0698 59.8468 26.0713 60.5376 26.5854C60.7797 26.7363 61.457 27.1892 60.9851 27.0818C60.4588 26.9621 59.8413 26.739 59.2919 26.6289C56.3121 25.9747 60.6491 29.304 61.1986 29.8004C61.5195 30.071 61.7888 30.3118 61.2965 30.1812C60.913 30.0778 60.4696 29.9065 60.0712 29.8004C57.1934 28.9817 60.6464 32.3286 61.2027 32.9502C61.3455 33.1134 61.6596 33.4221 61.6338 33.4901C61.6379 33.5499 61.5604 33.5527 61.4108 33.5119C61.0068 33.3935 60.5594 33.18 60.1405 33.0617C59.6672 32.9162 59.4102 32.942 59.3 33.0712C59.198 33.1895 59.1681 33.4887 60.3228 35.3111C60.7253 35.9463 61.0789 36.463 61.3346 36.8262Z" stroke="#1D1D1B" stroke-width="0.5" stroke-miterlimit="10"/>
<path d="M34.631 56.3123C46.5323 56.3123 56.1802 46.6644 56.1802 34.7631C56.1802 22.8618 46.5323 13.2139 34.631 13.2139C22.7297 13.2139 13.0818 22.8618 13.0818 34.7631C13.0818 46.6644 22.7297 56.3123 34.631 56.3123Z" fill="#C8A118" stroke="#1D1D1B" stroke-width="0.5" stroke-miterlimit="10"/>
<path d="M14.3073 27.3034C20.3579 26.5106 26.6017 25.7911 33.0304 25.1655C39.8372 24.5032 46.4617 23.9837 52.8905 23.5852" stroke="#1D1D1B" stroke-miterlimit="10" stroke-linecap="round"/>
<path d="M14.3073 27.3034C14.5357 28.2894 15.6795 32.7475 19.8533 35.1139C20.5973 35.5355 22.5312 36.599 25.1655 36.4684C25.6252 36.4453 30.2601 36.1352 32.6659 32.0933C34.5237 28.9721 33.7716 25.7788 33.5989 25.1111" fill="#1D1D1B"/>
<path d="M14.3073 27.3034C14.5357 28.2894 15.6795 32.7475 19.8533 35.1139C20.5973 35.5355 22.5312 36.599 25.1655 36.4684C25.6252 36.4453 30.2601 36.1352 32.6659 32.0933C34.5237 28.9721 33.7716 25.7788 33.5989 25.1111" stroke="#1D1D1B" stroke-miterlimit="10"/>
<path d="M33.5988 25.1479C33.8041 26.0795 34.8445 30.2995 38.9123 32.6143C39.6372 33.0263 41.5221 34.0667 44.1211 33.9974C44.5753 33.9851 49.149 33.7879 51.5984 30.0316C53.4901 27.1321 52.8115 24.1102 52.6537 23.4778" fill="#1D1D1B"/>
<path d="M33.5988 25.1479C33.8041 26.0795 34.8445 30.2995 38.9123 32.6143C39.6372 33.0263 41.5221 34.0667 44.1211 33.9974C44.5753 33.9851 49.149 33.7879 51.5984 30.0316C53.4901 27.1321 52.8115 24.1102 52.6537 23.4778" stroke="#1D1D1B" stroke-miterlimit="10"/>
<path d="M26 43C27.8872 44.8542 30.5909 46.0336 33 46C35.1391 45.9696 36.8362 45.664 38.5 44C38.4935 44.0687 38.9858 43.2366 38.9793 43.3053" stroke="#1D1D1B" stroke-width="0.75" stroke-miterlimit="10" stroke-linecap="round"/>
</svg>
