<svg width="74" height="82" viewBox="0 0 74 82" fill="none" xmlns="http://www.w3.org/2000/svg">
<rect y="3" width="74" height="79" rx="11" fill="url(#paint0_linear_191_48)"/>
<path d="M35.6192 10.9984C49.1586 10.9984 60.1332 21.9744 60.1332 35.5138C60.1332 49.0532 49.1586 60.0292 35.6192 60.0292C22.0798 60.0292 11.1038 49.0532 11.1038 35.5138C11.1038 21.9744 22.0798 10.9984 35.6192 10.9984Z" fill="url(#paint1_linear_191_48)"/>
<path d="M20.1562 22.3271C24.1672 25.0753 28.0718 27.9775 31.8588 31.0281" stroke="#1D1D1B" stroke-width="0.75" stroke-miterlimit="10"/>
<path d="M38.9246 31.0282C42.7788 27.9062 46.633 24.7842 50.4872 21.6622" stroke="#1D1D1B" stroke-width="0.75" stroke-miterlimit="10"/>
<path d="M26.0069 40.7023C29.1561 40.7023 31.7091 38.1493 31.7091 35.0001C31.7091 31.8508 29.1561 29.2979 26.0069 29.2979C22.8576 29.2979 20.3047 31.8508 20.3047 35.0001C20.3047 38.1493 22.8576 40.7023 26.0069 40.7023Z" fill="#FBF1D0" stroke="#1D1D1B" stroke-width="0.75" stroke-miterlimit="10"/>
<path d="M44.6282 40.7023C47.7775 40.7023 50.3304 38.1493 50.3304 35.0001C50.3304 31.8508 47.7775 29.2979 44.6282 29.2979C41.479 29.2979 38.926 31.8508 38.926 35.0001C38.926 38.1493 41.479 40.7023 44.6282 40.7023Z" fill="#FBF1D0" stroke="#1D1D1B" stroke-width="0.75" stroke-miterlimit="10"/>
<path d="M42.0157 54.1911H28.7395C29.4535 50.4195 30.1675 46.6479 30.8815 42.8763H39.2339C40.1607 46.6479 41.0875 50.4195 42.0157 54.1911Z" fill="#9C523B" stroke="#1D1D1B" stroke-width="0.75" stroke-miterlimit="10"/>
<path d="M33.0237 47.0063L30.8677 42.8763H35.1811L33.0237 47.0063Z" fill="#FBF1D0"/>
<path d="M37.3383 47.0063L35.1809 42.8763H39.4957L37.3383 47.0063Z" fill="#FBF1D0"/>
<path d="M30.8969 50.0598L33.0529 54.1912H28.7395L30.8969 50.0598Z" fill="#FBF1D0"/>
<path d="M35.1811 50.0598L37.3385 54.1912H33.0237L35.1811 50.0598Z" fill="#FBF1D0"/>
<path d="M39.4958 50.0598L41.6518 54.1912H37.3384L39.4958 50.0598Z" fill="#FBF1D0"/>
<path d="M32.941 31.9074C32.8122 32.4926 32.8136 33.0988 32.7912 33.6952C32.7688 34.2916 32.745 34.9048 32.7212 35.5096C32.675 36.7192 32.6288 37.9274 32.5826 39.137C32.5658 39.5878 33.2658 39.5864 33.2826 39.137C33.3288 37.9512 33.3736 36.7654 33.4198 35.5796C33.4422 34.9986 33.4646 34.4162 33.487 33.8352C33.5094 33.2542 33.4926 32.6606 33.6172 32.095C33.7138 31.6554 33.039 31.4692 32.9424 31.9088L32.941 31.9074Z" fill="#E30613"/>
<path d="M34.8407 31.7129C34.8365 34.0663 34.8029 36.4211 34.7399 38.7731C34.7273 39.2239 35.4273 39.2239 35.4399 38.7731C35.5029 36.4197 35.5365 34.0663 35.5407 31.7129C35.5407 31.2621 34.8421 31.2621 34.8407 31.7129Z" fill="#E30613"/>
<path d="M37.1983 31.3194C37.2641 33.7554 36.7489 36.1746 36.9295 38.6106C36.9435 38.7996 37.0807 38.9606 37.2795 38.9606C37.4587 38.9606 37.6435 38.7996 37.6295 38.6106C37.4489 36.1746 37.9641 33.7554 37.8983 31.3194C37.8857 30.87 37.1857 30.8686 37.1983 31.3194Z" fill="#E30613"/>
<path d="M14.874 27.6402C15.2072 27.965 15.5278 28.3248 15.8918 28.6146C16.085 28.7686 16.3062 28.882 16.5596 28.8736C16.7976 28.8652 17.023 28.7602 17.2148 28.6244C17.8784 28.1512 18.283 27.349 18.227 26.5286C18.2144 26.3396 18.0758 26.1786 17.877 26.1786C17.6978 26.1786 17.5144 26.3396 17.527 26.5286C17.5662 27.0872 17.3352 27.6528 16.8956 27.9958C16.7976 28.0714 16.6562 28.1736 16.5372 28.175C16.4434 28.175 16.3398 28.0854 16.2516 28.0028C15.952 27.7228 15.6636 27.4302 15.3696 27.1446C15.0462 26.8296 14.5506 27.3252 14.874 27.6402Z" fill="#E30613"/>
<path d="M13.7119 29.4294C14.6093 29.9978 15.2715 30.9008 15.5529 31.9256C15.6719 32.3596 16.3481 32.1748 16.2277 31.7394C15.8973 30.5382 15.1161 29.491 14.0661 28.8246C13.6839 28.5824 13.3325 29.1886 13.7133 29.4294H13.7119Z" fill="#E30613"/>
<path d="M19.4085 26.8422C18.9451 27.6514 18.3403 28.497 18.2269 29.4434C18.1331 30.2274 18.5209 31.0814 19.3077 31.3348C19.7375 31.4734 19.9209 30.7972 19.4939 30.66C18.9479 30.485 18.8443 29.7808 18.9591 29.2992C19.0445 28.9408 19.2125 28.6146 19.3903 28.294C19.5947 27.9258 19.8061 27.5604 20.0147 27.195C20.2387 26.803 19.6339 26.4502 19.4099 26.8422H19.4085Z" fill="#E30613"/>
<path d="M17.1098 33.7918L17.3268 33.4866C17.3618 33.4362 17.3982 33.3858 17.4346 33.3354C17.4486 33.3158 17.464 33.2948 17.4794 33.2752C17.4584 33.3032 17.4878 33.264 17.4934 33.257C17.5298 33.215 17.5662 33.173 17.6068 33.1352C17.653 33.0918 17.6278 33.11 17.6824 33.0778C17.695 33.0708 17.7552 33.0372 17.7146 33.0554C17.737 33.0456 17.7608 33.0386 17.7846 33.0316C17.8084 33.0246 17.8322 33.019 17.856 33.0134C17.9134 33.0008 17.8574 33.0106 17.891 33.0092C17.9414 33.0078 17.9904 33.0078 18.0408 33.0092C18.1024 33.0134 17.9988 33.0008 18.0604 33.0106C18.0912 33.0162 18.122 33.0232 18.1528 33.0302C18.2004 33.0428 18.2494 33.0582 18.2956 33.0764C18.2648 33.0638 18.3124 33.0848 18.318 33.0876C18.3474 33.1016 18.3754 33.117 18.4034 33.1324C18.605 33.2444 18.7282 33.3578 18.9004 33.5174C19.039 33.6462 19.2588 33.6546 19.396 33.5174C19.5332 33.3802 19.5346 33.152 19.396 33.0218C18.9788 32.6326 18.4608 32.249 17.8546 32.3092C17.5396 32.34 17.2624 32.4674 17.0468 32.7012C16.8424 32.9238 16.68 33.1884 16.505 33.4334C16.3958 33.5874 16.477 33.8226 16.631 33.9122C16.806 34.0144 17.0006 33.9416 17.1098 33.7862V33.7918Z" fill="#E30613"/>
<path d="M23.0627 67.315C23.5394 67.4323 23.9024 67.634 24.1517 67.92C24.4011 68.206 24.5257 68.5727 24.5257 69.02C24.5257 69.658 24.2911 70.164 23.8217 70.538C23.3524 70.912 22.7254 71.099 21.9407 71.099C21.5667 71.099 21.2111 71.0513 20.8737 70.956C20.5437 70.8533 20.2577 70.714 20.0157 70.538L20.1917 69.746L20.2797 69.713C20.4997 69.9183 20.7527 70.076 21.0387 70.186C21.3321 70.296 21.6291 70.351 21.9297 70.351C22.4284 70.351 22.8354 70.2227 23.1507 69.966C23.4734 69.7093 23.6347 69.3757 23.6347 68.965C23.6347 68.6277 23.5284 68.3527 23.3157 68.14C23.1104 67.92 22.8171 67.777 22.4357 67.711H21.0167L20.9397 67.634L20.9947 67.029L22.3807 67.04C22.6521 66.9373 22.8684 66.765 23.0297 66.523C23.1984 66.2737 23.2827 66.0023 23.2827 65.709C23.2827 65.3717 23.1691 65.115 22.9417 64.939C22.7144 64.7557 22.3881 64.664 21.9627 64.664C21.3614 64.664 20.7747 64.8693 20.2027 65.28L20.0927 65.247L20.1587 64.433C20.7234 64.0737 21.3394 63.894 22.0067 63.894C22.6741 63.894 23.2021 64.048 23.5907 64.356C23.9794 64.6567 24.1737 65.0637 24.1737 65.577C24.1737 65.951 24.0747 66.292 23.8767 66.6C23.6861 66.908 23.4147 67.1463 23.0627 67.315ZM29.6926 69.284L29.7146 71H28.8786L28.9116 69.35L28.8896 66.16H27.4596L27.4156 66.6C27.3056 67.722 27.181 68.5947 27.0416 69.218C26.9023 69.8413 26.7263 70.296 26.5136 70.582C26.301 70.868 26.0223 71.0403 25.6776 71.099L25.4356 71.132L25.2706 70.428C25.564 70.34 25.795 70.1677 25.9636 69.911C26.1396 69.6543 26.279 69.262 26.3816 68.734C26.4916 68.1987 26.5906 67.436 26.6786 66.446L26.7666 65.522L26.7556 65.5H29.7366L29.6926 69.284ZM33.71 65.456C34.5093 65.456 35.1216 65.6907 35.547 66.16C35.9796 66.6293 36.196 67.293 36.196 68.151C36.196 69.0823 35.965 69.8047 35.503 70.318C35.0483 70.824 34.3956 71.077 33.545 71.077C32.753 71.077 32.1406 70.8387 31.708 70.362C31.2753 69.878 31.059 69.1923 31.059 68.305C31.059 67.3957 31.29 66.6953 31.752 66.204C32.214 65.7053 32.8666 65.456 33.71 65.456ZM33.633 66.149C33.0536 66.149 32.621 66.314 32.335 66.644C32.0563 66.974 31.917 67.4947 31.917 68.206C31.917 68.9687 32.0563 69.5223 32.335 69.867C32.6136 70.2117 33.039 70.384 33.611 70.384C34.1976 70.384 34.634 70.2153 34.92 69.878C35.206 69.5407 35.349 69.0127 35.349 68.294C35.349 67.5533 35.206 67.0107 34.92 66.666C34.6413 66.3213 34.2123 66.149 33.633 66.149ZM39.8435 65.467C40.4522 65.467 40.9802 65.5953 41.4275 65.852L41.2735 66.611L41.1745 66.644C40.9912 66.49 40.7785 66.369 40.5365 66.281C40.2945 66.193 40.0342 66.149 39.7555 66.149C39.2128 66.149 38.7985 66.325 38.5125 66.677C38.2265 67.0217 38.0835 67.5387 38.0835 68.228C38.0835 68.9247 38.2265 69.4563 38.5125 69.823C38.7985 70.1897 39.2128 70.373 39.7555 70.373C40.0195 70.373 40.2835 70.329 40.5475 70.241C40.8188 70.1457 41.0608 70.021 41.2735 69.867L41.3725 69.9L41.2955 70.659C40.7968 70.9303 40.2725 71.066 39.7225 71.066C38.9158 71.066 38.2962 70.8277 37.8635 70.351C37.4308 69.867 37.2145 69.1813 37.2145 68.294C37.2145 67.392 37.4418 66.6953 37.8965 66.204C38.3585 65.7127 39.0075 65.467 39.8435 65.467ZM46.0767 65.588L46.0217 66.281L44.9987 66.204H44.4487L44.4157 69.284L44.4487 71H43.6237L43.6567 69.35L43.6347 66.204H43.0847L42.0397 66.281L41.9737 66.204L42.0397 65.522H46.0327L46.0767 65.588ZM49.2861 67.722C49.8508 67.722 50.2798 67.8503 50.5731 68.107C50.8738 68.3563 51.0241 68.7193 51.0241 69.196C51.0241 69.768 50.8188 70.2117 50.4081 70.527C50.0048 70.8423 49.4328 71 48.6921 71H47.2291L47.2621 69.35L47.2291 65.5H48.0761L48.0541 67.722H49.2861ZM48.9891 70.395C49.3705 70.351 49.6565 70.2373 49.8471 70.054C50.0451 69.8633 50.1441 69.614 50.1441 69.306C50.1441 68.998 50.0451 68.7597 49.8471 68.591C49.6565 68.415 49.3778 68.3307 49.0111 68.338L48.0431 68.349L48.0321 69.284L48.0541 70.362L48.9891 70.395Z" fill="#FDF9F5"/>
<defs>
<linearGradient id="paint0_linear_191_48" x1="37" y1="3" x2="37" y2="82" gradientUnits="userSpaceOnUse">
<stop offset="0.278846" stop-color="#F3403A"/>
<stop offset="1" stop-color="#F39955"/>
</linearGradient>
<linearGradient id="paint1_linear_191_48" x1="35.6178" y1="35.5138" x2="35.6178" y2="-13.517" gradientUnits="userSpaceOnUse">
<stop stop-color="#DFCB67"/>
<stop offset="0.29" stop-color="#A63814"/>
<stop offset="1" stop-color="#A43211"/>
</linearGradient>
</defs>
</svg>
