<svg width="74" height="80" viewBox="0 0 74 80" fill="none" xmlns="http://www.w3.org/2000/svg">
<rect y="1" width="74" height="79" rx="11" fill="url(#paint0_linear_191_49)"/>
<path d="M36.9509 10.5461C50.4903 10.5461 61.4649 21.5221 61.4649 35.0615C61.4649 48.6009 50.4903 59.5769 36.9509 59.5769C23.4115 59.5769 12.4355 48.6009 12.4355 35.0615C12.4355 21.5221 23.4115 10.5461 36.9509 10.5461Z" fill="url(#paint1_linear_191_49)"/>
<path d="M18.3408 27.0648C22.7172 26.6994 27.0236 25.5094 30.9674 23.576C31.0374 23.5424 31.1214 23.5088 31.1872 23.5494C31.253 23.59 31.211 23.7286 31.1424 23.695" stroke="#1D1D1B" stroke-width="0.75" stroke-miterlimit="10" stroke-linecap="round"/>
<path d="M38.5303 24.7156C43.4387 26.2794 48.7125 26.684 53.8029 25.886" stroke="#1D1D1B" stroke-width="0.75" stroke-miterlimit="10" stroke-linecap="round"/>
<path d="M24.5961 38.6022C28.2541 38.6022 31.2195 36.5331 31.2195 33.9808C31.2195 31.4284 28.2541 29.3594 24.5961 29.3594C20.9381 29.3594 17.9727 31.4284 17.9727 33.9808C17.9727 36.5331 20.9381 38.6022 24.5961 38.6022Z" fill="#FBF1D0"/>
<path d="M45.5624 38.6022C49.2204 38.6022 52.1858 36.5331 52.1858 33.9808C52.1858 31.4284 49.2204 29.3594 45.5624 29.3594C41.9044 29.3594 38.939 31.4284 38.939 33.9808C38.939 36.5331 41.9044 38.6022 45.5624 38.6022Z" fill="#FBF1D0"/>
<path d="M29.3882 48.0718C30.4116 47.411 31.7234 47.2136 32.8952 47.5454C33.5 47.7162 34.0712 48.02 34.6956 48.09C36.1432 48.2538 37.5712 47.138 38.9782 47.5132C39.8448 47.7442 40.5238 48.51 41.4142 48.615C42.0414 48.6892 42.6546 48.4176 43.2832 48.349C44.3402 48.2342 45.3664 48.6948 46.3296 49.1456" stroke="#1D1D1B" stroke-width="0.75" stroke-miterlimit="10" stroke-linecap="round"/>
<path d="M53.9371 39.9798C54.5038 39.9798 54.9633 39.4257 54.9633 38.7422C54.9633 38.0587 54.5038 37.5046 53.9371 37.5046C53.3703 37.5046 52.9109 38.0587 52.9109 38.7422C52.9109 39.4257 53.3703 39.9798 53.9371 39.9798Z" fill="#89CFE4"/>
<path d="M55.5667 44.6866C56.0669 44.6866 56.4725 44.1594 56.4725 43.5092C56.4725 42.8589 56.0669 42.3318 55.5667 42.3318C55.0664 42.3318 54.6609 42.8589 54.6609 43.5092C54.6609 44.1594 55.0664 44.6866 55.5667 44.6866Z" fill="#89CFE4"/>
<path d="M24.5961 36.4196C25.9624 36.4196 27.0699 35.1497 27.0699 33.5832C27.0699 32.0167 25.9624 30.7468 24.5961 30.7468C23.2299 30.7468 22.1223 32.0167 22.1223 33.5832C22.1223 35.1497 23.2299 36.4196 24.5961 36.4196Z" fill="#1D1D1B"/>
<path d="M44.4943 36.6968C45.8606 36.6968 46.9681 35.4269 46.9681 33.8604C46.9681 32.2939 45.8606 31.024 44.4943 31.024C43.1281 31.024 42.0205 32.2939 42.0205 33.8604C42.0205 35.4269 43.1281 36.6968 44.4943 36.6968Z" fill="#1D1D1B"/>
<path d="M52.8915 38.2312C52.8509 38.6512 52.9391 39.0824 53.1407 39.452C53.2331 39.62 53.3549 39.7824 53.5285 39.8636C53.6657 39.928 53.8197 39.935 53.9709 39.9392C54.1011 39.9434 54.2369 39.9434 54.3503 39.879C54.4343 39.8314 54.4945 39.7544 54.5533 39.6788C54.6765 39.5206 54.7983 39.3596 54.8795 39.1776C54.9607 38.9956 54.9971 38.7856 54.9411 38.5938" stroke="#1D1D1B" stroke-width="0.75" stroke-miterlimit="10" stroke-linecap="round"/>
<path d="M54.7883 42.7504C54.7085 43.0136 54.6399 43.2838 54.6357 43.5582C54.6315 43.8326 54.6945 44.1168 54.8583 44.338C55.0221 44.5592 55.2965 44.7076 55.5695 44.6796C55.7655 44.66 55.9419 44.555 56.0959 44.4318C56.2079 44.3408 56.3129 44.2386 56.3913 44.1182C56.5775 43.8326 56.6055 43.4686 56.5425 43.134C56.5397 43.1186 56.5327 43.1004 56.5173 43.099C56.5019 43.0976 56.5047 43.1312 56.5173 43.1214" stroke="#1D1D1B" stroke-width="0.75" stroke-miterlimit="10" stroke-linecap="round"/>
<path d="M17.9461 34.4358C17.8131 33.3494 18.2499 32.2364 18.9849 31.4244C19.7199 30.6124 20.7265 30.0804 21.7793 29.778C22.8321 29.4756 23.9339 29.3902 25.0287 29.3636C25.4221 29.3538 25.8183 29.3524 26.2061 29.4182C26.6177 29.4882 27.0125 29.6338 27.3975 29.7962C28.4223 30.2302 29.4093 30.8084 30.1415 31.6456C30.8737 32.4842 31.3259 33.6112 31.1733 34.7144" stroke="#1D1D1B" stroke-width="0.75" stroke-miterlimit="10" stroke-linecap="round"/>
<path d="M38.8579 34.7214C38.8817 33.5118 39.2177 32.2756 39.9975 31.3516C40.6205 30.6138 41.4927 30.114 42.4139 29.8214C43.3351 29.5288 44.3067 29.4322 45.2713 29.4C46.7217 29.351 48.2253 29.4574 49.5119 30.1294C50.1335 30.4542 50.6851 30.9036 51.1793 31.4006C51.5713 31.7954 51.9381 32.2322 52.1411 32.7502C52.4631 33.572 52.3399 34.5002 52.1173 35.3542" stroke="#1D1D1B" stroke-width="0.75" stroke-miterlimit="10" stroke-linecap="round"/>
<path d="M23.4484 62.037L23.3824 62.719L22.1504 62.653H21.4354L21.4024 66.8L21.4354 69H20.5444L20.6104 66.877L20.5554 62.653H19.8404L18.5864 62.719L18.5314 62.631L18.5974 61.949H23.3824L23.4484 62.037ZM26.4701 63.511C27.0495 63.511 27.4931 63.6503 27.8011 63.929C28.1165 64.2077 28.2741 64.611 28.2741 65.139C28.2741 65.755 28.0761 66.239 27.6801 66.591C27.2915 66.9357 26.7525 67.108 26.0631 67.108H25.3921V67.284L25.4141 69H24.6001L24.6331 67.35L24.6001 63.522L26.4701 63.511ZM26.3271 66.47C27.0531 66.3453 27.4161 65.9237 27.4161 65.205C27.4161 64.8603 27.3171 64.6037 27.1191 64.435C26.9285 64.2663 26.6388 64.1747 26.2501 64.16L25.4141 64.171L25.4031 66.448L26.3271 66.47ZM32.9393 68.296L33.0053 68.362L32.9283 69H29.5953L29.6283 67.35L29.5953 63.522H32.9503L33.0053 63.588L32.9393 64.226L31.5533 64.182L30.4093 64.193L30.3983 65.854L31.4873 65.865L32.4443 65.832L32.4993 65.909L32.4333 66.558L31.4213 66.525L30.3983 66.536L30.3873 67.284L30.3983 68.329L31.4763 68.34L32.9393 68.296ZM37.2071 66.151C38.0211 66.3123 38.4281 66.745 38.4281 67.449C38.4281 67.977 38.2228 68.373 37.8121 68.637C37.4014 68.901 36.8001 69.033 36.0081 69.033C35.5314 69.033 35.0731 69.022 34.6331 69L34.6661 67.35L34.6331 63.522L36.3491 63.511C36.8991 63.511 37.3244 63.6283 37.6251 63.863C37.9331 64.0903 38.0871 64.4167 38.0871 64.842C38.0871 65.1573 38.0101 65.425 37.8561 65.645C37.7021 65.865 37.4858 66.0337 37.2071 66.151ZM37.2181 64.941C37.2181 64.6697 37.1301 64.4717 36.9541 64.347C36.7781 64.2223 36.4958 64.16 36.1071 64.16H35.4361L35.4251 65.854L36.4041 65.887C36.6754 65.8283 36.8771 65.7257 37.0091 65.579C37.1484 65.425 37.2181 65.2123 37.2181 64.941ZM36.1071 68.406C36.5838 68.406 36.9468 68.3253 37.1961 68.164C37.4528 67.9953 37.5811 67.7497 37.5811 67.427C37.5811 67.163 37.4931 66.9577 37.3171 66.811C37.1411 66.6643 36.8734 66.5653 36.5141 66.514L35.4251 66.525L35.4141 67.284L35.4361 68.373C35.6634 68.395 35.8871 68.406 36.1071 68.406ZM42.0845 63.456C42.8838 63.456 43.4961 63.6907 43.9215 64.16C44.3541 64.6293 44.5705 65.293 44.5705 66.151C44.5705 67.0823 44.3395 67.8047 43.8775 68.318C43.4228 68.824 42.7701 69.077 41.9195 69.077C41.1275 69.077 40.5151 68.8387 40.0825 68.362C39.6498 67.878 39.4335 67.1923 39.4335 66.305C39.4335 65.3957 39.6645 64.6953 40.1265 64.204C40.5885 63.7053 41.2411 63.456 42.0845 63.456ZM42.0075 64.149C41.4281 64.149 40.9955 64.314 40.7095 64.644C40.4308 64.974 40.2915 65.4947 40.2915 66.206C40.2915 66.9687 40.4308 67.5223 40.7095 67.867C40.9881 68.2117 41.4135 68.384 41.9855 68.384C42.5721 68.384 43.0085 68.2153 43.2945 67.878C43.5805 67.5407 43.7235 67.0127 43.7235 66.294C43.7235 65.5533 43.5805 65.0107 43.2945 64.666C43.0158 64.3213 42.5868 64.149 42.0075 64.149ZM49.197 63.577L49.12 64.204L47.888 64.182H46.953L46.931 67.284L46.953 69H46.106L46.15 67.35L46.106 63.5H49.131L49.197 63.577ZM54.3882 69H53.5632L53.4312 68.406L53.1452 67.592L51.8362 67.581L50.6702 67.592L50.3732 68.362L50.2192 69H49.4052L51.5172 63.522H52.4632L54.3882 69ZM52.9142 66.921L52.0012 64.325H51.9352L50.9342 66.921L51.9022 66.932L52.9142 66.921Z" fill="#FDF9F5"/>
<defs>
<linearGradient id="paint0_linear_191_49" x1="37" y1="1" x2="37" y2="80" gradientUnits="userSpaceOnUse">
<stop offset="0.197115" stop-color="#CB9B00"/>
<stop offset="1" stop-color="#F3AE55"/>
</linearGradient>
<linearGradient id="paint1_linear_191_49" x1="36.9495" y1="35.0615" x2="36.9495" y2="-13.9693" gradientUnits="userSpaceOnUse">
<stop stop-color="#DFCB67"/>
<stop offset="0.43" stop-color="#224E87"/>
<stop offset="1" stop-color="#174A86"/>
</linearGradient>
</defs>
</svg>
