<svg width="74" height="82" viewBox="0 0 74 82" fill="none" xmlns="http://www.w3.org/2000/svg">
<rect y="3" width="74" height="79" rx="11" fill="url(#paint0_linear_190_42)"/>
<path d="M8.91604 62.894C9.65671 62.894 10.2984 63.07 10.841 63.422L10.665 64.225L10.566 64.247C10.0747 63.8363 9.51004 63.631 8.87204 63.631C8.17537 63.631 7.64004 63.873 7.26604 64.357C6.89204 64.8337 6.70504 65.534 6.70504 66.458C6.70504 67.3893 6.89204 68.1007 7.26604 68.592C7.64004 69.0833 8.16804 69.329 8.85004 69.329C9.17271 69.329 9.49171 69.2703 9.80704 69.153C10.1297 69.0357 10.423 68.8707 10.687 68.658L10.797 68.713L10.72 69.549C10.082 69.901 9.43304 70.077 8.77304 70.077C7.82704 70.077 7.09371 69.7727 6.57304 69.164C6.05237 68.548 5.79204 67.6717 5.79204 66.535C5.79204 65.369 6.06337 64.4707 6.60604 63.84C7.14871 63.2093 7.91871 62.894 8.91604 62.894ZM16.5228 68.284L16.5558 70H15.7198L15.7418 68.35L15.7198 65.171H13.2008L13.1788 68.284L13.2008 70H12.3648L12.3978 68.35L12.3648 64.5H16.5668L16.5228 68.284ZM20.5464 64.456C21.3457 64.456 21.9581 64.6907 22.3834 65.16C22.8161 65.6293 23.0324 66.293 23.0324 67.151C23.0324 68.0823 22.8014 68.8047 22.3394 69.318C21.8847 69.824 21.2321 70.077 20.3814 70.077C19.5894 70.077 18.9771 69.8387 18.5444 69.362C18.1117 68.878 17.8954 68.1923 17.8954 67.305C17.8954 66.3957 18.1264 65.6953 18.5884 65.204C19.0504 64.7053 19.7031 64.456 20.5464 64.456ZM20.4694 65.149C19.8901 65.149 19.4574 65.314 19.1714 65.644C18.8927 65.974 18.7534 66.4947 18.7534 67.206C18.7534 67.9687 18.8927 68.5223 19.1714 68.867C19.4501 69.2117 19.8754 69.384 20.4474 69.384C21.0341 69.384 21.4704 69.2153 21.7564 68.878C22.0424 68.5407 22.1854 68.0127 22.1854 67.294C22.1854 66.5533 22.0424 66.0107 21.7564 65.666C21.4777 65.3213 21.0487 65.149 20.4694 65.149ZM26.3389 67.085C27.1163 68.0383 27.9413 68.9477 28.8139 69.813L28.7919 69.934C28.5646 70.0073 28.3006 70.0623 27.9999 70.099L27.8679 70.044C26.9293 68.988 26.1189 68.02 25.4369 67.14V67.074L27.3289 65.006L27.6919 64.522L28.6709 64.511L26.3389 67.085ZM25.3489 68.284L25.3709 70H24.5569L24.5899 68.35L24.5569 64.522H25.3819L25.3489 68.284ZM31.9009 64.456C32.7002 64.456 33.3125 64.6907 33.7379 65.16C34.1705 65.6293 34.3869 66.293 34.3869 67.151C34.3869 68.0823 34.1559 68.8047 33.6939 69.318C33.2392 69.824 32.5865 70.077 31.7359 70.077C30.9439 70.077 30.3315 69.8387 29.8989 69.362C29.4662 68.878 29.2499 68.1923 29.2499 67.305C29.2499 66.3957 29.4809 65.6953 29.9429 65.204C30.4049 64.7053 31.0575 64.456 31.9009 64.456ZM31.8239 65.149C31.2445 65.149 30.8119 65.314 30.5259 65.644C30.2472 65.974 30.1079 66.4947 30.1079 67.206C30.1079 67.9687 30.2472 68.5223 30.5259 68.867C30.8045 69.2117 31.2299 69.384 31.8019 69.384C32.3885 69.384 32.8249 69.2153 33.1109 68.878C33.3969 68.5407 33.5399 68.0127 33.5399 67.294C33.5399 66.5533 33.3969 66.0107 33.1109 65.666C32.8322 65.3213 32.4032 65.149 31.8239 65.149ZM39.7724 62.74C39.6551 63.048 39.4571 63.2863 39.1784 63.455C38.8997 63.6163 38.5734 63.697 38.1994 63.697C37.8254 63.697 37.5064 63.6163 37.2424 63.455C36.9784 63.2937 36.7841 63.0553 36.6594 62.74L37.0994 62.432H37.2204C37.2937 62.6813 37.4111 62.8647 37.5724 62.982C37.7337 63.092 37.9501 63.147 38.2214 63.147C38.4927 63.147 38.7054 63.092 38.8594 62.982C39.0207 62.8647 39.1417 62.6813 39.2224 62.432H39.3324L39.7724 62.74ZM35.9554 68.35L35.9114 64.533L36.7694 64.478L36.7144 68.68H36.7914L39.6404 64.5H40.5424L40.4984 68.284L40.5314 70H39.6844L39.7174 68.35V65.82H39.6514L36.7804 70H35.9114L35.9554 68.35ZM44.512 64.467C45.1206 64.467 45.6486 64.5953 46.096 64.852L45.942 65.611L45.843 65.644C45.6596 65.49 45.447 65.369 45.205 65.281C44.963 65.193 44.7026 65.149 44.424 65.149C43.8813 65.149 43.467 65.325 43.181 65.677C42.895 66.0217 42.752 66.5387 42.752 67.228C42.752 67.9247 42.895 68.4563 43.181 68.823C43.467 69.1897 43.8813 69.373 44.424 69.373C44.688 69.373 44.952 69.329 45.216 69.241C45.4873 69.1457 45.7293 69.021 45.942 68.867L46.041 68.9L45.964 69.659C45.4653 69.9303 44.941 70.066 44.391 70.066C43.5843 70.066 42.9646 69.8277 42.532 69.351C42.0993 68.867 41.883 68.1813 41.883 67.294C41.883 66.392 42.1103 65.6953 42.565 65.204C43.027 64.7127 43.676 64.467 44.512 64.467ZM50.7452 64.588L50.6902 65.281L49.6672 65.204H49.1172L49.0842 68.284L49.1172 70H48.2922L48.3252 68.35L48.3032 65.204H47.7532L46.7082 65.281L46.6422 65.204L46.7082 64.522H50.7012L50.7452 64.588ZM54.3946 67.151C55.2086 67.3123 55.6156 67.745 55.6156 68.449C55.6156 68.977 55.4103 69.373 54.9996 69.637C54.5889 69.901 53.9876 70.033 53.1956 70.033C52.7189 70.033 52.2606 70.022 51.8206 70L51.8536 68.35L51.8206 64.522L53.5366 64.511C54.0866 64.511 54.5119 64.6283 54.8126 64.863C55.1206 65.0903 55.2746 65.4167 55.2746 65.842C55.2746 66.1573 55.1976 66.425 55.0436 66.645C54.8896 66.865 54.6733 67.0337 54.3946 67.151ZM54.4056 65.941C54.4056 65.6697 54.3176 65.4717 54.1416 65.347C53.9656 65.2223 53.6833 65.16 53.2946 65.16H52.6236L52.6126 66.854L53.5916 66.887C53.8629 66.8283 54.0646 66.7257 54.1966 66.579C54.3359 66.425 54.4056 66.2123 54.4056 65.941ZM53.2946 69.406C53.7713 69.406 54.1343 69.3253 54.3836 69.164C54.6403 68.9953 54.7686 68.7497 54.7686 68.427C54.7686 68.163 54.6806 67.9577 54.5046 67.811C54.3286 67.6643 54.0609 67.5653 53.7016 67.514L52.6126 67.525L52.6016 68.284L52.6236 69.373C52.8509 69.395 53.0746 69.406 53.2946 69.406ZM57.182 68.35L57.138 64.533L57.996 64.478L57.941 68.68H58.018L60.867 64.5H61.769L61.725 68.284L61.758 70H60.911L60.944 68.35V65.82H60.878L58.007 70H57.138L57.182 68.35ZM67.1531 69.296L67.2191 69.362L67.1421 70H63.8091L63.8421 68.35L63.8091 64.522H67.1641L67.2191 64.588L67.1531 65.226L65.7671 65.182L64.6231 65.193L64.6121 66.854L65.7011 66.865L66.6581 66.832L66.7131 66.909L66.6471 67.558L65.6351 67.525L64.6121 67.536L64.6011 68.284L64.6121 69.329L65.6901 69.34L67.1531 69.296Z" fill="#FDF9F5"/>
<path d="M37 59.5154C50.5395 59.5154 61.5154 48.5395 61.5154 35C61.5154 21.4605 50.5395 10.4846 37 10.4846C23.4605 10.4846 12.4846 21.4605 12.4846 35C12.4846 48.5395 23.4605 59.5154 37 59.5154Z" fill="#DFCB67"/>
<path d="M21.2039 25.557C22.5549 23.289 24.8467 21.9044 27.1175 22.057C28.9641 22.1802 30.3543 23.289 30.5223 23.4276C31.4533 24.1892 31.9461 25.0544 32.1869 25.557" fill="#DFCB67"/>
<path d="M21.2039 25.557C22.5549 23.289 24.8467 21.9044 27.1175 22.057C28.9641 22.1802 30.3543 23.289 30.5223 23.4276C31.4533 24.1892 31.9461 25.0544 32.1869 25.557" stroke="#1D1D1B" stroke-width="0.75" stroke-miterlimit="10" stroke-linecap="round"/>
<path d="M40.4707 25.557C41.8217 23.289 44.1135 21.9044 46.3843 22.057C48.2309 22.1802 49.6211 23.289 49.7891 23.4276C50.7201 24.1892 51.2129 25.0544 51.4537 25.557" fill="#DFCB67"/>
<path d="M40.4707 25.557C41.8217 23.289 44.1135 21.9044 46.3843 22.057C48.2309 22.1802 49.6211 23.289 49.7891 23.4276C50.7201 24.1892 51.2129 25.0544 51.4537 25.557" stroke="#1D1D1B" stroke-width="0.75" stroke-miterlimit="10" stroke-linecap="round"/>
<path d="M21 31C21.4216 31.6222 23.5395 34.6152 27.0108 34.9675C27.3849 35.0052 28.5059 35.0864 29.8778 34.6724C32.1168 33.9965 33.4659 32.4696 34 31.7891" fill="#DFCB67"/>
<path d="M21 31C21.4216 31.6222 23.5395 34.6152 27.0108 34.9675C27.3849 35.0052 28.5059 35.0864 29.8778 34.6724C32.1168 33.9965 33.4659 32.4696 34 31.7891" stroke="#1D1D1B" stroke-width="0.75" stroke-miterlimit="10" stroke-linecap="round"/>
<path d="M39 32C39.4216 32.6222 41.5395 35.6152 45.0108 35.9675C45.3849 36.0052 46.5059 36.0864 47.8778 35.6724C50.1168 34.9965 51.4659 33.4696 52 32.7891" fill="#DFCB67"/>
<path d="M39 32C39.4216 32.6222 41.5395 35.6152 45.0108 35.9675C45.3849 36.0052 46.5059 36.0864 47.8778 35.6724C50.1168 34.9965 51.4659 33.4696 52 32.7891" stroke="#1D1D1B" stroke-width="0.75" stroke-miterlimit="10" stroke-linecap="round"/>
<path d="M28.4011 45.0408C29.6359 46.0964 32.6067 48.335 36.3671 48.3602C37.3205 48.3672 38.1255 48.23 38.3831 48.1824C41.1845 47.6728 43.1179 46.2098 44.0923 45.3432" fill="#DFCB67"/>
<path d="M28.4011 45.0408C29.6359 46.0964 32.6067 48.335 36.3671 48.3602C37.3205 48.3672 38.1255 48.23 38.3831 48.1824C41.1845 47.6728 43.1179 46.2098 44.0923 45.3432" stroke="#1D1D1B" stroke-width="0.75" stroke-miterlimit="10" stroke-linecap="round"/>
<defs>
<linearGradient id="paint0_linear_190_42" x1="37" y1="3" x2="37" y2="82" gradientUnits="userSpaceOnUse">
<stop offset="0.274038" stop-color="#E4D8D0"/>
<stop offset="1" stop-color="#F39955"/>
</linearGradient>
</defs>
</svg>
