<svg width="74" height="81" viewBox="0 0 74 81" fill="none" xmlns="http://www.w3.org/2000/svg">
<rect y="2" width="74" height="79" rx="11" fill="url(#paint0_linear_190_44)"/>
<path d="M11.033 61.883C12.001 61.883 12.7417 62.18 13.255 62.774C13.7757 63.368 14.036 64.2223 14.036 65.337C14.036 66.5397 13.761 67.4673 13.211 68.12C12.661 68.7653 11.8764 69.088 10.857 69.088C9.90369 69.088 9.16669 68.78 8.64602 68.164C8.13269 67.548 7.87602 66.6717 7.87602 65.535C7.87602 64.3617 8.14736 63.4597 8.69002 62.829C9.24002 62.1983 10.021 61.883 11.033 61.883ZM10.978 62.598C9.51136 62.598 8.77802 63.544 8.77802 65.436C8.77802 66.4407 8.95402 67.185 9.30602 67.669C9.66536 68.153 10.2044 68.395 10.923 68.395C12.3897 68.395 13.123 67.4307 13.123 65.502C13.123 64.5193 12.9434 63.7897 12.584 63.313C12.232 62.8363 11.6967 62.598 10.978 62.598ZM18.3897 63.588L18.3347 64.281L17.3117 64.204H16.7617L16.7287 67.284L16.7617 69H15.9367L15.9697 67.35L15.9477 64.204H15.3977L14.3527 64.281L14.2867 64.204L14.3527 63.522H18.3457L18.3897 63.588ZM22.0391 66.151C22.8531 66.3123 23.2601 66.745 23.2601 67.449C23.2601 67.977 23.0548 68.373 22.6441 68.637C22.2335 68.901 21.6321 69.033 20.8401 69.033C20.3635 69.033 19.9051 69.022 19.4651 69L19.4981 67.35L19.4651 63.522L21.1811 63.511C21.7311 63.511 22.1565 63.6283 22.4571 63.863C22.7651 64.0903 22.9191 64.4167 22.9191 64.842C22.9191 65.1573 22.8421 65.425 22.6881 65.645C22.5341 65.865 22.3178 66.0337 22.0391 66.151ZM22.0501 64.941C22.0501 64.6697 21.9621 64.4717 21.7861 64.347C21.6101 64.2223 21.3278 64.16 20.9391 64.16H20.2681L20.2571 65.854L21.2361 65.887C21.5075 65.8283 21.7091 65.7257 21.8411 65.579C21.9805 65.425 22.0501 65.2123 22.0501 64.941ZM20.9391 68.406C21.4158 68.406 21.7788 68.3253 22.0281 68.164C22.2848 67.9953 22.4131 67.7497 22.4131 67.427C22.4131 67.163 22.3251 66.9577 22.1491 66.811C21.9731 66.6643 21.7055 66.5653 21.3461 66.514L20.2571 66.525L20.2461 67.284L20.2681 68.373C20.4955 68.395 20.7191 68.406 20.9391 68.406ZM26.6635 63.511C27.2428 63.511 27.6865 63.6503 27.9945 63.929C28.3098 64.2077 28.4675 64.611 28.4675 65.139C28.4675 65.755 28.2695 66.239 27.8735 66.591C27.4848 66.9357 26.9458 67.108 26.2565 67.108H25.5855V67.284L25.6075 69H24.7935L24.8265 67.35L24.7935 63.522L26.6635 63.511ZM26.5205 66.47C27.2465 66.3453 27.6095 65.9237 27.6095 65.205C27.6095 64.8603 27.5105 64.6037 27.3125 64.435C27.1218 64.2663 26.8322 64.1747 26.4435 64.16L25.6075 64.171L25.5965 66.448L26.5205 66.47ZM33.3658 69H32.5408L32.4088 68.406L32.1228 67.592L30.8138 67.581L29.6478 67.592L29.3508 68.362L29.1968 69H28.3828L30.4948 63.522H31.4408L33.3658 69ZM31.8918 66.921L30.9788 64.325H30.9128L29.9118 66.921L30.8798 66.932L31.8918 66.921ZM41.9491 68.351V70.166L41.3441 70.232L41.2341 69H34.6451L34.6781 67.35L34.6451 63.5H35.4921L35.4481 67.284L35.4701 68.296H37.5601L37.5821 67.35L37.5381 63.5H38.4071L38.3631 67.284L38.3851 68.296H40.4641L40.4861 67.35L40.4531 63.5H41.3001L41.2671 67.284L41.2781 68.351H41.9491ZM46.7322 68.296L46.7982 68.362L46.7212 69H43.3882L43.4212 67.35L43.3882 63.522H46.7432L46.7982 63.588L46.7322 64.226L45.3462 64.182L44.2022 64.193L44.1912 65.854L45.2802 65.865L46.2372 65.832L46.2922 65.909L46.2262 66.558L45.2142 66.525L44.1912 66.536L44.1802 67.284L44.1912 68.329L45.2692 68.34L46.7322 68.296ZM52.9911 67.284L53.0131 69H52.1991L52.2321 67.35L52.2211 66.602L49.2401 66.613L49.2291 67.284L49.2511 69H48.4371L48.4701 67.35L48.4371 63.522H49.2621L49.2401 65.876L50.7251 65.887L52.2211 65.876L52.1991 63.522H53.0241L52.9911 67.284ZM55.098 67.35L55.054 63.533L55.912 63.478L55.857 67.68H55.934L58.783 63.5H59.685L59.641 67.284L59.674 69H58.827L58.86 67.35V64.82H58.794L55.923 69H55.054L55.098 67.35ZM65.0691 68.296L65.1351 68.362L65.0581 69H61.7251L61.7581 67.35L61.7251 63.522H65.0801L65.1351 63.588L65.0691 64.226L63.6831 64.182L62.5391 64.193L62.5281 65.854L63.6171 65.865L64.5741 65.832L64.6291 65.909L64.5631 66.558L63.5511 66.525L62.5281 66.536L62.5171 67.284L62.5281 68.329L63.6061 68.34L65.0691 68.296Z" fill="#FDF9F5"/>
<path d="M37.9509 10.5461C51.4903 10.5461 62.4649 21.5221 62.4649 35.0615C62.4649 48.6009 51.4903 59.5769 37.9509 59.5769C24.4115 59.5769 13.4355 48.6009 13.4355 35.0615C13.4355 21.5221 24.4115 10.5461 37.9509 10.5461Z" fill="#DFCB67"/>
<path d="M20.843 24.2298C25.813 23.9904 29.0176 23.9932 30.7998 24.2298C31.2114 24.2844 32.3118 24.4538 33.0328 23.807C33.5676 23.3268 33.6768 22.5918 33.6964 22.1172" fill="#DFCB67"/>
<path d="M20.843 24.2298C25.813 23.9904 29.0176 23.9932 30.7998 24.2298C31.2114 24.2844 32.3118 24.4538 33.0328 23.807C33.5676 23.3268 33.6768 22.5918 33.6964 22.1172" stroke="#1D1D1B" stroke-width="0.75" stroke-miterlimit="10" stroke-linecap="round"/>
<path d="M34.1472 24.2662C34.829 23.4024 35.0236 22.1788 34.6442 21.1456C34.6652 21.2086 34.6862 21.2716 34.7058 21.3346" stroke="#1D1D1B" stroke-width="0.75" stroke-miterlimit="10" stroke-linecap="round"/>
<path d="M37.5562 24.297C37.6402 24.549 37.965 24.6092 38.231 24.6218C43.1296 24.864 48.0814 23.9582 52.5768 21.9982" stroke="#1D1D1B" stroke-width="0.75" stroke-miterlimit="10" stroke-linecap="round"/>
<path d="M27 37C30.866 37 34 34.5376 34 31.5C34 28.4624 30.866 26 27 26C23.134 26 20 28.4624 20 31.5C20 34.5376 23.134 37 27 37Z" fill="#FBF1D0" stroke="#FBF1D0" stroke-miterlimit="10"/>
<path d="M46.5 37C50.6421 37 54 34.5376 54 31.5C54 28.4624 50.6421 26 46.5 26C42.3579 26 39 28.4624 39 31.5C39 34.5376 42.3579 37 46.5 37Z" fill="#FBF1D0" stroke="#FBF1D0" stroke-miterlimit="10"/>
<path d="M26 37.5C25.9745 37.03 25.175 36.1612 24.8873 35.8437C23.2928 34.093 20.9863 33.0296 19.0082 32C18.9557 32.7121 19.161 33.4296 19.4623 34.0448C20.0047 35.1462 20.727 36.1256 21.6082 36.8377C22.4894 37.5498 23.5339 37.9839 24.5934 38C24.6758 38 24.7672 37.9964 24.8241 37.9247C24.8811 37.8529 26.0824 37.5054 26 37.5Z" fill="#DFCB67"/>
<path d="M26.2891 37.6152C24.0029 34.552 20.6401 32.2896 16.9175 31.3124" stroke="#1D1D1B" stroke-width="0.75" stroke-miterlimit="10" stroke-linecap="round"/>
<path d="M19.835 32.3708C19.793 31.836 19.7146 30.0188 20.843 28.5614C21.4002 27.8418 22.1394 27.356 22.2556 27.279C22.7596 26.9514 23.1964 26.7806 23.755 26.565C24.084 26.4376 24.8008 26.1366 25.617 25.9966C27.318 25.704 29.1002 25.8818 30.7004 26.5314C31.3024 26.7764 31.8834 27.09 32.372 27.5198C32.7094 27.8166 32.9978 28.1652 33.254 28.5334C33.6502 29.1018 34.255 29.9824 34.3362 31.2242C34.423 32.55 33.863 33.5636 33.5956 33.9822" stroke="#1D1D1B" stroke-width="0.75" stroke-miterlimit="10" stroke-linecap="round"/>
<path d="M38.9871 31.8893C38.9423 31.3517 38.8555 29.5261 40.0833 28.0603C40.6895 27.3365 41.4931 26.8479 41.6205 26.7723C42.1693 26.4433 42.6439 26.2711 43.2515 26.0541C43.6099 25.9267 44.3897 25.6243 45.2773 25.4829C47.1267 25.1889 49.0657 25.3667 50.8059 26.0205C51.4611 26.2669 52.0925 26.5819 52.6231 27.0145C52.9899 27.3127 53.3035 27.6627 53.5821 28.0337C54.0119 28.6049 54.6699 29.4897 54.7581 30.7371C54.8519 32.0699 54.2429 33.0877 53.9517 33.5077" stroke="#1D1D1B" stroke-width="0.75" stroke-miterlimit="10" stroke-linecap="round"/>
<path d="M28.0237 35.182C29.4588 35.182 30.6221 33.7654 30.6221 32.018C30.6221 30.2706 29.4588 28.854 28.0237 28.854C26.5886 28.854 25.4253 30.2706 25.4253 32.018C25.4253 33.7654 26.5886 35.182 28.0237 35.182Z" fill="#1D1D1B" stroke="#1D1D1B" stroke-miterlimit="10"/>
<path d="M45.0671 35.182C46.5022 35.182 47.6655 33.7654 47.6655 32.018C47.6655 30.2706 46.5022 28.854 45.0671 28.854C43.6321 28.854 42.4688 30.2706 42.4688 32.018C42.4688 33.7654 43.6321 35.182 45.0671 35.182Z" fill="#1D1D1B" stroke="#1D1D1B" stroke-miterlimit="10"/>
<path d="M30.629 41.0914C29.0666 41.0984 28.7138 41.4764 28.585 41.7228C28.2868 42.2926 28.669 43.1396 29.096 43.6408C30.3728 45.1346 32.925 44.5564 35.8762 44.3506C42.3302 43.8998 46.1088 45.5476 46.2236 45.0478C46.365 44.4318 40.4584 42.6692 35.6606 41.7242C34.4356 41.482 33.1994 41.2678 31.9534 41.1572C31.7112 41.1362 30.9048 40.9556 30.7004 41.1012C30.2874 41.398 30.5338 42.875 30.6038 43.3272" fill="#FBF1D0"/>
<path d="M30.629 41.0914C29.0666 41.0984 28.7138 41.4764 28.585 41.7228C28.2868 42.2926 28.669 43.1396 29.096 43.6408C30.3728 45.1346 32.925 44.5564 35.8762 44.3506C42.3302 43.8998 46.1088 45.5476 46.2236 45.0478C46.365 44.4318 40.4584 42.6692 35.6606 41.7242C34.4356 41.482 33.1994 41.2678 31.9534 41.1572C31.7112 41.1362 30.9048 40.9556 30.7004 41.1012C30.2874 41.398 30.5338 42.875 30.6038 43.3272" stroke="#1D1D1B" stroke-width="0.75" stroke-miterlimit="10" stroke-linecap="round"/>
<path d="M32.4938 41.2412C32.5232 41.7956 32.5036 42.3514 32.4392 42.903" stroke="#1D1D1B" stroke-width="0.75" stroke-miterlimit="10" stroke-linecap="round"/>
<path d="M31.6738 37.6971C32.1624 37.4101 32.658 37.1189 33.2054 36.9761C33.7528 36.8333 34.3701 36.8543 34.8447 37.1609C34.9889 37.2547 35.1205 37.3723 35.2829 37.4297C35.6707 37.5641 36.0711 37.3107 36.4659 37.1973C37.2863 36.9607 38.1389 37.3415 38.9383 37.6425C39.7378 37.9435 40.7079 38.1451 41.3869 37.6271C40.7583 36.6723 39.4801 36.4427 38.3447 36.2985C37.8505 36.2355 37.355 36.1725 36.8608 36.1109C36.242 36.0325 35.6147 35.9541 34.9959 36.0325C34.6165 36.0801 34.2484 36.1865 33.8816 36.2915C33.2096 36.4847 32.5389 36.6779 31.8669 36.8711C31.6471 36.9341 31.4203 37.0013 31.2425 37.1455C31.0647 37.2897 30.9485 37.5361 31.0227 37.7517C31.1515 38.1297 31.6877 38.1325 32.0671 38.0051C32.4465 37.8777 32.8903 37.6999 33.2123 37.9351C33.4517 38.1101 33.5189 38.4545 33.7583 38.6281C34.0229 38.8185 34.3968 38.7303 34.6796 38.5707C34.9624 38.4111 35.2157 38.1857 35.5293 38.0975C36.1691 37.9169 36.8272 38.3593 37.4908 38.3327C37.9458 38.3145 38.3826 38.0737 38.8362 38.1255C39.1078 38.1563 39.3541 38.2893 39.6075 38.3943C40.4727 38.7555 41.4667 38.7961 42.3571 38.5077C42.4397 38.2179 42.1164 37.9841 41.8392 37.8651C41.0663 37.5361 40.2473 37.3149 39.4143 37.2113" fill="#A4CB6E"/>
<path d="M32.1924 38.3451C32.772 38.0049 33.3922 37.6213 34.0824 37.5891C34.3778 37.5751 34.6788 37.6171 34.9392 37.7655C35.2626 37.9489 35.5062 38.1785 35.9052 38.1631C36.2594 38.1491 36.5688 37.9769 36.902 37.8803C37.2184 37.7893 37.5502 37.8089 37.8694 37.8803C38.5386 38.0287 39.149 38.3577 39.8126 38.5229C40.5098 38.6951 41.3022 38.7203 41.907 38.2751C42.0512 38.1687 42.1478 37.9657 42.033 37.7963C41.1384 36.4719 39.3828 36.3823 37.9464 36.2003C37.007 36.0813 36.0578 35.9077 35.1128 36.0589C34.6424 36.1345 34.186 36.2843 33.7282 36.4145C33.2704 36.5447 32.7874 36.6847 32.3184 36.8205C31.897 36.9423 31.4434 37.0529 31.1732 37.4295C30.9338 37.7627 30.9282 38.2485 31.2474 38.5341C31.5218 38.7791 31.9068 38.8057 32.254 38.7497C32.5662 38.6993 32.9064 38.4669 33.227 38.5173C33.3614 38.5383 33.4244 38.6349 33.4902 38.7441C33.5868 38.9023 33.6778 39.0703 33.8192 39.1935C34.172 39.5029 34.648 39.4721 35.0526 39.2929C35.397 39.1403 35.6924 38.8071 36.0774 38.7581C36.4624 38.7091 36.8222 38.8715 37.175 38.9513C37.3892 39.0003 37.6146 39.0395 37.8358 39.0297C38.0864 39.0199 38.33 38.9555 38.5736 38.8939C38.7822 38.8421 38.9964 38.7861 39.212 38.8309C39.4486 38.8799 39.6656 39.0003 39.8868 39.0899C40.8038 39.4609 41.8538 39.4889 42.7946 39.1921C42.9066 39.1571 43.013 39.0675 43.0396 38.9471C43.1978 38.2023 42.3802 37.8985 41.8272 37.6969C41.158 37.4533 40.4664 37.2993 39.7594 37.2083C39.5718 37.1845 39.4094 37.3861 39.4094 37.5583C39.4094 37.7669 39.5704 37.8845 39.7594 37.9083C40.2942 37.9769 40.8234 38.1001 41.3358 38.2667C41.5766 38.3451 41.823 38.4263 42.0526 38.5341C42.131 38.5705 42.2122 38.6111 42.278 38.6657C42.3032 38.6853 42.3242 38.7161 42.348 38.7357C42.418 38.7931 42.3592 38.7819 42.3648 38.7609L42.6098 38.5159C41.8664 38.7497 41.074 38.7525 40.332 38.5089C39.9442 38.3815 39.5942 38.1631 39.1826 38.1211C38.771 38.0791 38.3986 38.2345 38.0108 38.3073C37.6552 38.3745 37.3108 38.2611 36.9692 38.1729C36.5996 38.0763 36.2174 38.0049 35.838 38.0917C35.4586 38.1785 35.1772 38.4333 34.8496 38.6139C34.7222 38.6839 34.5472 38.7609 34.3974 38.7287C34.2826 38.7035 34.2266 38.6069 34.1692 38.5131C33.983 38.2093 33.7884 37.9209 33.4146 37.8425C33.0408 37.7641 32.6754 37.8999 32.3198 38.0147C32.1952 38.0553 32.0874 38.0777 31.967 38.0777C31.8662 38.0777 31.7598 38.0511 31.7304 38.0273C31.7192 38.0175 31.6912 38.0063 31.6926 37.9559C31.6926 37.9139 31.7248 37.8593 31.7472 37.8285C31.8368 37.7053 32.0006 37.6493 32.1392 37.6059C32.975 37.3385 33.829 37.1047 34.676 36.8765C35.0946 36.7631 35.5048 36.6931 35.9388 36.6973C36.3728 36.7015 36.7844 36.7547 37.2044 36.8079C38.0346 36.9129 38.883 36.9801 39.6992 37.1677C40.3516 37.3175 41.0376 37.5723 41.4282 38.1505L41.5542 37.6717C41.0712 38.0273 40.472 37.9755 39.9204 37.8285C39.247 37.6493 38.624 37.3105 37.9352 37.1817C37.5698 37.1131 37.203 37.0977 36.8376 37.1775C36.5226 37.2447 36.2286 37.4407 35.9066 37.4659C35.7666 37.4771 35.6672 37.4169 35.5552 37.3399C35.4124 37.2419 35.278 37.1481 35.1184 37.0781C34.8034 36.9395 34.4576 36.8793 34.1132 36.8919C33.2788 36.9227 32.5438 37.3315 31.8424 37.7445C31.4546 37.9727 31.806 38.5775 32.1952 38.3493L32.1924 38.3451Z" fill="#A4CB6E"/>
<path d="M32.656 37.0271C33.1194 37.0873 33.5912 37.0845 34.0546 37.0201L32.656 37.0271Z" fill="#A4CB6E"/>
<path d="M32.6561 37.3772C33.1545 37.4416 33.6515 37.4262 34.1485 37.3576C34.2283 37.3464 34.3193 37.2638 34.3571 37.1966C34.4005 37.121 34.4201 37.0104 34.3921 36.9264C34.3641 36.8424 34.3123 36.7598 34.2311 36.7178C34.1415 36.6702 34.0603 36.6688 33.9609 36.6828C34.0561 36.6702 33.9539 36.6828 33.9329 36.6856C33.9063 36.6884 33.8797 36.6912 33.8531 36.694C33.7943 36.6996 33.7369 36.7052 33.6781 36.7094C33.5661 36.7164 33.4541 36.7206 33.3407 36.722C33.1111 36.722 32.8815 36.708 32.6547 36.6786C32.5721 36.6674 32.4629 36.7248 32.4069 36.7808C32.3467 36.841 32.3005 36.9418 32.3047 37.0286C32.3089 37.1154 32.3383 37.2134 32.4069 37.2764C32.4797 37.3436 32.5567 37.366 32.6547 37.3786L32.6561 37.3772Z" fill="#A4CB6E"/>
<defs>
<linearGradient id="paint0_linear_190_44" x1="37" y1="2" x2="37" y2="81" gradientUnits="userSpaceOnUse">
<stop offset="0.168269" stop-color="#0B6E20"/>
<stop offset="1" stop-color="#F39955"/>
</linearGradient>
</defs>
</svg>
