<svg width="74" height="79" viewBox="0 0 74 79" fill="none" xmlns="http://www.w3.org/2000/svg">
<rect width="74" height="79" rx="11" fill="url(#paint0_linear_191_50)"/>
<path d="M28.4678 61.894C29.2085 61.894 29.8501 62.07 30.3928 62.422L30.2168 63.225L30.1178 63.247C29.6265 62.8363 29.0618 62.631 28.4238 62.631C27.7271 62.631 27.1918 62.873 26.8178 63.357C26.4438 63.8337 26.2568 64.534 26.2568 65.458C26.2568 66.3893 26.4438 67.1007 26.8178 67.592C27.1918 68.0833 27.7198 68.329 28.4018 68.329C28.7245 68.329 29.0435 68.2703 29.3588 68.153C29.6815 68.0357 29.9748 67.8707 30.2388 67.658L30.3488 67.713L30.2718 68.549C29.6338 68.901 28.9848 69.077 28.3248 69.077C27.3788 69.077 26.6455 68.7727 26.1248 68.164C25.6041 67.548 25.3438 66.6717 25.3438 65.535C25.3438 64.369 25.6151 63.4707 26.1578 62.84C26.7005 62.2093 27.4705 61.894 28.4678 61.894ZM35.0626 63.588L35.0076 64.281L33.9846 64.204H33.4346L33.4016 67.284L33.4346 69H32.6096L32.6426 67.35L32.6206 64.204H32.0706L31.0256 64.281L30.9596 64.204L31.0256 63.522H35.0186L35.0626 63.588ZM38.019 63.511C38.5983 63.511 39.042 63.6503 39.35 63.929C39.6653 64.2077 39.823 64.611 39.823 65.139C39.823 65.755 39.625 66.239 39.229 66.591C38.8403 66.9357 38.3013 67.108 37.612 67.108H36.941V67.284L36.963 69H36.149L36.182 67.35L36.149 63.522L38.019 63.511ZM37.876 66.47C38.602 66.3453 38.965 65.9237 38.965 65.205C38.965 64.8603 38.866 64.6037 38.668 64.435C38.4773 64.2663 38.1876 64.1747 37.799 64.16L36.963 64.171L36.952 66.448L37.876 66.47ZM44.7212 69H43.8962L43.7642 68.406L43.4782 67.592L42.1692 67.581L41.0032 67.592L40.7062 68.362L40.5522 69H39.7382L41.8502 63.522H42.7962L44.7212 69ZM43.2472 66.921L42.3342 64.325H42.2682L41.2672 66.921L42.2352 66.932L43.2472 66.921ZM48.0502 66.14L50.0192 69H49.0292L48.7762 68.527L47.5002 66.778L46.1692 68.571L45.9272 69H45.0582L47.0162 66.25L45.1132 63.522H46.1362L46.3672 63.984L47.5662 65.623L48.7652 63.973L48.9962 63.522H49.8872L48.0502 66.14Z" fill="#FDF9F5"/>
<path d="M62.4649 35.0615C62.4649 48.6009 51.4903 59.5769 37.9509 59.5769C24.4115 59.5769 13.4355 48.6009 13.4355 35.0615C13.4355 21.5221 24.4115 10.5461 37.9509 10.5461C51.4903 10.5461 62.4649 21.5221 62.4649 35.0615Z" fill="url(#paint1_linear_191_50)"/>
<path d="M19.8169 25.9238C20.9663 23.4766 23.3799 21.882 26.0329 21.8204C29.8171 21.7336 31.9367 24.8206 32.0669 25.018" stroke="#1D1D1B" stroke-width="0.75" stroke-miterlimit="10" stroke-linecap="round"/>
<path d="M40.324 25.6228C41.4734 23.1756 43.887 21.581 46.54 21.5194C50.3242 21.4326 52.4438 24.5196 52.574 24.717" stroke="#1D1D1B" stroke-width="0.75" stroke-miterlimit="10" stroke-linecap="round"/>
<path d="M26.6657 37.9918C30.0817 37.9918 32.8509 35.2903 32.8509 31.9578C32.8509 28.6253 30.0817 25.9238 26.6657 25.9238C23.2497 25.9238 20.4805 28.6253 20.4805 31.9578C20.4805 35.2903 23.2497 37.9918 26.6657 37.9918Z" fill="#FBF1D0"/>
<path d="M46.4491 37.9918C49.8651 37.9918 52.6343 35.2903 52.6343 31.9578C52.6343 28.6253 49.8651 25.9238 46.4491 25.9238C43.0331 25.9238 40.2639 28.6253 40.2639 31.9578C40.2639 35.2903 43.0331 37.9918 46.4491 37.9918Z" fill="#FBF1D0"/>
<path d="M27.3907 35.518C28.9734 35.518 30.2565 33.924 30.2565 31.9578C30.2565 29.9915 28.9734 28.3976 27.3907 28.3976C25.808 28.3976 24.5249 29.9915 24.5249 31.9578C24.5249 33.924 25.808 35.518 27.3907 35.518Z" fill="#1D1D1B" stroke="#1D1D1B" stroke-miterlimit="10"/>
<path d="M45.6749 35.518C47.2576 35.518 48.5407 33.924 48.5407 31.9578C48.5407 29.9915 47.2576 28.3976 45.6749 28.3976C44.0921 28.3976 42.8091 29.9915 42.8091 31.9578C42.8091 33.924 44.0921 35.518 45.6749 35.518Z" fill="#1D1D1B" stroke="#1D1D1B" stroke-miterlimit="10"/>
<path d="M33.3057 44.1112C34.5223 44.1546 35.7277 44.4081 36.9443 44.3773C38.2085 44.3465 39.4685 44.009 40.7243 44.156C41.6791 44.268 42.5779 44.6559 43.4599 45.0381C44.1893 45.3545 44.9439 45.6904 45.4577 46.2952C46.0037 46.9392 46.2039 47.7989 46.3859 48.6234C46.4489 48.9118 46.5133 49.2156 46.4237 49.497C46.3327 49.7826 46.0975 49.9983 45.8497 50.1691C44.6639 50.9881 43.0791 51.0301 41.6917 50.6409C40.3043 50.2517 39.0611 49.4775 37.8207 48.7439C36.5803 48.0103 35.2909 47.2962 33.8727 47.0428C32.6939 46.8328 31.4801 46.9519 30.2943 46.7965C30.1459 46.7769 29.9905 46.7503 29.8743 46.6565C29.7399 46.5487 29.6811 46.3708 29.6573 46.1986C29.3703 44.1784 31.9575 44.0637 33.3043 44.1099L33.3057 44.1112Z" fill="#FBF1D0" stroke="#1D1D1B" stroke-width="0.75" stroke-miterlimit="10"/>
<path d="M40.5088 48.1866C40.4542 48.811 40.3996 49.4354 40.345 50.0584" stroke="#1D1D1B" stroke-width="0.75" stroke-miterlimit="10" stroke-linecap="round"/>
<path d="M43.5327 47.6434V50.9628" stroke="#1D1D1B" stroke-width="0.75" stroke-miterlimit="10" stroke-linecap="round"/>
<path d="M54.7203 27.9104C54.7875 31.0898 54.8827 34.2692 55.0087 37.4472C55.0451 38.3516 55.0829 39.256 55.1235 40.1604C55.1431 40.6084 55.8431 40.6112 55.8235 40.1604C55.6807 36.9838 55.5687 33.8044 55.4847 30.625C55.4609 29.7206 55.4399 28.8148 55.4203 27.909C55.4105 27.4596 54.7105 27.4582 54.7203 27.909V27.9104Z" fill="#7D69AC"/>
<path d="M56.8763 31.0492C57.0541 33.4026 57.0877 35.7672 56.9729 38.1234C56.9393 38.8024 56.8931 39.48 56.8371 40.1562C56.8217 40.3452 57.0093 40.5062 57.1871 40.5062C57.3901 40.5062 57.5217 40.3452 57.5371 40.1562C57.7359 37.8042 57.7905 35.441 57.6953 33.082C57.6687 32.403 57.6281 31.7254 57.5763 31.0478C57.5623 30.8588 57.4251 30.6978 57.2263 30.6978C57.0485 30.6978 56.8623 30.8588 56.8763 31.0478V31.0492Z" fill="#7D69AC"/>
<path d="M59.4074 32.8593C59.3752 35.2939 59.329 37.7271 59.2702 40.1617C59.259 40.6125 59.959 40.6125 59.9702 40.1617C60.029 37.7285 60.0752 35.2939 60.1074 32.8593C60.113 32.4085 59.413 32.4085 59.4074 32.8593Z" fill="#7D69AC"/>
<path d="M21.0214 32.6359C20.9013 31.2159 21.296 29.7613 21.9601 28.7C22.6242 27.6387 23.5338 26.9434 24.485 26.5481C25.4363 26.1529 26.4319 26.0413 27.4211 26.0065C27.7766 25.9937 28.1346 25.9919 28.485 26.0779C28.8569 26.1694 29.2137 26.3597 29.5615 26.5719C30.4875 27.1391 31.3794 27.8949 32.041 28.9891C32.7026 30.0851 33.1112 31.5581 32.9733 33" stroke="#1D1D1B" stroke-width="0.75" stroke-miterlimit="10" stroke-linecap="round"/>
<path d="M40.0232 32.6359C39.893 31.2159 40.3206 29.7613 41.0401 28.7C41.7596 27.6387 42.7449 26.9434 43.7755 26.5481C44.806 26.1529 45.8846 26.0413 46.9562 26.0065C47.3413 25.9937 47.7292 25.9919 48.1088 26.0779C48.5117 26.1694 48.8981 26.3597 49.275 26.5719C50.2782 27.1391 51.2443 27.8949 51.9611 28.9891C52.6778 30.0851 53.1204 31.5581 52.9711 33" stroke="#1D1D1B" stroke-width="0.75" stroke-miterlimit="10" stroke-linecap="round"/>
<defs>
<linearGradient id="paint0_linear_191_50" x1="37" y1="0" x2="37" y2="79" gradientUnits="userSpaceOnUse">
<stop offset="0.221154" stop-color="#7044CF"/>
<stop offset="1" stop-color="#F39955"/>
</linearGradient>
<linearGradient id="paint1_linear_191_50" x1="37.9495" y1="35.0615" x2="37.9495" y2="-13.9693" gradientUnits="userSpaceOnUse">
<stop stop-color="#DFCB67"/>
<stop offset="0.2" stop-color="#C5C4AF"/>
</linearGradient>
</defs>
</svg>
