<svg width="74" height="81" viewBox="0 0 74 81" fill="none" xmlns="http://www.w3.org/2000/svg">
<rect y="2" width="74" height="79" rx="11" fill="url(#paint0_linear_191_56)"/>
<path d="M9.24293 65.326C10.2403 65.524 10.7389 66.0923 10.7389 67.031C10.7389 67.6983 10.4969 68.2007 10.0129 68.538C9.52893 68.8753 8.8066 69.044 7.84593 69.044C7.2006 69.044 6.6836 69.0293 6.29493 69H6.28393L6.33893 66.877L6.28393 61.949L8.24193 61.938C8.90193 61.938 9.40793 62.0847 9.75993 62.378C10.1193 62.6713 10.2989 63.0967 10.2989 63.654C10.2989 64.05 10.2073 64.391 10.0239 64.677C9.8406 64.963 9.58027 65.1793 9.24293 65.326ZM9.39693 63.753C9.39693 63.3717 9.2906 63.0967 9.07793 62.928C8.8726 62.752 8.53527 62.664 8.06593 62.664H7.17493L7.15293 65.029L8.36293 65.062C9.05227 64.9007 9.39693 64.4643 9.39693 63.753ZM7.97793 68.307C8.57927 68.307 9.04127 68.1933 9.36393 67.966C9.6866 67.7387 9.84793 67.4123 9.84793 66.987C9.84793 66.2683 9.39693 65.8577 8.49493 65.755L7.14193 65.766L7.13093 66.8L7.16393 68.274C7.44993 68.296 7.72127 68.307 7.97793 68.307ZM16.8927 68.307V70.364L16.2767 70.43L16.1557 69H12.1847L12.0637 70.364L11.4257 70.43V68.307H11.9207C12.1627 68.175 12.357 67.9733 12.5037 67.702C12.6577 67.4307 12.7787 67.0457 12.8667 66.547C12.962 66.041 13.05 65.3443 13.1307 64.457L13.2297 63.544L13.2187 63.522H16.1337L16.0897 67.284L16.1117 68.307H16.8927ZM15.3307 67.35L15.2977 64.149H13.9007L13.8567 64.6C13.754 65.7147 13.6257 66.5507 13.4717 67.108C13.3177 67.658 13.0977 68.0577 12.8117 68.307H15.3087L15.3307 67.35ZM20.3486 63.456C21.148 63.456 21.7603 63.6907 22.1856 64.16C22.6183 64.6293 22.8346 65.293 22.8346 66.151C22.8346 67.0823 22.6036 67.8047 22.1416 68.318C21.687 68.824 21.0343 69.077 20.1836 69.077C19.3916 69.077 18.7793 68.8387 18.3466 68.362C17.914 67.878 17.6976 67.1923 17.6976 66.305C17.6976 65.3957 17.9286 64.6953 18.3906 64.204C18.8526 63.7053 19.5053 63.456 20.3486 63.456ZM20.2716 64.149C19.6923 64.149 19.2596 64.314 18.9736 64.644C18.695 64.974 18.5556 65.4947 18.5556 66.206C18.5556 66.9687 18.695 67.5223 18.9736 67.867C19.2523 68.2117 19.6776 68.384 20.2496 68.384C20.8363 68.384 21.2726 68.2153 21.5586 67.878C21.8446 67.5407 21.9876 67.0127 21.9876 66.294C21.9876 65.5533 21.8446 65.0107 21.5586 64.666C21.28 64.3213 20.851 64.149 20.2716 64.149ZM26.3671 66.14L28.3361 69H27.3461L27.0931 68.527L25.8171 66.778L24.4861 68.571L24.2441 69H23.3751L25.3331 66.25L23.4301 63.522H24.4531L24.6841 63.984L25.8831 65.623L27.0821 63.973L27.3131 63.522H28.2041L26.3671 66.14ZM34.1771 67.284L34.1991 69H33.3851L33.4181 67.35L33.4071 66.602L30.4261 66.613L30.4151 67.284L30.4371 69H29.6231L29.6561 67.35L29.6231 63.522H30.4481L30.4261 65.876L31.9111 65.887L33.4071 65.876L33.3851 63.522H34.2101L34.1771 67.284ZM38.1914 63.456C38.9907 63.456 39.6031 63.6907 40.0284 64.16C40.4611 64.6293 40.6774 65.293 40.6774 66.151C40.6774 67.0823 40.4464 67.8047 39.9844 68.318C39.5297 68.824 38.8771 69.077 38.0264 69.077C37.2344 69.077 36.6221 68.8387 36.1894 68.362C35.7567 67.878 35.5404 67.1923 35.5404 66.305C35.5404 65.3957 35.7714 64.6953 36.2334 64.204C36.6954 63.7053 37.3481 63.456 38.1914 63.456ZM38.1144 64.149C37.5351 64.149 37.1024 64.314 36.8164 64.644C36.5377 64.974 36.3984 65.4947 36.3984 66.206C36.3984 66.9687 36.5377 67.5223 36.8164 67.867C37.0951 68.2117 37.5204 68.384 38.0924 68.384C38.6791 68.384 39.1154 68.2153 39.4014 67.878C39.6874 67.5407 39.8304 67.0127 39.8304 66.294C39.8304 65.5533 39.6874 65.0107 39.4014 64.666C39.1227 64.3213 38.6937 64.149 38.1144 64.149ZM44.7759 66.151C45.5899 66.3123 45.9969 66.745 45.9969 67.449C45.9969 67.977 45.7916 68.373 45.3809 68.637C44.9703 68.901 44.3689 69.033 43.5769 69.033C43.1003 69.033 42.6419 69.022 42.2019 69L42.2349 67.35L42.2019 63.522L43.9179 63.511C44.4679 63.511 44.8933 63.6283 45.1939 63.863C45.5019 64.0903 45.6559 64.4167 45.6559 64.842C45.6559 65.1573 45.5789 65.425 45.4249 65.645C45.2709 65.865 45.0546 66.0337 44.7759 66.151ZM44.7869 64.941C44.7869 64.6697 44.6989 64.4717 44.5229 64.347C44.3469 64.2223 44.0646 64.16 43.6759 64.16H43.0049L42.9939 65.854L43.9729 65.887C44.2443 65.8283 44.4459 65.7257 44.5779 65.579C44.7173 65.425 44.7869 65.2123 44.7869 64.941ZM43.6759 68.406C44.1526 68.406 44.5156 68.3253 44.7649 68.164C45.0216 67.9953 45.1499 67.7497 45.1499 67.427C45.1499 67.163 45.0619 66.9577 44.8859 66.811C44.7099 66.6643 44.4423 66.5653 44.0829 66.514L42.9939 66.525L42.9829 67.284L43.0049 68.373C43.2323 68.395 43.4559 68.406 43.6759 68.406ZM50.8743 68.296L50.9403 68.362L50.8633 69H47.5303L47.5633 67.35L47.5303 63.522H50.8853L50.9403 63.588L50.8743 64.226L49.4883 64.182L48.3443 64.193L48.3333 65.854L49.4223 65.865L50.3793 65.832L50.4343 65.909L50.3683 66.558L49.3563 66.525L48.3333 66.536L48.3223 67.284L48.3333 68.329L49.4113 68.34L50.8743 68.296ZM57.1332 67.284L57.1552 69H56.3412L56.3742 67.35L56.3632 66.602L53.3822 66.613L53.3712 67.284L53.3932 69H52.5792L52.6122 67.35L52.5792 63.522H53.4042L53.3822 65.876L54.8672 65.887L56.3632 65.876L56.3412 63.522H57.1662L57.1332 67.284ZM59.2401 67.35L59.1961 63.533L60.0541 63.478L59.9991 67.68H60.0761L62.9251 63.5H63.8271L63.7831 67.284L63.8161 69H62.9691L63.0021 67.35V64.82H62.9361L60.0651 69H59.1961L59.2401 67.35ZM69.2112 68.296L69.2772 68.362L69.2002 69H65.8672L65.9002 67.35L65.8672 63.522H69.2222L69.2772 63.588L69.2112 64.226L67.8252 64.182L66.6812 64.193L66.6702 65.854L67.7592 65.865L68.7162 65.832L68.7712 65.909L68.7052 66.558L67.6932 66.525L66.6702 66.536L66.6592 67.284L66.6702 68.329L67.7482 68.34L69.2112 68.296Z" fill="#FDF9F5"/>
<path d="M37.9509 10.5461C51.4903 10.5461 62.4649 21.5221 62.4649 35.0615C62.4649 48.6009 51.4903 59.5769 37.9509 59.5769C24.4115 59.5769 13.4355 48.6009 13.4355 35.0615C13.4355 21.5221 24.4115 10.5461 37.9509 10.5461Z" fill="#DFCB67"/>
<path d="M21.2251 26.2122C22.0371 23.9708 24.1133 22.4868 26.3645 22.5064C28.2769 22.5232 30.0549 23.6208 31.0209 25.3568" fill="#DFCB67"/>
<path d="M20.8725 26.0845C20.802 26.2792 20.9026 26.4943 21.0974 26.5648C21.2921 26.6353 21.5071 26.5347 21.5777 26.3399L21.2251 26.2122L20.8725 26.0845ZM26.3645 22.5064L26.3678 22.1314L26.3678 22.1314L26.3645 22.5064ZM21.2251 26.2122L21.5777 26.3399C22.3389 24.2386 24.2789 22.8633 26.3612 22.8814L26.3645 22.5064L26.3678 22.1314C23.9477 22.1104 21.7353 23.703 20.8725 26.0845L21.2251 26.2122ZM26.3645 22.5064L26.3612 22.8814C28.1304 22.8969 29.7887 23.9137 30.6932 25.5392L31.0209 25.3568L31.3486 25.1745C30.3211 23.328 28.4234 22.1495 26.3678 22.1314L26.3645 22.5064Z" fill="#1D1D1B"/>
<path d="M41.9731 26.0806C42.8971 23.8854 45.0363 22.512 47.2665 22.6492C49.1621 22.7654 50.8673 23.9554 51.7325 25.739" fill="#DFCB67"/>
<path d="M41.9731 26.0806C42.8971 23.8854 45.0363 22.512 47.2665 22.6492C49.1621 22.7654 50.8673 23.9554 51.7325 25.739" stroke="#1D1D1B" stroke-width="0.75" stroke-miterlimit="10" stroke-linecap="round"/>
<path d="M26.9077 40.4026C30.657 40.4026 33.6963 37.7412 33.6963 34.4582C33.6963 31.1752 30.657 28.5138 26.9077 28.5138C23.1585 28.5138 20.1191 31.1752 20.1191 34.4582C20.1191 37.7412 23.1585 40.4026 26.9077 40.4026Z" fill="#DFCB67"/>
<path d="M47.5425 40.4026C51.2917 40.4026 54.3311 37.7412 54.3311 34.4582C54.3311 31.1752 51.2917 28.5138 47.5425 28.5138C43.7933 28.5138 40.7539 31.1752 40.7539 34.4582C40.7539 37.7412 43.7933 40.4026 47.5425 40.4026Z" fill="#FBF1D0"/>
<path d="M26.5999 40.4026C30.3491 40.4026 33.3885 37.7412 33.3885 34.4582C33.3885 31.1752 30.3491 28.5138 26.5999 28.5138C22.8506 28.5138 19.8113 31.1752 19.8113 34.4582C19.8113 37.7412 22.8506 40.4026 26.5999 40.4026Z" fill="#FBF1D0"/>
<path d="M32.3076 46.1958C32.3272 46.3022 32.7906 48.601 34.661 49.273C36.46 49.9198 38.8624 48.8138 39.7906 46.4366" fill="#DFCB67"/>
<path d="M32.3076 46.1958C32.3272 46.3022 32.7906 48.601 34.661 49.273C36.46 49.9198 38.8624 48.8138 39.7906 46.4366" stroke="#1D1D1B" stroke-width="0.75" stroke-miterlimit="10" stroke-linecap="round"/>
<path d="M29.3522 36.057C31.1352 36.057 32.5806 34.544 32.5806 32.6775C32.5806 30.8109 31.1352 29.2979 29.3522 29.2979C27.5692 29.2979 26.1238 30.8109 26.1238 32.6775C26.1238 34.544 27.5692 36.057 29.3522 36.057Z" fill="#1D1D1B" stroke="#1D1D1B" stroke-miterlimit="10"/>
<path d="M50.0819 36.057C51.8649 36.057 53.3103 34.544 53.3103 32.6775C53.3103 30.8109 51.8649 29.2979 50.0819 29.2979C48.2989 29.2979 46.8535 30.8109 46.8535 32.6775C46.8535 34.544 48.2989 36.057 50.0819 36.057Z" fill="#1D1D1B" stroke="#1D1D1B" stroke-miterlimit="10"/>
<path d="M19.7369 35.1135C19.6277 33.5427 20.2255 31.9523 21.2839 30.7861C22.3423 29.6199 23.8375 28.8807 25.3957 28.6637C25.8535 28.6007 26.3169 28.5797 26.7803 28.5727C27.3725 28.5629 27.9717 28.5769 28.5471 28.7155C29.1225 28.8541 29.6811 29.1299 30.0717 29.5751" stroke="#1D1D1B" stroke-width="0.75" stroke-miterlimit="10" stroke-linecap="round"/>
<path d="M40.7243 35.2338C40.6529 34.0256 40.9567 32.8006 41.5839 31.7576C42.2111 30.7146 43.1617 29.8592 44.2775 29.33C44.7017 29.1284 45.1497 28.9744 45.6033 28.8498C46.6015 28.574 47.6501 28.4368 48.6791 28.5614C49.7081 28.686 50.7176 29.0864 51.468 29.7836" stroke="#1D1D1B" stroke-width="0.75" stroke-miterlimit="10" stroke-linecap="round"/>
<defs>
<linearGradient id="paint0_linear_191_56" x1="37" y1="2" x2="37" y2="81" gradientUnits="userSpaceOnUse">
<stop offset="0.153846" stop-color="#F9F2B0"/>
<stop offset="1" stop-color="#F39955"/>
</linearGradient>
</defs>
</svg>
