<svg width="74" height="82" viewBox="0 0 74 82" fill="none" xmlns="http://www.w3.org/2000/svg">
<rect y="3" width="74" height="79" rx="11" fill="url(#paint0_linear_191_53)"/>
<path d="M8.60546 62.938C9.29479 62.938 9.82646 63.1177 10.2005 63.477C10.5745 63.829 10.7615 64.3387 10.7615 65.006C10.7615 65.7907 10.5268 66.4067 10.0575 66.854C9.59546 67.3013 8.95379 67.525 8.13246 67.525H7.29646V67.8L7.34046 70H6.44946L6.50446 67.877L6.44946 62.949L8.60546 62.938ZM8.46246 66.81C8.91713 66.7367 9.26179 66.5533 9.49646 66.26C9.73846 65.9667 9.85946 65.5743 9.85946 65.083C9.85946 64.1737 9.37546 63.7007 8.40746 63.664L7.34046 63.697L7.30746 66.788L8.46246 66.81ZM15.7593 70H14.9343L14.8023 69.406L14.5163 68.592L13.2073 68.581L12.0413 68.592L11.7443 69.362L11.5903 70H10.7763L12.8883 64.522H13.8343L15.7593 70ZM14.2853 67.921L13.3723 65.325H13.3063L12.3053 67.921L13.2733 67.932L14.2853 67.921ZM19.1397 67.14C19.939 67.316 20.3387 67.7523 20.3387 68.449C20.3387 68.955 20.1407 69.3547 19.7447 69.648C19.3487 69.934 18.8097 70.077 18.1277 70.077C17.8197 70.077 17.5227 70.0403 17.2367 69.967C16.9507 69.8937 16.7087 69.7947 16.5107 69.67L16.6757 68.955L16.7417 68.922C16.925 69.0613 17.1377 69.1713 17.3797 69.252C17.6217 69.3253 17.8673 69.362 18.1167 69.362C18.52 69.362 18.8463 69.274 19.0957 69.098C19.3523 68.9147 19.4807 68.6763 19.4807 68.383C19.4807 68.1483 19.4 67.9577 19.2387 67.811C19.0773 67.657 18.85 67.5543 18.5567 67.503H17.3577L17.2917 67.426L17.3357 66.854L18.5127 66.865C18.718 66.7843 18.883 66.6597 19.0077 66.491C19.1323 66.3223 19.1947 66.1353 19.1947 65.93C19.1947 65.6807 19.103 65.4937 18.9197 65.369C18.7437 65.2443 18.4833 65.182 18.1387 65.182C17.6473 65.182 17.1633 65.3213 16.6867 65.6L16.5767 65.567L16.6427 64.819C17.1267 64.5697 17.6363 64.445 18.1717 64.445C18.7583 64.445 19.2167 64.566 19.5467 64.808C19.884 65.05 20.0527 65.38 20.0527 65.798C20.0527 66.0913 19.972 66.3553 19.8107 66.59C19.6567 66.8247 19.433 67.008 19.1397 67.14ZM26.5543 69.307V71.364L25.9383 71.43L25.8173 70H21.8463L21.7253 71.364L21.0873 71.43V69.307H21.5823C21.8243 69.175 22.0186 68.9733 22.1653 68.702C22.3193 68.4307 22.4403 68.0457 22.5283 67.547C22.6236 67.041 22.7116 66.3443 22.7923 65.457L22.8913 64.544L22.8803 64.522H25.7953L25.7513 68.284L25.7733 69.307H26.5543ZM24.9923 68.35L24.9593 65.149H23.5623L23.5183 65.6C23.4156 66.7147 23.2873 67.5507 23.1333 68.108C22.9793 68.658 22.7593 69.0577 22.4733 69.307H24.9703L24.9923 68.35ZM29.9184 64.511C30.4977 64.511 30.9414 64.6503 31.2494 64.929C31.5647 65.2077 31.7224 65.611 31.7224 66.139C31.7224 66.755 31.5244 67.239 31.1284 67.591C30.7397 67.9357 30.2007 68.108 29.5114 68.108H28.8404V68.284L28.8624 70H28.0484L28.0814 68.35L28.0484 64.522L29.9184 64.511ZM29.7754 67.47C30.5014 67.3453 30.8644 66.9237 30.8644 66.205C30.8644 65.8603 30.7654 65.6037 30.5674 65.435C30.3767 65.2663 30.0871 65.1747 29.6984 65.16L28.8624 65.171L28.8514 67.448L29.7754 67.47ZM36.6207 70H35.7957L35.6637 69.406L35.3777 68.592L34.0687 68.581L32.9027 68.592L32.6057 69.362L32.4517 70H31.6377L33.7497 64.522H34.6957L36.6207 70ZM35.1467 67.921L34.2337 65.325H34.1677L33.1667 67.921L34.1347 67.932L35.1467 67.921ZM37.6836 70.077C37.449 70.0477 37.185 69.9963 36.8916 69.923L36.8806 69.824C37.6873 68.9587 38.4536 68.0457 39.1796 67.085L37.0346 64.5H37.9586L38.2996 64.995L40.0266 67.063V67.118C39.4326 67.9907 38.6883 68.9623 37.7936 70.033L37.6836 70.077ZM40.1256 68.35L40.0926 64.5H40.9286L40.8956 68.284L40.9286 70H40.0926L40.1256 68.35ZM43.2276 70.033C42.4063 69.0577 41.6583 68.086 40.9836 67.118V67.063L42.7216 64.995L43.0626 64.5H43.9866L41.8416 67.085C42.5163 67.987 43.2826 68.9 44.1406 69.824L44.1296 69.923C43.8583 69.9963 43.5906 70.0477 43.3266 70.077L43.2276 70.033ZM48.7088 69.296L48.7748 69.362L48.6978 70H45.3648L45.3978 68.35L45.3648 64.522H48.7198L48.7748 64.588L48.7088 65.226L47.3228 65.182L46.1788 65.193L46.1678 66.854L47.2568 66.865L48.2138 66.832L48.2688 66.909L48.2028 67.558L47.1908 67.525L46.1678 67.536L46.1568 68.284L46.1678 69.329L47.2458 69.34L48.7088 69.296ZM54.9676 68.284L54.9896 70H54.1756L54.2086 68.35L54.1976 67.602L51.2166 67.613L51.2056 68.284L51.2276 70H50.4136L50.4466 68.35L50.4136 64.522H51.2386L51.2166 66.876L52.7016 66.887L54.1976 66.876L54.1756 64.522H55.0006L54.9676 68.284ZM57.0746 68.35L57.0306 64.533L57.8886 64.478L57.8336 68.68H57.9106L60.7596 64.5H61.6616L61.6176 68.284L61.6506 70H60.8036L60.8366 68.35V65.82H60.7706L57.8996 70H57.0306L57.0746 68.35ZM67.0457 69.296L67.1117 69.362L67.0347 70H63.7017L63.7347 68.35L63.7017 64.522H67.0567L67.1117 64.588L67.0457 65.226L65.6597 65.182L64.5157 65.193L64.5047 66.854L65.5937 66.865L66.5507 66.832L66.6057 66.909L66.5397 67.558L65.5277 67.525L64.5047 67.536L64.4937 68.284L64.5047 69.329L65.5827 69.34L67.0457 69.296Z" fill="#FDF9F5"/>
<path d="M36.9509 10.5461C50.4903 10.5461 61.4649 21.5221 61.4649 35.0615C61.4649 48.6009 50.4903 59.5769 36.9509 59.5769C23.4115 59.5769 12.4355 48.6009 12.4355 35.0615C12.4355 21.5221 23.4115 10.5461 36.9509 10.5461Z" fill="#DFCB67"/>
<path d="M19.1011 24.7463L21.4601 26.0175C25.0259 27.9383 28.5917 29.8577 32.1043 31.8723" stroke="#1D1D1B" stroke-width="0.75" stroke-miterlimit="10" stroke-linecap="round"/>
<path d="M38.5918 31.6008C42.6518 29.1046 46.6502 26.509 50.5842 23.8182" stroke="#1D1D1B" stroke-width="0.75" stroke-miterlimit="10" stroke-linecap="round"/>
<path d="M25.3407 39.4968C29.0768 39.4968 32.1055 37.7901 32.1055 35.6846C32.1055 33.5792 29.0768 31.8724 25.3407 31.8724C21.6046 31.8724 18.5759 33.5792 18.5759 35.6846C18.5759 37.7901 21.6046 39.4968 25.3407 39.4968Z" fill="#FBF1D0"/>
<path d="M46.0748 40.7638C50.2075 40.7638 53.5578 38.3593 53.5578 35.3933C53.5578 32.4274 50.2075 30.0229 46.0748 30.0229C41.9421 30.0229 38.5918 32.4274 38.5918 35.3933C38.5918 38.3593 41.9421 40.7638 46.0748 40.7638Z" fill="#FBF1D0"/>
<path d="M26.7212 37.7216C27.7867 37.7216 28.6504 36.5031 28.6504 35C28.6504 33.4969 27.7867 32.2784 26.7212 32.2784C25.6557 32.2784 24.792 33.4969 24.792 35C24.792 36.5031 25.6557 37.7216 26.7212 37.7216Z" fill="#1D1D1B" stroke="#1D1D1B" stroke-miterlimit="10"/>
<path d="M44.5879 37.0426C45.6534 37.0426 46.5171 35.8241 46.5171 34.321C46.5171 32.8179 45.6534 31.5994 44.5879 31.5994C43.5224 31.5994 42.6587 32.8179 42.6587 34.321C42.6587 35.8241 43.5224 37.0426 44.5879 37.0426Z" fill="#1D1D1B" stroke="#1D1D1B" stroke-miterlimit="10"/>
<path d="M26.2999 48.4274C26.0787 46.9826 33.3713 44.8728 34.0237 44.6866C34.0237 44.6866 40.0241 42.9744 45.1873 44.4458C45.3791 44.5004 45.8663 44.639 46.0749 45.0492C46.2401 45.374 46.1659 45.7436 46.0749 46.1958C45.9755 46.6914 45.8046 47.0834 45.7304 47.222C45.099 48.3966 42.2304 48.4288 42.2304 48.4288C36.5618 48.4932 29.9007 50.8228 26.7213 48.9118C26.5603 48.8152 26.3363 48.664 26.2999 48.4288V48.4274Z" fill="#FBF1D0" stroke="#1D1D1B" stroke-width="0.75" stroke-miterlimit="10"/>
<path d="M28.9724 46.6228C28.775 47.2654 28.6756 47.9374 28.6798 48.608" stroke="#1D1D1B" stroke-width="0.75" stroke-miterlimit="10" stroke-linecap="round"/>
<path d="M31.0919 45.8374C30.9323 46.9238 30.7727 48.0102 30.6145 49.0966" stroke="#1D1D1B" stroke-width="0.75" stroke-miterlimit="10" stroke-linecap="round"/>
<path d="M18.6153 36.2055C18.5075 35.3095 18.9107 34.4051 19.5365 33.7597C20.1623 33.1143 20.9883 32.7041 21.8339 32.4143C24.5807 31.4777 27.7069 31.7675 30.2591 33.1563C30.7533 33.4251 31.2335 33.7387 31.6073 34.1601C31.9811 34.5815 32.2443 35.1261 32.2429 35.6931" stroke="#1D1D1B" stroke-width="0.75" stroke-miterlimit="10" stroke-linecap="round"/>
<path d="M38.5205 36.0934C38.5429 35.4522 38.6927 33.7274 39.9807 32.2784C41.1693 30.9414 42.6911 30.555 43.6515 30.3114C44.6833 30.0496 45.5107 30.0412 45.9853 30.0398C46.7623 30.037 48.1329 30.0608 49.7023 30.7048C50.8419 31.1724 51.9115 31.8738 52.6535 32.8566C53.6783 34.2118 53.5789 35.756 53.5369 36.3328" stroke="#1D1D1B" stroke-width="0.75" stroke-miterlimit="10" stroke-linecap="round"/>
<defs>
<linearGradient id="paint0_linear_191_53" x1="37" y1="3" x2="37" y2="82" gradientUnits="userSpaceOnUse">
<stop offset="0.144231" stop-color="#AE1C0C"/>
<stop offset="1" stop-color="#F39955"/>
</linearGradient>
</defs>
</svg>
