<svg width="74" height="82" viewBox="0 0 74 82" fill="none" xmlns="http://www.w3.org/2000/svg">
<rect y="3" width="74" height="79" rx="11" fill="url(#paint0_linear_190_43)"/>
<path d="M21.0933 62.938C21.7826 62.938 22.3143 63.1177 22.6883 63.477C23.0623 63.829 23.2493 64.3387 23.2493 65.006C23.2493 65.7907 23.0146 66.4067 22.5453 66.854C22.0833 67.3013 21.4416 67.525 20.6203 67.525H19.7843V67.8L19.8283 70H18.9373L18.9923 67.877L18.9373 62.949L21.0933 62.938ZM20.9503 66.81C21.4049 66.7367 21.7496 66.5533 21.9843 66.26C22.2263 65.9667 22.3473 65.5743 22.3473 65.083C22.3473 64.1737 21.8633 63.7007 20.8953 63.664L19.8283 63.697L19.7953 66.788L20.9503 66.81ZM28.2471 70H27.4221L27.2901 69.406L27.0041 68.592L25.6951 68.581L24.5291 68.592L24.2321 69.362L24.0781 70H23.2641L25.3761 64.522H26.3221L28.2471 70ZM26.7731 67.921L25.8601 65.325H25.7941L24.7931 67.921L25.7611 67.932L26.7731 67.921ZM34.0255 69.307V71.364L33.4095 71.43L33.2885 70H29.3175L29.1965 71.364L28.5585 71.43V69.307H29.0535C29.2955 69.175 29.4898 68.9733 29.6365 68.702C29.7905 68.4307 29.9115 68.0457 29.9995 67.547C30.0948 67.041 30.1828 66.3443 30.2635 65.457L30.3625 64.544L30.3515 64.522H33.2665L33.2225 68.284L33.2445 69.307H34.0255ZM32.4635 68.35L32.4305 65.149H31.0335L30.9895 65.6C30.8868 66.7147 30.7585 67.5507 30.6045 68.108C30.4505 68.658 30.2305 69.0577 29.9445 69.307H32.4415L32.4635 68.35ZM37.4814 64.456C38.2808 64.456 38.8931 64.6907 39.3184 65.16C39.7511 65.6293 39.9674 66.293 39.9674 67.151C39.9674 68.0823 39.7364 68.8047 39.2744 69.318C38.8198 69.824 38.1671 70.077 37.3164 70.077C36.5244 70.077 35.9121 69.8387 35.4794 69.362C35.0468 68.878 34.8304 68.1923 34.8304 67.305C34.8304 66.3957 35.0614 65.6953 35.5234 65.204C35.9854 64.7053 36.6381 64.456 37.4814 64.456ZM37.4044 65.149C36.8251 65.149 36.3924 65.314 36.1064 65.644C35.8278 65.974 35.6884 66.4947 35.6884 67.206C35.6884 67.9687 35.8278 68.5223 36.1064 68.867C36.3851 69.2117 36.8104 69.384 37.3824 69.384C37.9691 69.384 38.4054 69.2153 38.6914 68.878C38.9774 68.5407 39.1204 68.0127 39.1204 67.294C39.1204 66.5533 38.9774 66.0107 38.6914 65.666C38.4128 65.3213 37.9838 65.149 37.4044 65.149ZM43.615 64.467C44.2236 64.467 44.7516 64.5953 45.199 64.852L45.045 65.611L44.946 65.644C44.7626 65.49 44.55 65.369 44.308 65.281C44.066 65.193 43.8056 65.149 43.527 65.149C42.9843 65.149 42.57 65.325 42.284 65.677C41.998 66.0217 41.855 66.5387 41.855 67.228C41.855 67.9247 41.998 68.4563 42.284 68.823C42.57 69.1897 42.9843 69.373 43.527 69.373C43.791 69.373 44.055 69.329 44.319 69.241C44.5903 69.1457 44.8323 69.021 45.045 68.867L45.144 68.9L45.067 69.659C44.5683 69.9303 44.044 70.066 43.494 70.066C42.6873 70.066 42.0676 69.8277 41.635 69.351C41.2023 68.867 40.986 68.1813 40.986 67.294C40.986 66.392 41.2133 65.6953 41.668 65.204C42.13 64.7127 42.779 64.467 43.615 64.467ZM49.8482 64.588L49.7932 65.281L48.7702 65.204H48.2202L48.1872 68.284L48.2202 70H47.3952L47.4282 68.35L47.4062 65.204H46.8562L45.8112 65.281L45.7452 65.204L45.8112 64.522H49.8042L49.8482 64.588ZM53.0576 66.722C53.6223 66.722 54.0513 66.8503 54.3446 67.107C54.6453 67.3563 54.7956 67.7193 54.7956 68.196C54.7956 68.768 54.5903 69.2117 54.1796 69.527C53.7763 69.8423 53.2043 70 52.4636 70H51.0006L51.0336 68.35L51.0006 64.5H51.8476L51.8256 66.722H53.0576ZM52.7606 69.395C53.142 69.351 53.428 69.2373 53.6186 69.054C53.8166 68.8633 53.9156 68.614 53.9156 68.306C53.9156 67.998 53.8166 67.7597 53.6186 67.591C53.428 67.415 53.1493 67.3307 52.7826 67.338L51.8146 67.349L51.8036 68.284L51.8256 69.362L52.7606 69.395Z" fill="#FDF9F5"/>
<path d="M37.0447 59.5769C50.5842 59.5769 61.5601 48.601 61.5601 35.0615C61.5601 21.5221 50.5842 10.5461 37.0447 10.5461C23.5052 10.5461 12.5293 21.5221 12.5293 35.0615C12.5293 48.601 23.5052 59.5769 37.0447 59.5769Z" fill="#DFCB67"/>
<path d="M21 25.8274C21.4134 24.6561 22.8284 23.8941 24.2925 24.012C25.6185 24.1187 26.7321 24.9271 27 26" fill="#DFCB67"/>
<path d="M21 25.8274C21.4134 24.6561 22.8284 23.8941 24.2925 24.012C25.6185 24.1187 26.7321 24.9271 27 26" stroke="#1D1D1B" stroke-width="0.75" stroke-miterlimit="10" stroke-linecap="round"/>
<path d="M43 25.8274C43.4134 24.6561 44.8284 23.8941 46.2925 24.012C47.6185 24.1187 48.7321 24.9271 49 26" fill="#DFCB67"/>
<path d="M43 25.8274C43.4134 24.6561 44.8284 23.8941 46.2925 24.012C47.6185 24.1187 48.7321 24.9271 49 26" stroke="#1D1D1B" stroke-width="0.75" stroke-miterlimit="10" stroke-linecap="round"/>
<path d="M19 34.4948C19.756 30.866 23.074 28.5812 26.1806 29.0642C28.5858 29.438 30.6214 31.4344 31.25 34.0734" fill="#DFCB67"/>
<path d="M19 34.4948C19.756 30.866 23.074 28.5812 26.1806 29.0642C28.5858 29.438 30.6214 31.4344 31.25 34.0734" stroke="#1D1D1B" stroke-width="0.75" stroke-miterlimit="10" stroke-linecap="round"/>
<path d="M40.0001 34.4945C40.7919 30.8734 44.1324 28.6215 47.2341 29.1353C49.6354 29.5329 51.6512 31.5493 52.2536 34.1944" fill="#DFCB67"/>
<path d="M40.0001 34.4945C40.7919 30.8734 44.1324 28.6215 47.2341 29.1353C49.6354 29.5329 51.6512 31.5493 52.2536 34.1944" stroke="#1D1D1B" stroke-width="0.75" stroke-miterlimit="10" stroke-linecap="round"/>
<path d="M25.6699 39.8594H48.9029H25.6699Z" stroke="#1D1D1B" stroke-width="0.85" stroke-miterlimit="10"/>
<path d="M25.5942 39.9196C26.3236 46.0684 31.666 50.631 37.665 50.4196C43.3672 50.2194 48.2168 45.7562 48.9014 39.9196" fill="#FBF1D0"/>
<path d="M25.5942 39.9196C26.3236 46.0684 31.666 50.631 37.665 50.4196C43.3672 50.2194 48.2168 45.7562 48.9014 39.9196" stroke="#1D1D1B" stroke-width="0.6" stroke-miterlimit="10" stroke-linecap="round"/>
<path d="M42.3481 39.9196C42.3411 41.3686 42.3327 42.8162 42.3257 44.2652" stroke="#1D1D1B" stroke-width="0.75" stroke-miterlimit="10" stroke-linecap="round"/>
<path d="M46.128 39.8594C46.0706 40.9444 46.0496 42.0322 46.0664 43.1186" stroke="#1D1D1B" stroke-width="0.75" stroke-miterlimit="10" stroke-linecap="round"/>
<defs>
<linearGradient id="paint0_linear_190_43" x1="37" y1="3" x2="37" y2="82" gradientUnits="userSpaceOnUse">
<stop offset="0.216346" stop-color="#F0D41E"/>
<stop offset="1" stop-color="#F39955"/>
</linearGradient>
</defs>
</svg>
