<svg width="74" height="83" viewBox="0 0 74 83" fill="none" xmlns="http://www.w3.org/2000/svg">
<rect y="4" width="74" height="79" rx="11" fill="url(#paint0_linear_191_51)"/>
<path d="M26.6764 63.037L26.5994 63.686L25.1034 63.664H23.9264L23.8934 67.8L23.9264 70H23.0464L23.0794 67.877L23.0464 62.949H26.6104L26.6764 63.037ZM29.6928 64.511C30.2721 64.511 30.7158 64.6503 31.0238 64.929C31.3391 65.2077 31.4968 65.611 31.4968 66.139C31.4968 66.755 31.2988 67.239 30.9028 67.591C30.5141 67.9357 29.9751 68.108 29.2858 68.108H28.6148V68.284L28.6368 70H27.8228L27.8558 68.35L27.8228 64.522L29.6928 64.511ZM29.5498 67.47C30.2758 67.3453 30.6388 66.9237 30.6388 66.205C30.6388 65.8603 30.5398 65.6037 30.3418 65.435C30.1511 65.2663 29.8615 65.1747 29.4728 65.16L28.6368 65.171L28.6258 67.448L29.5498 67.47ZM34.4679 68.427L34.5009 70H33.6759L33.7199 68.427L33.7089 68.086L31.8499 64.522H32.7519L32.8619 64.841L34.0939 67.195H34.1489L35.4909 64.874L35.6339 64.522H36.5139L34.4789 68.086L34.4679 68.427ZM39.5168 64.467C40.1255 64.467 40.6535 64.5953 41.1008 64.852L40.9468 65.611L40.8478 65.644C40.6645 65.49 40.4518 65.369 40.2098 65.281C39.9678 65.193 39.7075 65.149 39.4288 65.149C38.8862 65.149 38.4718 65.325 38.1858 65.677C37.8998 66.0217 37.7568 66.5387 37.7568 67.228C37.7568 67.9247 37.8998 68.4563 38.1858 68.823C38.4718 69.1897 38.8862 69.373 39.4288 69.373C39.6928 69.373 39.9568 69.329 40.2208 69.241C40.4922 69.1457 40.7342 69.021 40.9468 68.867L41.0458 68.9L40.9688 69.659C40.4702 69.9303 39.9458 70.066 39.3958 70.066C38.5892 70.066 37.9695 69.8277 37.5368 69.351C37.1042 68.867 36.8878 68.1813 36.8878 67.294C36.8878 66.392 37.1152 65.6953 37.5698 65.204C38.0318 64.7127 38.6808 64.467 39.5168 64.467ZM45.7501 64.588L45.6951 65.281L44.6721 65.204H44.1221L44.0891 68.284L44.1221 70H43.2971L43.3301 68.35L43.3081 65.204H42.7581L41.7131 65.281L41.6471 65.204L41.7131 64.522H45.7061L45.7501 64.588ZM48.9595 66.722C49.5241 66.722 49.9531 66.8503 50.2465 67.107C50.5471 67.3563 50.6975 67.7193 50.6975 68.196C50.6975 68.768 50.4921 69.2117 50.0815 69.527C49.6781 69.8423 49.1061 70 48.3655 70H46.9025L46.9355 68.35L46.9025 64.5H47.7495L47.7275 66.722H48.9595ZM48.6625 69.395C49.0438 69.351 49.3298 69.2373 49.5205 69.054C49.7185 68.8633 49.8175 68.614 49.8175 68.306C49.8175 67.998 49.7185 67.7597 49.5205 67.591C49.3298 67.415 49.0511 67.3307 48.6845 67.338L47.7165 67.349L47.7055 68.284L47.7275 69.362L48.6625 69.395Z" fill="#FDF9F5"/>
<path d="M61.4649 35.0615C61.4649 48.6009 50.4903 59.5769 36.9509 59.5769C23.4115 59.5769 12.4355 48.6009 12.4355 35.0615C12.4355 21.5221 23.4115 10.5461 36.9509 10.5461C50.4903 10.5461 61.4649 21.5221 61.4649 35.0615Z" fill="#DFCB67"/>
<path d="M21.3928 22.946C21.733 23.3086 22.965 24.5378 24.953 24.7562C27.6942 25.0572 29.5548 23.1812 29.7802 22.946" fill="#DFCB67"/>
<path d="M21.3928 22.946C21.733 23.3086 22.965 24.5378 24.953 24.7562C27.6942 25.0572 29.5548 23.1812 29.7802 22.946" stroke="#1D1D1B" stroke-width="0.75" stroke-miterlimit="10"/>
<path d="M41.2307 22.946C41.5709 23.3086 42.8029 24.5378 44.7909 24.7562C47.5321 25.0572 49.3927 23.1812 49.6181 22.946" fill="#DFCB67"/>
<path d="M41.2307 22.946C41.5709 23.3086 42.8029 24.5378 44.7909 24.7562C47.5321 25.0572 49.3927 23.1812 49.6181 22.946" stroke="#1D1D1B" stroke-width="0.75" stroke-miterlimit="10" stroke-linecap="round"/>
<path d="M25.1225 35.2128C28.905 35.2128 31.9713 33.2271 31.9713 30.7776C31.9713 28.3281 28.905 26.3424 25.1225 26.3424C21.34 26.3424 18.2737 28.3281 18.2737 30.7776C18.2737 33.2271 21.34 35.2128 25.1225 35.2128Z" fill="#FBF1D0"/>
<path d="M45.4252 35.2128C49.2077 35.2128 52.274 33.2271 52.274 30.7776C52.274 28.3281 49.2077 26.3424 45.4252 26.3424C41.6427 26.3424 38.5764 28.3281 38.5764 30.7776C38.5764 33.2271 41.6427 35.2128 45.4252 35.2128Z" fill="#FBF1D0"/>
<path d="M29.7815 46.4926C30.3541 43.9334 32.5563 42.0742 35.0945 41.9552C37.8231 41.8264 40.3277 43.736 40.9507 46.4926" stroke="#1D1D1B" stroke-width="0.75" stroke-miterlimit="10" stroke-linecap="round"/>
<path d="M25.5873 33.9962C27.3648 33.9962 28.8059 32.5551 28.8059 30.7776C28.8059 29 27.3648 27.559 25.5873 27.559C23.8097 27.559 22.3687 29 22.3687 30.7776C22.3687 32.5551 23.8097 33.9962 25.5873 33.9962Z" fill="#1D1D1B" stroke="#1D1D1B" stroke-miterlimit="10"/>
<path d="M45.4251 33.9962C47.2027 33.9962 48.6437 32.5551 48.6437 30.7776C48.6437 29 47.2027 27.559 45.4251 27.559C43.6476 27.559 42.2065 29 42.2065 30.7776C42.2065 32.5551 43.6476 33.9962 45.4251 33.9962Z" fill="#1D1D1B" stroke="#1D1D1B" stroke-miterlimit="10"/>
<path d="M47.7225 41.2467C48.522 41.2467 49.1701 40.3554 49.1701 39.2559C49.1701 38.1564 48.522 37.2651 47.7225 37.2651C46.923 37.2651 46.2749 38.1564 46.2749 39.2559C46.2749 40.3554 46.923 41.2467 47.7225 41.2467Z" fill="#89CFE4"/>
<path d="M46.2163 38.92C46.1911 39.5976 46.4151 40.2822 46.8365 40.8142C46.9933 41.013 47.1865 41.1964 47.4287 41.2692C47.6667 41.3392 47.9299 41.293 48.1497 41.1768C48.3695 41.0606 48.5515 40.8842 48.7069 40.6896C49.1353 40.1562 49.3817 39.4128 49.1255 38.7786" stroke="#1D1D1B" stroke-width="0.75" stroke-miterlimit="10" stroke-linecap="round"/>
<path d="M18.1573 31.3138C18.0495 29.8844 18.9329 28.5236 20.0907 27.7032C21.5481 26.6686 23.3891 26.3438 25.1671 26.3424C26.2773 26.3424 27.3973 26.4572 28.4473 26.8226C29.4973 27.188 30.4773 27.8152 31.1535 28.7084C31.8297 29.6016 32.1783 30.7748 31.9753 31.8836" stroke="#1D1D1B" stroke-width="0.75" stroke-miterlimit="10" stroke-linecap="round"/>
<path d="M38.533 31.3754C38.54 30.023 39.184 28.6888 40.2298 27.8628C40.6176 27.5562 41.0544 27.3182 41.5024 27.1138C42.9052 26.474 44.4522 26.1548 45.9852 26.2388C47.5182 26.3228 49.0358 26.8156 50.3084 27.6948C50.916 28.1148 51.4732 28.6286 51.861 29.2656C52.2488 29.9026 52.4546 30.674 52.3398 31.416" stroke="#1D1D1B" stroke-width="0.75" stroke-miterlimit="10" stroke-linecap="round"/>
<defs>
<linearGradient id="paint0_linear_191_51" x1="37" y1="4" x2="37" y2="83" gradientUnits="userSpaceOnUse">
<stop offset="0.211538" stop-color="#4186E7"/>
<stop offset="1" stop-color="#F39955"/>
</linearGradient>
</defs>
</svg>
