<svg width="74" height="82" viewBox="0 0 74 82" fill="none" xmlns="http://www.w3.org/2000/svg">
<rect y="3" width="74" height="79" rx="11" fill="url(#paint0_linear_191_52)"/>
<path d="M27.8325 62.894C28.5732 62.894 29.2149 63.07 29.7575 63.422L29.5815 64.225L29.4825 64.247C28.9912 63.8363 28.4265 63.631 27.7885 63.631C27.0919 63.631 26.5565 63.873 26.1825 64.357C25.8085 64.8337 25.6215 65.534 25.6215 66.458C25.6215 67.3893 25.8085 68.1007 26.1825 68.592C26.5565 69.0833 27.0845 69.329 27.7665 69.329C28.0892 69.329 28.4082 69.2703 28.7235 69.153C29.0462 69.0357 29.3395 68.8707 29.6035 68.658L29.7135 68.713L29.6365 69.549C28.9985 69.901 28.3495 70.077 27.6895 70.077C26.7435 70.077 26.0102 69.7727 25.4895 69.164C24.9689 68.548 24.7085 67.6717 24.7085 66.535C24.7085 65.369 24.9799 64.4707 25.5225 63.84C26.0652 63.2093 26.8352 62.894 27.8325 62.894ZM34.4273 64.588L34.3723 65.281L33.3493 65.204H32.7993L32.7663 68.284L32.7993 70H31.9743L32.0073 68.35L31.9853 65.204H31.4353L30.3903 65.281L30.3243 65.204L30.3903 64.522H34.3833L34.4273 64.588ZM37.3397 66.722C37.8677 66.722 38.2711 66.8503 38.5497 67.107C38.8284 67.3563 38.9677 67.7193 38.9677 68.196C38.9677 68.768 38.7734 69.2117 38.3847 69.527C37.9961 69.8423 37.4461 70 36.7347 70H35.3707L35.4147 68.35L35.3707 64.5H36.2287L36.2067 66.722H37.3397ZM40.8267 68.284L40.8487 70H40.0347L40.0677 68.35L40.0347 64.522H40.8597L40.8267 68.284ZM37.0427 69.395C37.3874 69.351 37.6477 69.2373 37.8237 69.054C38.0071 68.8633 38.0987 68.614 38.0987 68.306C38.0987 67.998 38.0071 67.7597 37.8237 67.591C37.6477 67.415 37.3947 67.3307 37.0647 67.338L36.1957 67.349L36.1847 68.284L36.2067 69.362L37.0427 69.395ZM47.4473 69.307V71.364L46.8313 71.43L46.7103 70H42.7393L42.6183 71.364L41.9803 71.43V69.307H42.4753C42.7173 69.175 42.9117 68.9733 43.0583 68.702C43.2123 68.4307 43.3333 68.0457 43.4213 67.547C43.5167 67.041 43.6047 66.3443 43.6853 65.457L43.7843 64.544L43.7733 64.522H46.6883L46.6443 68.284L46.6663 69.307H47.4473ZM45.8853 68.35L45.8523 65.149H44.4553L44.4113 65.6C44.3087 66.7147 44.1803 67.5507 44.0263 68.108C43.8723 68.658 43.6523 69.0577 43.3663 69.307H45.8633L45.8853 68.35Z" fill="#FDF9F5"/>
<path d="M61.514 35.133C61.514 48.6724 50.5394 59.6484 37 59.6484C23.4606 59.6484 12.4846 48.6724 12.4846 35.133C12.4846 21.5936 23.4606 10.6176 37 10.6176C50.5394 10.6176 61.514 21.5936 61.514 35.133Z" fill="#DFCB67"/>
<path d="M21.1101 25.4366C22.0761 25.9168 23.5853 26.5174 25.5159 26.7036C28.4349 26.9864 30.7281 26.1702 31.8523 25.6774" fill="#DFCB67"/>
<path d="M21.1101 25.4366C22.0761 25.9168 23.5853 26.5174 25.5159 26.7036C28.4349 26.9864 30.7281 26.1702 31.8523 25.6774" stroke="#1D1D1B" stroke-width="0.75" stroke-miterlimit="10" stroke-linecap="round"/>
<path d="M40.0576 24.8934C40.8388 25.4744 42.299 26.3914 44.3416 26.7624C47.4552 27.328 49.9206 26.2612 50.7984 25.8286" fill="#DFCB67"/>
<path d="M40.0576 24.8934C40.8388 25.4744 42.299 26.3914 44.3416 26.7624C47.4552 27.328 49.9206 26.2612 50.7984 25.8286" stroke="#1D1D1B" stroke-width="0.75" stroke-miterlimit="10" stroke-linecap="round"/>
<path d="M26.1487 39.5584C29.8314 39.5584 32.8169 37.1941 32.8169 34.2776C32.8169 31.3611 29.8314 28.9968 26.1487 28.9968C22.4659 28.9968 19.4805 31.3611 19.4805 34.2776C19.4805 37.1941 22.4659 39.5584 26.1487 39.5584Z" fill="#FBF1D0"/>
<path d="M45.4294 39.5584C49.1122 39.5584 52.0976 37.1941 52.0976 34.2776C52.0976 31.3611 49.1122 28.9968 45.4294 28.9968C41.7467 28.9968 38.7612 31.3611 38.7612 34.2776C38.7612 37.1941 41.7467 39.5584 45.4294 39.5584Z" fill="#FBF1D0"/>
<path d="M24.3118 46.277L25.1938 45.864C25.7608 45.598 26.3698 45.3264 26.9886 45.4188C27.865 45.549 28.4978 46.3638 29.3546 46.5864C30.0826 46.7754 30.84 46.5108 31.5652 46.312C32.5788 46.0334 33.6624 45.8808 34.6746 46.1608C35.327 46.3414 35.9192 46.6914 36.5002 47.0372C37.5432 47.6574 38.5848 48.2776 39.6278 48.8978" stroke="#1D1D1B" stroke-width="0.75" stroke-miterlimit="10" stroke-linecap="round"/>
<path d="M22.3475 37.5061C23.9302 37.5061 25.2133 35.9253 25.2133 33.9753C25.2133 32.0252 23.9302 30.4445 22.3475 30.4445C20.7648 30.4445 19.4817 32.0252 19.4817 33.9753C19.4817 35.9253 20.7648 37.5061 22.3475 37.5061Z" fill="#1D1D1B" stroke="#1D1D1B" stroke-miterlimit="10"/>
<path d="M41.627 37.5061C43.2098 37.5061 44.4928 35.9253 44.4928 33.9753C44.4928 32.0252 43.2098 30.4445 41.627 30.4445C40.0443 30.4445 38.7612 32.0252 38.7612 33.9753C38.7612 35.9253 40.0443 37.5061 41.627 37.5061Z" fill="#1D1D1B" stroke="#1D1D1B" stroke-miterlimit="10"/>
<path d="M15.1431 39.0446C14.7231 39.753 14.6153 40.6546 14.9191 41.419C15.2229 42.1834 15.9537 42.7798 16.7741 42.861C17.2123 42.9044 17.6505 42.8078 18.0859 42.7448C18.7103 42.6552 19.3445 42.6356 19.9731 42.6846C21.2331 42.784 22.5323 43.1578 23.7335 42.7602C24.1731 42.6146 24.6267 42.2968 24.6603 41.8334C24.6799 41.5562 24.5427 41.293 24.3915 41.0606C24.0247 40.495 23.5123 39.9798 22.8599 39.8146C22.2117 39.6508 21.5173 39.8524 20.8621 39.7208C20.0529 39.5584 19.4201 38.9158 18.6333 38.6624C17.5693 38.3208 16.4255 38.7394 15.3867 39.1524" fill="#C590BB"/>
<path d="M14.8408 38.8682C14.4208 39.5934 14.2724 40.4838 14.5076 41.2958C14.7162 42.0168 15.2412 42.6566 15.9244 42.9758C16.2954 43.1494 16.6916 43.2348 17.1032 43.2194C17.5694 43.2026 18.0258 43.0906 18.4892 43.0472C19.4258 42.959 20.3372 43.0696 21.264 43.19C22.1236 43.302 23.042 43.3818 23.875 43.0822C24.2432 42.9492 24.5904 42.7392 24.8158 42.4116C25.0692 42.0406 25.0496 41.5968 24.8704 41.2006C24.7094 40.8422 24.4476 40.5062 24.176 40.2262C23.9044 39.9462 23.574 39.711 23.2044 39.5626C22.3756 39.2294 21.4698 39.5948 20.641 39.298C20.256 39.1594 19.9116 38.9172 19.5588 38.7142C19.136 38.4706 18.6964 38.2816 18.2092 38.2186C17.2012 38.0898 16.2156 38.4538 15.2958 38.8192C15.1208 38.8892 14.9976 39.053 15.0508 39.2504C15.097 39.417 15.3042 39.5654 15.482 39.4954C16.2114 39.2056 16.9814 38.8962 17.778 38.892C18.1364 38.8906 18.4892 38.9592 18.8154 39.1132C19.1416 39.2672 19.4272 39.4562 19.731 39.6312C20.0348 39.8062 20.3512 39.963 20.69 40.0456C21.0974 40.145 21.5146 40.124 21.9304 40.1086C22.2846 40.096 22.65 40.0876 22.9846 40.2248C23.2856 40.348 23.539 40.5636 23.756 40.8016C23.973 41.0396 24.2068 41.3308 24.2936 41.6402C24.3706 41.9146 24.197 42.1288 23.9744 42.2688C23.3542 42.6594 22.5156 42.623 21.8156 42.5572C20.9994 42.4802 20.193 42.3192 19.3698 42.3122C18.933 42.3094 18.4962 42.3416 18.0636 42.4018C17.6576 42.4578 17.2558 42.5446 16.8428 42.5194C16.182 42.4788 15.5982 42.0042 15.307 41.4302C14.957 40.7358 15.069 39.8804 15.4484 39.2252C15.6752 38.8346 15.0704 38.4818 14.8436 38.8724L14.8408 38.8682Z" fill="#C590BB"/>
<path d="M46.2231 41.7606C47.0169 41.2804 48.0151 41.321 48.9307 41.475C49.8463 41.629 50.7633 41.8838 51.6845 41.7816C52.5973 41.6794 53.4485 41.2328 54.3641 41.1642C55.2097 41.1012 56.0413 41.3644 56.8477 41.6234C56.9513 41.657 57.0577 41.692 57.1375 41.7634C57.2341 41.8502 57.2803 41.979 57.3083 42.1064C57.4483 42.7476 57.1809 43.428 56.7371 43.911C56.2933 44.394 55.6955 44.7062 55.0865 44.9498C54.0337 45.3698 52.8983 45.612 51.7671 45.542C50.2943 45.4496 48.8733 44.835 47.3991 44.8938C46.5731 44.9274 45.7457 45.1724 44.9323 45.031C44.1189 44.8896 43.3097 44.1336 43.5323 43.337C43.6541 42.9002 44.0447 42.5936 44.4493 42.3906C44.9939 42.1162 45.6057 41.9762 46.2147 41.9832" fill="#C590BB"/>
<path d="M46.3995 42.063C47.1961 41.5954 48.1663 41.6892 49.0371 41.8474C50.1179 42.0434 51.1735 42.2814 52.2697 42.0322C52.7597 41.9216 53.2315 41.7466 53.7187 41.6262C54.2059 41.5058 54.6539 41.4722 55.1327 41.5366C55.6647 41.608 56.1813 41.7746 56.6909 41.9398C56.7525 41.9594 56.8589 41.9734 56.9065 42.0238C56.9611 42.0812 56.9751 42.1988 56.9863 42.2716C57.0171 42.4788 56.9891 42.6944 56.9303 42.8946C56.6755 43.7612 55.8355 44.2694 55.0473 44.59C54.1107 44.9722 53.1083 45.213 52.0933 45.2032C51.0671 45.1934 50.0801 44.8882 49.0791 44.7006C48.5681 44.6054 48.0487 44.5326 47.5279 44.541C47.0071 44.5494 46.4625 44.6558 45.9291 44.7034C45.4363 44.7468 44.9225 44.7524 44.4829 44.4976C44.1623 44.3114 43.8277 43.9782 43.8473 43.5792C43.8683 43.148 44.2799 42.868 44.6271 42.693C45.1185 42.4452 45.6687 42.3318 46.2161 42.3332C46.6669 42.3332 46.6669 41.6346 46.2161 41.6332C45.6421 41.6318 45.0737 41.7424 44.5445 41.965C44.0811 42.161 43.6233 42.4396 43.3545 42.8792C42.7973 43.792 43.4637 44.8238 44.3387 45.2074C45.4321 45.6876 46.6165 45.2116 47.7519 45.2438C48.8691 45.2746 49.9401 45.647 51.0377 45.8122C52.2067 45.9872 53.3743 45.8836 54.5027 45.5308C55.5079 45.2172 56.5579 44.7636 57.2033 43.8942C57.5099 43.4812 57.7031 42.959 57.6975 42.441C57.6947 42.1778 57.6513 41.8712 57.4959 41.6514C57.3223 41.405 57.0563 41.3252 56.7819 41.237C56.2079 41.0536 55.6297 40.8898 55.0291 40.8282C54.4285 40.7666 53.8811 40.8562 53.3225 41.0102C52.8003 41.1544 52.2851 41.3476 51.7475 41.4246C51.1763 41.5072 50.5925 41.4288 50.0297 41.3266C48.9573 41.132 47.8415 40.8534 46.7607 41.1558C46.5115 41.2258 46.2707 41.3294 46.0481 41.4596C45.6603 41.6878 46.0117 42.2926 46.4009 42.0644L46.3995 42.063Z" fill="#C590BB"/>
<path d="M20.8496 30.8434C21.481 30.3842 24.2754 28.4592 27.7026 29.141C28.5174 29.3034 30.3416 29.666 31.6408 31.311C32.5984 32.5248 32.7972 33.8366 32.849 34.4554" stroke="#1D1D1B" stroke-width="0.75" stroke-miterlimit="10" stroke-linecap="round"/>
<path d="M52.1857 34.6976C52.0737 32.9126 51.1077 31.2256 49.6993 30.1826C47.7337 28.728 45.5875 28.9086 44.7573 28.9884C42.5775 29.1956 41.0795 30.2582 40.4761 30.7398" stroke="#1D1D1B" stroke-width="0.75" stroke-miterlimit="10" stroke-linecap="round"/>
<defs>
<linearGradient id="paint0_linear_191_52" x1="37" y1="3" x2="37" y2="82" gradientUnits="userSpaceOnUse">
<stop offset="0.322115" stop-color="#CC4FB7"/>
<stop offset="1" stop-color="#F39955"/>
</linearGradient>
</defs>
</svg>
