<svg width="74" height="81" viewBox="0 0 74 81" fill="none" xmlns="http://www.w3.org/2000/svg">
<rect y="2" width="74" height="79" rx="11" fill="url(#paint0_linear_191_55)"/>
<path d="M13.6674 66.8L13.6894 69H12.8204L12.8644 66.877L12.8534 65.821L10.8954 65.81L9.10238 65.821L9.09138 66.8L9.12438 69H8.25538L8.28838 66.877L8.25538 61.949H9.13538L9.10238 65.073L10.9724 65.084L12.8534 65.073L12.8204 61.949H13.7114L13.6674 66.8ZM20.025 69H19.2L19.068 68.406L18.782 67.592L17.473 67.581L16.307 67.592L16.01 68.362L15.856 69H15.042L17.154 63.522H18.1L20.025 69ZM18.551 66.921L17.638 64.325H17.572L16.571 66.921L17.539 66.932L18.551 66.921ZM25.4183 67.284L25.4513 69H24.6153L24.6373 67.35L24.6153 64.171H22.0963L22.0743 67.284L22.0963 69H21.2603L21.2933 67.35L21.2603 63.5H25.4623L25.4183 67.284ZM29.3715 63.511C29.9508 63.511 30.3945 63.6503 30.7025 63.929C31.0178 64.2077 31.1755 64.611 31.1755 65.139C31.1755 65.755 30.9775 66.239 30.5815 66.591C30.1928 66.9357 29.6538 67.108 28.9645 67.108H28.2935V67.284L28.3155 69H27.5015L27.5345 67.35L27.5015 63.522L29.3715 63.511ZM29.2285 66.47C29.9545 66.3453 30.3175 65.9237 30.3175 65.205C30.3175 64.8603 30.2185 64.6037 30.0205 64.435C29.8298 64.2663 29.5402 64.1747 29.1515 64.16L28.3155 64.171L28.3045 66.448L29.2285 66.47ZM35.8296 67.35L35.8736 69H35.0266L35.0486 67.284V67.02H34.0366C33.6553 67.68 33.23 68.3437 32.7606 69.011L32.6616 69.077C32.383 69.055 32.1153 68.9963 31.8586 68.901L31.8476 68.802C32.383 68.1713 32.8926 67.5187 33.3766 66.844C32.988 66.6827 32.691 66.4663 32.4856 66.195C32.2803 65.9237 32.1776 65.6047 32.1776 65.238C32.1776 64.71 32.361 64.2883 32.7276 63.973C33.1016 63.6503 33.5856 63.489 34.1796 63.489L35.8736 63.5L35.8296 67.35ZM35.0376 66.327L35.0266 64.182L34.2126 64.149C33.8533 64.1563 33.571 64.2517 33.3656 64.435C33.1603 64.6183 33.0576 64.8823 33.0576 65.227C33.0576 65.8283 33.384 66.206 34.0366 66.36L35.0376 66.327ZM37.8887 69.077C37.654 69.0477 37.39 68.9963 37.0967 68.923L37.0857 68.824C37.8924 67.9587 38.6587 67.0457 39.3847 66.085L37.2397 63.5H38.1637L38.5047 63.995L40.2317 66.063V66.118C39.6377 66.9907 38.8934 67.9623 37.9987 69.033L37.8887 69.077ZM40.3307 67.35L40.2977 63.5H41.1337L41.1007 67.284L41.1337 69H40.2977L40.3307 67.35ZM43.4327 69.033C42.6114 68.0577 41.8634 67.086 41.1887 66.118V66.063L42.9267 63.995L43.2677 63.5H44.1917L42.0467 66.085C42.7214 66.987 43.4877 67.9 44.3457 68.824L44.3347 68.923C44.0634 68.9963 43.7957 69.0477 43.5317 69.077L43.4327 69.033ZM48.9139 68.296L48.9799 68.362L48.9029 69H45.5699L45.6029 67.35L45.5699 63.522H48.9249L48.9799 63.588L48.9139 64.226L47.5279 64.182L46.3839 64.193L46.3729 65.854L47.4619 65.865L48.4189 65.832L48.4739 65.909L48.4079 66.558L47.3959 66.525L46.3729 66.536L46.3619 67.284L46.3729 68.329L47.4509 68.34L48.9139 68.296ZM55.1727 67.284L55.1947 69H54.3807L54.4137 67.35L54.4027 66.602L51.4217 66.613L51.4107 67.284L51.4327 69H50.6187L50.6517 67.35L50.6187 63.522H51.4437L51.4217 65.876L52.9067 65.887L54.4027 65.876L54.3807 63.522H55.2057L55.1727 67.284ZM57.2796 67.35L57.2356 63.533L58.0936 63.478L58.0386 67.68H58.1156L60.9646 63.5H61.8666L61.8226 67.284L61.8556 69H61.0086L61.0416 67.35V64.82H60.9756L58.1046 69H57.2356L57.2796 67.35ZM67.2508 68.296L67.3168 68.362L67.2398 69H63.9068L63.9398 67.35L63.9068 63.522H67.2618L67.3168 63.588L67.2508 64.226L65.8648 64.182L64.7208 64.193L64.7098 65.854L65.7988 65.865L66.7558 65.832L66.8108 65.909L66.7448 66.558L65.7328 66.525L64.7098 66.536L64.6988 67.284L64.7098 68.329L65.7878 68.34L67.2508 68.296Z" fill="#FDF9F5"/>
<path d="M36.9509 10.5461C50.4903 10.5461 61.4649 21.5221 61.4649 35.0615C61.4649 48.6009 50.4903 59.5769 36.9509 59.5769C23.4115 59.5769 12.4355 48.6009 12.4355 35.0615C12.4355 21.5221 23.4115 10.5461 36.9509 10.5461Z" fill="url(#paint1_linear_191_55)"/>
<path d="M18.8279 22.8704C22.2467 23.9246 25.5129 25.473 28.4921 27.4526C29.5757 28.1722 30.6369 28.9576 31.8563 29.414" stroke="#1D1D1B" stroke-width="0.75" stroke-miterlimit="10" stroke-linecap="round"/>
<path d="M38.2671 30.1238C38.4841 29.736 38.8579 29.4658 39.2205 29.2082C42.8647 26.614 46.5341 24.0534 50.2245 21.5264" stroke="#1D1D1B" stroke-width="0.75" stroke-miterlimit="10" stroke-linecap="round"/>
<path d="M25.3409 39.7082C29.5208 39.7082 32.9093 37.3395 32.9093 34.4176C32.9093 31.4956 29.5208 29.127 25.3409 29.127C21.1609 29.127 17.7725 31.4956 17.7725 34.4176C17.7725 37.3395 21.1609 39.7082 25.3409 39.7082Z" fill="#FBF1D0"/>
<path d="M45.8355 39.7082C50.0154 39.7082 53.4039 37.3307 53.4039 34.398C53.4039 31.4652 50.0154 29.0878 45.8355 29.0878C41.6556 29.0878 38.2671 31.4652 38.2671 34.398C38.2671 37.3307 41.6556 39.7082 45.8355 39.7082Z" fill="#FBF1D0"/>
<path d="M31.7668 45.5826C32.4332 45.0856 33.3362 45.0828 34.1664 45.1318C36.7172 45.2844 39.2512 45.7296 41.6998 46.459" stroke="#1D1D1B" stroke-width="0.75" stroke-miterlimit="10" stroke-linecap="round"/>
<path d="M27.8383 39.4366C29.6878 39.4366 31.1871 38.1398 31.1871 36.54C31.1871 34.9403 29.6878 33.6434 27.8383 33.6434C25.9888 33.6434 24.4895 34.9403 24.4895 36.54C24.4895 38.1398 25.9888 39.4366 27.8383 39.4366Z" fill="#1D1D1B" stroke="#1D1D1B" stroke-miterlimit="10"/>
<path d="M43.9635 39.4366C45.813 39.4366 47.3123 38.1398 47.3123 36.54C47.3123 34.9403 45.813 33.6434 43.9635 33.6434C42.1141 33.6434 40.6147 34.9403 40.6147 36.54C40.6147 38.1398 42.1141 39.4366 43.9635 39.4366Z" fill="#1D1D1B" stroke="#1D1D1B" stroke-miterlimit="10"/>
<path d="M18.7552 37.0818C18.5536 36.8004 17.5414 35.329 17.9362 33.4894C18.3016 31.787 19.6316 30.8868 20.1902 30.5074C21.0778 29.9068 21.964 29.6786 22.7676 29.4728C23.8302 29.1998 24.673 29.1564 24.8928 29.1424C26.6232 29.0374 28.376 29.4364 29.9104 30.247C30.3598 30.4836 30.9772 30.8504 31.5988 31.5308C32.0412 32.0138 32.7202 32.7572 32.8784 33.9136C33.0534 35.1904 32.4878 36.19 32.268 36.5386" stroke="#1D1D1B" stroke-width="0.75" stroke-linecap="round" stroke-linejoin="round"/>
<path d="M38.9068 36.7878C38.6968 36.442 38.1424 35.4312 38.2796 34.0844C38.4042 32.8706 39.0202 32.0712 39.2624 31.7646C39.4514 31.5266 39.8826 31.0296 40.8738 30.4486C42.8968 29.2642 44.8848 29.12 45.3132 29.0948C47.6582 28.9576 49.39 29.6912 49.908 29.9278C51.4536 30.6348 52.1886 31.5014 52.3552 31.7044C52.5974 31.9998 52.946 32.4324 53.1742 33.1044C53.5578 34.2398 53.3156 35.2324 53.2106 35.5866C52.8466 36.8116 52.0276 37.4976 51.7336 37.723" stroke="#1D1D1B" stroke-width="0.75" stroke-linecap="round" stroke-linejoin="round"/>
<defs>
<linearGradient id="paint0_linear_191_55" x1="37" y1="2" x2="37" y2="81" gradientUnits="userSpaceOnUse">
<stop offset="0.216346" stop-color="#32302F"/>
<stop offset="1" stop-color="#F39955"/>
</linearGradient>
<linearGradient id="paint1_linear_191_55" x1="36.9495" y1="35.0615" x2="36.9495" y2="-13.9693" gradientUnits="userSpaceOnUse">
<stop stop-color="#DFCB67"/>
<stop offset="0.49" stop-color="#2C336C"/>
</linearGradient>
</defs>
</svg>
