<svg width="74" height="82" viewBox="0 0 74 82" fill="none" xmlns="http://www.w3.org/2000/svg">
<rect y="3" width="74" height="79" rx="11" fill="url(#paint0_linear_191_54)"/>
<path d="M6.9361 65.93C7.63276 65.93 8.16076 66.0913 8.5201 66.414C8.88676 66.7293 9.0701 67.1877 9.0701 67.789C9.0701 68.5003 8.82443 69.0467 8.3331 69.428C7.84176 69.8093 7.13776 70 6.2211 70H4.5271L4.5711 67.877L4.5271 62.949H8.7511L8.8061 63.037L8.7401 63.686L7.0241 63.664H5.4071L5.3851 65.93H6.9361ZM6.6061 69.373C7.11943 69.3217 7.50443 69.1713 7.7611 68.922C8.0251 68.6653 8.1571 68.3207 8.1571 67.888C8.1571 67.4627 8.02876 67.1363 7.7721 66.909C7.52276 66.6817 7.1561 66.568 6.6721 66.568L5.3851 66.579L5.3741 67.8L5.3961 69.34L6.6061 69.373ZM14.012 69.296L14.078 69.362L14.001 70H10.668L10.701 68.35L10.668 64.522H14.023L14.078 64.588L14.012 65.226L12.626 65.182L11.482 65.193L11.471 66.854L12.56 66.865L13.517 66.832L13.572 66.909L13.506 67.558L12.494 67.525L11.471 67.536L11.46 68.284L11.471 69.329L12.549 69.34L14.012 69.296ZM17.657 64.467C18.2656 64.467 18.7936 64.5953 19.241 64.852L19.087 65.611L18.988 65.644C18.8046 65.49 18.592 65.369 18.35 65.281C18.108 65.193 17.8476 65.149 17.569 65.149C17.0263 65.149 16.612 65.325 16.326 65.677C16.04 66.0217 15.897 66.5387 15.897 67.228C15.897 67.9247 16.04 68.4563 16.326 68.823C16.612 69.1897 17.0263 69.373 17.569 69.373C17.833 69.373 18.097 69.329 18.361 69.241C18.6323 69.1457 18.8743 69.021 19.087 68.867L19.186 68.9L19.109 69.659C18.6103 69.9303 18.086 70.066 17.536 70.066C16.7293 70.066 16.1096 69.8277 15.677 69.351C15.2443 68.867 15.028 68.1813 15.028 67.294C15.028 66.392 15.2553 65.6953 15.71 65.204C16.172 64.7127 16.821 64.467 17.657 64.467ZM24.9022 68.284L24.9352 70H24.0992L24.1212 68.35L24.0992 65.171H21.5802L21.5582 68.284L21.5802 70H20.7442L20.7772 68.35L20.7442 64.5H24.9462L24.9022 68.284ZM28.9258 64.456C29.7251 64.456 30.3375 64.6907 30.7628 65.16C31.1955 65.6293 31.4118 66.293 31.4118 67.151C31.4118 68.0823 31.1808 68.8047 30.7188 69.318C30.2641 69.824 29.6115 70.077 28.7608 70.077C27.9688 70.077 27.3565 69.8387 26.9238 69.362C26.4911 68.878 26.2748 68.1923 26.2748 67.305C26.2748 66.3957 26.5058 65.6953 26.9678 65.204C27.4298 64.7053 28.0825 64.456 28.9258 64.456ZM28.8488 65.149C28.2695 65.149 27.8368 65.314 27.5508 65.644C27.2721 65.974 27.1328 66.4947 27.1328 67.206C27.1328 67.9687 27.2721 68.5223 27.5508 68.867C27.8295 69.2117 28.2548 69.384 28.8268 69.384C29.4135 69.384 29.8498 69.2153 30.1358 68.878C30.4218 68.5407 30.5648 68.0127 30.5648 67.294C30.5648 66.5533 30.4218 66.0107 30.1358 65.666C29.8571 65.3213 29.4281 65.149 28.8488 65.149ZM34.7183 67.085C35.4956 68.0383 36.3206 68.9477 37.1933 69.813L37.1713 69.934C36.944 70.0073 36.68 70.0623 36.3793 70.099L36.2473 70.044C35.3086 68.988 34.4983 68.02 33.8163 67.14V67.074L35.7083 65.006L36.0713 64.522L37.0503 64.511L34.7183 67.085ZM33.7283 68.284L33.7503 70H32.9363L32.9693 68.35L32.9363 64.522H33.7613L33.7283 68.284ZM40.2803 64.456C41.0796 64.456 41.6919 64.6907 42.1173 65.16C42.5499 65.6293 42.7663 66.293 42.7663 67.151C42.7663 68.0823 42.5353 68.8047 42.0733 69.318C41.6186 69.824 40.9659 70.077 40.1153 70.077C39.3233 70.077 38.7109 69.8387 38.2783 69.362C37.8456 68.878 37.6293 68.1923 37.6293 67.305C37.6293 66.3957 37.8603 65.6953 38.3223 65.204C38.7843 64.7053 39.4369 64.456 40.2803 64.456ZM40.2033 65.149C39.6239 65.149 39.1913 65.314 38.9053 65.644C38.6266 65.974 38.4873 66.4947 38.4873 67.206C38.4873 67.9687 38.6266 68.5223 38.9053 68.867C39.1839 69.2117 39.6093 69.384 40.1813 69.384C40.7679 69.384 41.2043 69.2153 41.4903 68.878C41.7763 68.5407 41.9193 68.0127 41.9193 67.294C41.9193 66.5533 41.7763 66.0107 41.4903 65.666C41.2116 65.3213 40.7826 65.149 40.2033 65.149ZM48.1518 62.74C48.0345 63.048 47.8365 63.2863 47.5578 63.455C47.2791 63.6163 46.9528 63.697 46.5788 63.697C46.2048 63.697 45.8858 63.6163 45.6218 63.455C45.3578 63.2937 45.1635 63.0553 45.0388 62.74L45.4788 62.432H45.5998C45.6731 62.6813 45.7905 62.8647 45.9518 62.982C46.1131 63.092 46.3295 63.147 46.6008 63.147C46.8721 63.147 47.0848 63.092 47.2388 62.982C47.4001 62.8647 47.5211 62.6813 47.6018 62.432H47.7118L48.1518 62.74ZM44.3348 68.35L44.2908 64.533L45.1488 64.478L45.0938 68.68H45.1708L48.0198 64.5H48.9218L48.8778 68.284L48.9108 70H48.0638L48.0968 68.35V65.82H48.0308L45.1598 70H44.2908L44.3348 68.35ZM52.8913 64.467C53.5 64.467 54.028 64.5953 54.4753 64.852L54.3213 65.611L54.2223 65.644C54.039 65.49 53.8263 65.369 53.5843 65.281C53.3423 65.193 53.082 65.149 52.8033 65.149C52.2607 65.149 51.8463 65.325 51.5603 65.677C51.2743 66.0217 51.1313 66.5387 51.1313 67.228C51.1313 67.9247 51.2743 68.4563 51.5603 68.823C51.8463 69.1897 52.2607 69.373 52.8033 69.373C53.0673 69.373 53.3313 69.329 53.5953 69.241C53.8667 69.1457 54.1087 69.021 54.3213 68.867L54.4203 68.9L54.3433 69.659C53.8447 69.9303 53.3203 70.066 52.7703 70.066C51.9637 70.066 51.344 69.8277 50.9113 69.351C50.4787 68.867 50.2623 68.1813 50.2623 67.294C50.2623 66.392 50.4897 65.6953 50.9443 65.204C51.4063 64.7127 52.0553 64.467 52.8913 64.467ZM59.1246 64.588L59.0696 65.281L58.0466 65.204H57.4966L57.4636 68.284L57.4966 70H56.6716L56.7046 68.35L56.6826 65.204H56.1326L55.0876 65.281L55.0216 65.204L55.0876 64.522H59.0806L59.1246 64.588ZM62.774 67.151C63.588 67.3123 63.995 67.745 63.995 68.449C63.995 68.977 63.7897 69.373 63.379 69.637C62.9683 69.901 62.367 70.033 61.575 70.033C61.0983 70.033 60.64 70.022 60.2 70L60.233 68.35L60.2 64.522L61.916 64.511C62.466 64.511 62.8913 64.6283 63.192 64.863C63.5 65.0903 63.654 65.4167 63.654 65.842C63.654 66.1573 63.577 66.425 63.423 66.645C63.269 66.865 63.0527 67.0337 62.774 67.151ZM62.785 65.941C62.785 65.6697 62.697 65.4717 62.521 65.347C62.345 65.2223 62.0627 65.16 61.674 65.16H61.003L60.992 66.854L61.971 66.887C62.2423 66.8283 62.444 66.7257 62.576 66.579C62.7153 66.425 62.785 66.2123 62.785 65.941ZM61.674 69.406C62.1507 69.406 62.5137 69.3253 62.763 69.164C63.0197 68.9953 63.148 68.7497 63.148 68.427C63.148 68.163 63.06 67.9577 62.884 67.811C62.708 67.6643 62.4403 67.5653 62.081 67.514L60.992 67.525L60.981 68.284L61.003 69.373C61.2303 69.395 61.454 69.406 61.674 69.406ZM67.6514 64.456C68.4507 64.456 69.063 64.6907 69.4884 65.16C69.921 65.6293 70.1374 66.293 70.1374 67.151C70.1374 68.0823 69.9064 68.8047 69.4444 69.318C68.9897 69.824 68.337 70.077 67.4864 70.077C66.6944 70.077 66.082 69.8387 65.6494 69.362C65.2167 68.878 65.0004 68.1923 65.0004 67.305C65.0004 66.3957 65.2314 65.6953 65.6934 65.204C66.1554 64.7053 66.808 64.456 67.6514 64.456ZM67.5744 65.149C66.995 65.149 66.5624 65.314 66.2764 65.644C65.9977 65.974 65.8584 66.4947 65.8584 67.206C65.8584 67.9687 65.9977 68.5223 66.2764 68.867C66.555 69.2117 66.9804 69.384 67.5524 69.384C68.139 69.384 68.5754 69.2153 68.8614 68.878C69.1474 68.5407 69.2904 68.0127 69.2904 67.294C69.2904 66.5533 69.1474 66.0107 68.8614 65.666C68.5827 65.3213 68.1537 65.149 67.5744 65.149Z" fill="#FDF9F5"/>
<path d="M61.4649 35.0615C61.4649 48.6009 50.4903 59.5769 36.9509 59.5769C23.4115 59.5769 12.4355 48.6009 12.4355 35.0615C12.4355 21.5221 23.4115 10.5461 36.9509 10.5461C50.4903 10.5461 61.4649 21.5221 61.4649 35.0615Z" fill="#DFCB67"/>
<path d="M19.3025 23.6782C20.7193 24.7016 22.5029 25.0362 24.2235 25.3442C27.3329 25.9014 30.4479 26.4586 33.5993 26.6784" stroke="#1D1D1B" stroke-width="0.75" stroke-miterlimit="10" stroke-linecap="round"/>
<path d="M39.0972 27.1586C44.1008 26.8842 49.0414 25.522 53.478 23.1938" stroke="#1D1D1B" stroke-width="0.75" stroke-miterlimit="10" stroke-linecap="round"/>
<path d="M25.7608 39.6313C29.8472 39.6313 33.1598 37.183 33.1598 34.1629C33.1598 31.1427 29.8472 28.6945 25.7608 28.6945C21.6745 28.6945 18.3618 31.1427 18.3618 34.1629C18.3618 37.183 21.6745 39.6313 25.7608 39.6313Z" fill="#FBF1D0"/>
<path d="M46.0509 40.2752C50.3027 40.2752 53.7495 37.7799 53.7495 34.7018C53.7495 31.6237 50.3027 29.1284 46.0509 29.1284C41.7991 29.1284 38.3523 31.6237 38.3523 34.7018C38.3523 37.7799 41.7991 40.2752 46.0509 40.2752Z" fill="#FBF1D0"/>
<path d="M23.5515 46.5724C26.2759 45.577 29.3517 45.255 32.0663 46.2756C33.1093 46.6676 34.0725 47.2458 34.9993 47.8632C35.6013 48.2636 36.1907 48.6822 36.7675 49.1176" stroke="#1D1D1B" stroke-width="0.75" stroke-miterlimit="10" stroke-linecap="round"/>
<path d="M30.0954 37.9412C31.8049 37.9412 33.1908 36.3874 33.1908 34.4706C33.1908 32.5538 31.8049 31 30.0954 31C28.3859 31 27 32.5538 27 34.4706C27 36.3874 28.3859 37.9412 30.0954 37.9412Z" fill="#1D1D1B" stroke="#1D1D1B" stroke-miterlimit="10"/>
<path d="M50.0954 38.9412C51.8049 38.9412 53.1908 37.3874 53.1908 35.4706C53.1908 33.5538 51.8049 32 50.0954 32C48.3859 32 47 33.5538 47 35.4706C47 37.3874 48.3859 38.9412 50.0954 38.9412Z" fill="#1D1D1B" stroke="#1D1D1B" stroke-miterlimit="10"/>
<path d="M18.4177 33.4404C18.5815 32.9 18.9245 32.0152 19.6679 31.15C20.4925 30.191 21.3871 29.7444 21.8673 29.512C21.8673 29.512 25.7243 27.6402 30.0629 29.8368C30.7335 30.1756 31.2417 30.6222 31.2417 30.6222C31.5875 30.9302 31.8787 31.2914 32.1559 31.661C32.8153 32.5444 33.4201 33.6 33.2409 34.6878" stroke="#1D1D1B" stroke-width="0.75" stroke-miterlimit="10" stroke-linecap="round"/>
<path d="M38.2936 35.805C38.2376 35.2842 38.2166 34.4428 38.5344 33.4992C39.177 31.5882 40.7408 30.653 41.3036 30.317C42.7022 29.4812 44.0154 29.3706 45.5554 29.2432C46.6334 29.1536 47.402 29.2278 47.8444 29.2866C48.459 29.3692 49.0624 29.519 49.6518 29.7122C50.1796 29.8844 50.7004 30.0944 51.1582 30.4094C51.6174 30.7258 52.001 31.1402 52.3524 31.5742C52.8438 32.1832 53.2834 32.8482 53.5284 33.5916C53.828 34.4946 53.6698 35.3374 53.527 35.8918" stroke="#1D1D1B" stroke-width="0.75" stroke-miterlimit="10" stroke-linecap="round"/>
<defs>
<linearGradient id="paint0_linear_191_54" x1="37" y1="3" x2="37" y2="82" gradientUnits="userSpaceOnUse">
<stop stop-color="#53CF46"/>
<stop offset="1" stop-color="#F39955"/>
</linearGradient>
</defs>
</svg>
