<svg width="50" height="50" viewBox="0 0 50 50" fill="none" xmlns="http://www.w3.org/2000/svg">
<circle cx="25" cy="25" r="24.5" fill="url(#paint0_linear_360_41)" stroke="#917434"/>
<path d="M38.7646 24.888C40.7982 25.4352 41.6574 28.8128 40.6846 32.4352C39.7118 36.0576 37.275 38.552 35.243 38.0048C34.5454 37.8176 33.9854 37.296 33.5918 36.5472C33.8766 35.8704 34.0686 35.0592 34.315 34.2768C34.6366 33.1328 34.9966 31.8496 35.3278 30.664C35.6302 29.5776 35.9358 28.496 36.2318 27.4256C36.4606 26.584 36.6478 25.8624 36.7214 25.2528C37.403 24.8544 38.1054 24.7104 38.7646 24.888Z" fill="#F4F4F4"/>
<path d="M36.6909 24.1632C36.7693 24.4736 36.7709 24.8368 36.7213 25.2528C35.3053 26.08 33.9805 28.0128 33.3229 30.4592C32.6845 32.8384 32.8349 35.112 33.5917 36.5472C33.3053 37.2288 32.9245 37.776 32.2989 38.0256L32.2813 38.032C31.0525 38.4448 29.1437 37.8416 27.8141 37.4592C26.7645 37.096 25.7341 36.7904 25.2669 35.832C24.8493 34.7584 25.3405 33.4688 25.6077 32.3472C26.3421 29.7648 27.1853 26.5728 27.9789 23.968C28.4093 22.6064 28.9837 21.4512 30.5725 21.5328C31.6749 21.5616 33.1021 21.9424 34.2125 22.296C35.2413 22.6656 36.3805 23.016 36.6909 24.1632Z" fill="#F4F4F4"/>
<path d="M36.7213 25.2528C36.6477 25.8624 36.4605 26.584 36.2317 27.4256C35.9357 28.496 35.6301 29.5776 35.3277 30.664C34.9965 31.8496 34.6365 33.1328 34.3149 34.2768C34.0685 35.0592 33.8765 35.8704 33.5917 36.5472C32.8349 35.112 32.6845 32.8384 33.3229 30.4592C33.9805 28.0128 35.3053 26.08 36.7213 25.2528Z" fill="#F4F4F4"/>
<path d="M29.6411 21.5888C29.3515 21.1664 29.0715 20.6768 28.8363 20.112C27.7851 17.592 28.2299 15.0848 28.5979 13.7472C28.3819 14.5504 28.1931 15.6384 28.2555 16.92C28.3643 19.112 29.1547 20.7472 29.6411 21.5888Z" fill="#F4F4F4"/>
<path d="M27.6972 24.3145C27.8241 23.8886 28.5551 21.4989 29.3105 21.2756C29.3659 21.2595 29.5727 21.2097 29.6101 21.0747C29.6492 20.9317 29.4733 20.771 29.4278 20.726C28.7879 20.1056 28.2539 17.6742 28.1986 16.665C28.1872 16.4657 28.6157 16 28.1774 15.757C28.1742 15.4179 28.1839 15.0885 28.1986 15.0387C28.2165 14.976 28.236 15.0547 28.2002 15.0178C28.1563 14.9744 28.0651 15.0322 27.8909 15.0387C27.7753 15.0435 27.6939 15.0226 27.6662 15.0194C26.3947 14.8249 20.231 16.1588 20.231 16.1588C19.2851 16.3629 18.3408 16.5557 17.5415 17.2194C16.7861 17.8445 16.6412 18.489 16.6281 18.6191C16.62 18.6995 16.6363 18.82 16.6184 19.1221C16.6151 19.1832 16.6119 19.2121 16.6281 19.2491C16.69 19.3841 16.9082 19.3841 17.167 19.4371C17.281 19.4596 17.1996 19.4516 17.7189 19.6187C18.4695 19.8598 18.6403 20.3377 19.1157 20.5C19.2053 20.5305 19.9889 20.6368 20.6157 21C20.746 21.0755 23.4659 22.3121 23.1533 23.6588C23.1077 23.8565 22.9693 24.1859 22.4793 24.517C23.0638 25.065 23.2526 25.9617 23.0133 26.7202C22.774 27.4787 22.1472 28.0926 21.4015 28.3964C21.0873 28.5249 20.7438 28.6085 20.485 28.8254C21.0466 29.2143 21.3739 29.9102 21.3136 30.5851C21.2273 31.5462 20.3677 32.0636 20.1838 32.1729C20.1528 32.1922 19.6058 32.5152 19.0197 32.602C18.7023 32.6486 18.4011 32.8125 18.0787 32.8125C18.0624 32.8125 18.0136 32.8125 17.9827 32.8446C17.9176 32.9121 18.0169 33.0391 18.025 33.2143C18.0364 33.4521 17.8736 33.6433 17.7906 33.7414C17.6864 33.8635 17.5724 33.939 17.491 33.984C17.8199 34.0917 18.2985 34.2412 18.8797 34.4003C20.301 34.786 21.0108 34.9804 21.8981 34.9997C21.8981 34.9997 23.6417 35.0399 24.8123 34.2074C24.9311 34.1238 24.993 34.0274 24.993 34.0274C25.0744 33.9005 25.0923 33.7655 25.1216 33.51C25.133 33.4168 25.1379 33.3396 25.1411 33.2898C25.1704 33.1934 25.2144 33.0503 25.2681 32.8736C25.457 32.2436 25.5726 31.8161 25.6898 31.3999C25.8396 30.8632 25.877 30.7507 26.0854 30.0291C26.4729 28.684 26.5787 28.2614 27.1225 26.3265C27.5018 24.9734 27.6255 24.5588 27.6988 24.3113L27.6972 24.3145Z" fill="#EDCB8C"/>
<path d="M36.7214 25.2528C37.403 24.8544 38.1054 24.7104 38.7646 24.888C40.7982 25.4352 41.6574 28.8128 40.6846 32.4352C39.7118 36.0576 37.275 38.552 35.243 38.0048C34.5454 37.8176 33.9854 37.296 33.5918 36.5472" stroke="#1D1D1B" stroke-width="0.75" stroke-miterlimit="10" stroke-linecap="round"/>
<path d="M33.5917 36.5472C33.3053 37.2288 32.9245 37.776 32.2989 38.0256L32.2813 38.032C31.0525 38.4448 29.1437 37.8416 27.8141 37.4592C26.7645 37.096 25.7341 36.7904 25.2669 35.832C24.8493 34.7584 25.3405 33.4688 25.6077 32.3472C26.3421 29.7648 27.1853 26.5728 27.9789 23.968C28.4093 22.6064 28.9837 21.4512 30.5725 21.5328C31.6749 21.5616 33.1021 21.9424 34.2125 22.296C35.2413 22.6656 36.3805 23.016 36.6909 24.1632C36.7693 24.4736 36.7709 24.8368 36.7213 25.2528" stroke="#1D1D1B" stroke-width="0.75" stroke-miterlimit="10" stroke-linecap="round"/>
<path d="M29.6156 21C29.4171 20.5437 29.2252 20.4854 29.0639 19.8753C28.3434 17.1532 28.3635 14.4449 28.6157 13" stroke="#1D1D1B" stroke-width="0.75" stroke-miterlimit="10" stroke-linecap="round"/>
<path d="M23.0044 23.7888C22.9884 23.528 22.8924 23.3024 22.7004 23.0112C22.2412 22.32 21.662 21.9136 21.43 21.7616C21.158 21.5824 20.9196 21.4704 20.4428 21.2464C20.0364 21.0544 19.6828 20.8896 19.214 20.7312C19.0172 20.6656 18.1213 20.064 17.6157 20C17.5901 19.9968 17.2741 19.6152 17.1157 19.5C17.0357 19.4424 16.7533 19.5916 16.6157 19.5C16.4829 19.5784 16.6413 19.4536 16.6157 19.5C16.6141 19.5688 16.6992 19.4507 16.6157 19.5C16.6397 18.876 18.1788 18.0256 19.1148 17.7008C19.3356 17.624 19.8725 17.7128 20.1157 17.5C20.3637 17.284 20.1836 16.88 20.2524 16.6912C19.9564 16.696 19.5308 16.7168 19.0236 16.7936C18.7436 16.8368 18.494 16.888 18.2012 16.96C17.6732 17.088 16.782 17.3344 15.3052 17.9184C14.7164 18.1504 14.4236 18.2672 14.1708 18.3904C13.358 18.7904 12.5692 19.1872 12.1708 19.9424C11.9676 20.3264 11.8668 20.7744 11.8668 20.7744C11.8476 20.8608 11.7868 21.136 11.7852 21.4256C11.7804 22.248 12.2492 22.8832 12.3308 22.9904C12.4284 23.1184 12.6428 23.3728 14.046 24.0416C15.2364 24.6096 15.8396 24.8464 16.4124 24.9552C16.9884 25.064 17.582 25.0656 18.158 25.1776C18.518 25.248 18.8732 25.3616 19.2396 25.3792C19.5644 25.3952 19.5964 25.344 20.3724 25.224C21.4492 25.056 21.782 25.1296 22.342 24.8448C22.5964 24.7152 22.7932 24.5664 22.9068 24.3328C23.0188 24.104 23.0076 23.8848 23.0012 23.7872L23.0044 23.7888Z" fill="#EDCB8C"/>
<path d="M20.3405 29.2528C21.0557 29.8784 21.4285 30.5808 21.3085 31.2528C21.1229 32.3056 19.7837 33.0112 17.9613 33.1792C17.5981 32.3728 16.1613 31.576 14.3501 31.2544C13.0877 31.0304 11.9181 31.0848 11.1133 31.3536C10.3181 30.704 9.89571 29.96 10.0221 29.2496C10.1517 28.52 10.8365 27.9552 11.8541 27.6224C12.8925 28.4992 14.4829 29.1856 16.3261 29.4528C17.8029 29.6672 19.2029 29.5776 20.3405 29.2528Z" fill="#EDCB8C"/>
<path d="M22.4062 24.9184C22.3918 24.9248 22.379 24.9328 22.3646 24.9392C20.003 26.1552 17.0926 25.8208 14.643 24.7904C13.995 24.5184 13.3582 24.1936 12.843 23.7168C12.6382 23.5264 12.4526 23.3136 12.2974 23.0832C13.555 22.4592 15.3774 22.2096 17.3374 22.4944C19.5806 22.8192 21.4526 23.7664 22.4062 24.9184Z" fill="#EDCB8C"/>
<path d="M17.9613 33.1792C17.1133 33.2576 16.1597 33.2192 15.1693 33.0432C13.4893 32.7456 12.0445 32.1136 11.1133 31.3536C11.9181 31.0848 13.0877 31.0304 14.3501 31.2544C16.1613 31.576 17.5981 32.3728 17.9613 33.1792Z" fill="#EDCB8C"/>
<path d="M17.9611 33.1791C18.0443 33.3567 18.0715 33.5343 18.0411 33.7087C17.8699 34.6719 15.9403 35.1343 13.7307 34.7423C11.5211 34.3503 9.86833 33.2511 10.0395 32.2879C10.1131 31.8751 10.5099 31.5535 11.1131 31.3535C12.0443 32.1135 13.4891 32.7455 15.1691 33.0431C16.1595 33.2191 17.1131 33.2575 17.9611 33.1791Z" fill="#EDCB8C"/>
<path d="M20.3404 29.2528C19.2028 29.5776 17.8028 29.6672 16.326 29.4528C14.4828 29.1856 12.8924 28.4992 11.854 27.6224C12.9836 27.2528 14.5212 27.1696 16.1596 27.4608C17.9164 27.7712 19.4156 28.4464 20.3404 29.2528Z" fill="#EDCB8C"/>
<path d="M22.406 24.9183C22.9164 25.5343 23.1644 26.2095 23.0668 26.8783C22.9068 27.9743 21.8556 28.8207 20.3404 29.2527C19.4156 28.4463 17.9164 27.7711 16.1596 27.4607C14.5212 27.1695 12.9836 27.2527 11.854 27.6223C10.9516 26.8623 10.4668 25.9599 10.5964 25.0671C10.7164 24.2399 11.3452 23.5535 12.2972 23.0831C12.4524 23.3135 12.638 23.5263 12.8428 23.7167C13.358 24.1935 13.9948 24.5183 14.6428 24.7903C17.0924 25.8207 20.0028 26.1551 22.3644 24.9391C22.3788 24.9327 22.3916 24.9247 22.406 24.9183Z" fill="#EDCB8C"/>
<path d="M20.6157 16.4999C20.6157 16 17.1551 17.0704 15.5839 17.6736C14.4063 18.1248 13.2015 18.6576 12.3903 19.6192C12.0415 20.032 11.7727 20.5264 11.7071 21.0624C11.6495 21.5456 11.7599 22.0368 11.9583 22.4816C12.0511 22.6912 12.1647 22.8928 12.2975 23.0832C12.4527 23.3136 12.6383 23.5264 12.8431 23.7168C13.3583 24.1936 13.9951 24.5184 14.6431 24.7904C17.0927 25.8208 20.0031 26.1552 22.3647 24.9392C22.3791 24.9328 22.3919 24.9248 22.4063 24.9184C22.6207 24.8032 22.8335 24.6672 22.9615 24.4608C23.2047 24.0672 23.0623 23.5472 22.8335 23.144C22.0655 21.7824 20.5135 21.072 19.0255 20.5728C18.2447 20.3104 17.4237 19.6648 16.6157 19.5" stroke="#1D1D1B" stroke-width="0.75" stroke-miterlimit="10" stroke-linecap="round"/>
<path d="M22.406 24.9183C22.9164 25.5343 23.1644 26.2095 23.0668 26.8783C22.9068 27.9743 21.8556 28.8207 20.3404 29.2527C19.2028 29.5775 17.8028 29.6671 16.326 29.4527C14.4828 29.1855 12.8924 28.4991 11.854 27.6223C10.9516 26.8623 10.4668 25.9599 10.5964 25.0671C10.7164 24.2399 11.3452 23.5535 12.2972 23.0831" stroke="#1D1D1B" stroke-width="0.75" stroke-miterlimit="10" stroke-linecap="round"/>
<path d="M20.3405 29.2528C21.0557 29.8784 21.4285 30.5808 21.3085 31.2528C21.1229 32.3056 19.7837 33.0112 17.9613 33.1792C17.1133 33.2576 16.1597 33.2192 15.1693 33.0432C13.4893 32.7456 12.0445 32.1136 11.1133 31.3536C10.3181 30.704 9.89571 29.96 10.0221 29.2496C10.1517 28.52 10.8365 27.9552 11.8541 27.6224" stroke="#1D1D1B" stroke-width="0.75" stroke-miterlimit="10" stroke-linecap="round"/>
<path d="M17.9611 33.1792C18.0443 33.3568 18.0715 33.5344 18.0411 33.7088C17.8699 34.672 15.9403 35.1344 13.7307 34.7424C11.5211 34.3504 9.86833 33.2512 10.0395 32.288C10.1131 31.8752 10.5099 31.5536 11.1131 31.3536" stroke="#1D1D1B" stroke-width="0.75" stroke-miterlimit="10" stroke-linecap="round"/>
<path d="M17.3247 34.4832C18.6063 34.9552 19.9039 35.4288 21.2495 35.5504C22.5951 35.672 24.0143 35.4096 25.1055 34.52" fill="#EDCB8C"/>
<path d="M17.4543 34.1313C17.26 34.0597 17.0444 34.1592 16.9728 34.3536C16.9012 34.5479 17.0008 34.7635 17.1951 34.835L17.3247 34.4832L17.4543 34.1313ZM17.3247 34.4832L17.1951 34.835C18.469 35.3042 19.8127 35.797 21.2158 35.9238L21.2495 35.5504L21.2833 35.1769C19.9951 35.0605 18.7436 34.6061 17.4543 34.1313L17.3247 34.4832ZM21.2495 35.5504L21.2158 35.9238C22.6264 36.0513 24.1533 35.7801 25.3425 34.8106L25.1055 34.52L24.8686 34.2293C23.8753 35.039 22.5638 35.2926 21.2833 35.1769L21.2495 35.5504Z" fill="#1D1D1B"/>
<path d="M28.3618 16.8537C28.4151 15.6767 28.4927 13.7018 28.5977 12.5282C28.6608 11.8151 28.5525 11.0953 28.3618 10.4078C28.1404 9.60951 27.8027 8.83507 27.2823 8.20903C26.762 7.583 26.0461 7.11731 25.264 7.02008C24.275 6.89555 23.2877 7.36465 22.5169 8.02992C21.3049 9.07559 20.5147 10.6023 20.1511 12.2075C19.7875 13.8127 19.4537 15.3692 19.7009 17" fill="#EDCB8C"/>
<path d="M28.5977 12.5282L28.9712 12.5616L28.9713 12.5612L28.5977 12.5282ZM28.3618 10.4078L28.0004 10.508L28.0005 10.5081L28.3618 10.4078ZM25.264 7.02008L25.2172 7.39214L25.2177 7.39221L25.264 7.02008ZM22.5169 8.02992L22.7619 8.31385L22.7619 8.31381L22.5169 8.02992ZM19.3302 17.0562C19.3612 17.261 19.5524 17.4018 19.7572 17.3708C19.9619 17.3397 20.1028 17.1486 20.0717 16.9438L19.7009 17L19.3302 17.0562ZM28.3618 16.8537L28.7364 16.8706C28.7901 15.6868 28.8672 13.7245 28.9712 12.5616L28.5977 12.5282L28.2242 12.4947C28.1182 13.6791 28.0402 15.6665 27.9872 16.8367L28.3618 16.8537ZM28.5977 12.5282L28.9713 12.5612C29.0395 11.7897 28.9215 11.0228 28.7232 10.3076L28.3618 10.4078L28.0005 10.5081C28.1834 11.1677 28.282 11.8406 28.2242 12.4952L28.5977 12.5282ZM28.3618 10.4078L28.7232 10.3076C28.4931 9.47808 28.1361 8.64954 27.5707 7.96933L27.2823 8.20903L26.994 8.44873C27.4693 9.0206 27.7877 9.74095 28.0004 10.508L28.3618 10.4078ZM27.2823 8.20903L27.5707 7.96933C27.0053 7.28904 26.209 6.75967 25.3103 6.64794L25.264 7.02008L25.2177 7.39221C25.8832 7.47494 26.5187 7.87695 26.994 8.44873L27.2823 8.20903ZM25.264 7.02008L25.3109 6.64801C24.1754 6.50504 23.0852 7.04406 22.2719 7.74604L22.5169 8.02992L22.7619 8.31381C23.4902 7.68524 24.3747 7.28606 25.2172 7.39214L25.264 7.02008ZM22.5169 8.02992L22.2719 7.74599C20.9858 8.8556 20.1623 10.4604 19.7854 12.1246L20.1511 12.2075L20.5169 12.2903C20.8671 10.7442 21.624 9.29558 22.7619 8.31385L22.5169 8.02992ZM20.1511 12.2075L19.7854 12.1246C19.4234 13.7226 19.0708 15.3456 19.3302 17.0562L19.7009 17L20.0717 16.9438C19.8366 15.3928 20.1516 13.9027 20.5169 12.2903L20.1511 12.2075Z" fill="#1D1D1B"/>
<path d="M30.4845 36.7376C30.9643 36.7376 31.3533 36.3486 31.3533 35.8688C31.3533 35.389 30.9643 35 30.4845 35C30.0047 35 29.6157 35.389 29.6157 35.8688C29.6157 36.3486 30.0047 36.7376 30.4845 36.7376Z" fill="#1D1D1B" stroke="#1D1D1B" stroke-miterlimit="10"/>
<defs>
<linearGradient id="paint0_linear_360_41" x1="-2.74777e-07" y1="8.5" x2="21.5" y2="50" gradientUnits="userSpaceOnUse">
<stop stop-color="#EBE86A"/>
<stop offset="1" stop-color="#CEAC46"/>
</linearGradient>
</defs>
</svg>
