<svg width="58" height="61" viewBox="0 0 58 61" fill="none" xmlns="http://www.w3.org/2000/svg">
<rect width="58" height="61" rx="9" fill="#F8F0E9"/>
<rect x="11" y="8" width="35" height="32.9005" rx="11" fill="#F8F0E9" stroke="#F39955" stroke-width="2"/>
<rect x="16.7832" y="14.5169" width="23.4333" height="21.4772" rx="6" fill="#F39955"/>
<path d="M5.15632 51.8L5.18932 54H4.32032L4.35332 51.877L4.32032 46.949H5.20032L5.15632 51.8ZM6.24532 50.26C7.22066 51.5213 8.23999 52.7057 9.30332 53.813L9.29232 53.923C9.07232 53.989 8.79732 54.0477 8.46732 54.099L8.35732 54.044C7.19866 52.7313 6.18666 51.4847 5.32132 50.304V50.238L7.67532 47.565L8.11532 46.949H9.10532L6.24532 50.26ZM14.6719 54H13.8469L13.7149 53.406L13.4289 52.592L12.1199 52.581L10.9539 52.592L10.6569 53.362L10.5029 54H9.68893L11.8009 48.522H12.7469L14.6719 54ZM13.1979 51.921L12.2849 49.325H12.2189L11.2179 51.921L12.1859 51.932L13.1979 51.921ZM19.4163 52.284L19.4383 54H18.6023L18.6353 52.35L18.6133 49.16H17.1833L17.1393 49.6C17.0293 50.722 16.9046 51.5947 16.7653 52.218C16.6259 52.8413 16.4499 53.296 16.2373 53.582C16.0246 53.868 15.7459 54.0403 15.4013 54.099L15.1593 54.132L14.9943 53.428C15.2876 53.34 15.5186 53.1677 15.6873 52.911C15.8633 52.6543 16.0026 52.262 16.1053 51.734C16.2153 51.1987 16.3143 50.436 16.4023 49.446L16.4903 48.522L16.4793 48.5H19.4603L19.4163 52.284ZM24.8372 53.296L24.9032 53.362L24.8262 54H21.4932L21.5262 52.35L21.4932 48.522H24.8482L24.9032 48.588L24.8372 49.226L23.4512 49.182L22.3072 49.193L22.2962 50.854L23.3852 50.865L24.3422 50.832L24.3972 50.909L24.3312 51.558L23.3192 51.525L22.2962 51.536L22.2852 52.284L22.2962 53.329L23.3742 53.34L24.8372 53.296ZM31.096 52.284L31.118 54H30.304L30.337 52.35L30.326 51.602L27.345 51.613L27.334 52.284L27.356 54H26.542L26.575 52.35L26.542 48.522H27.367L27.345 50.876L28.83 50.887L30.326 50.876L30.304 48.522H31.129L31.096 52.284ZM37.713 53.307V55.364L37.097 55.43L36.976 54H33.005L32.884 55.364L32.246 55.43V53.307H32.741C32.983 53.175 33.1773 52.9733 33.324 52.702C33.478 52.4307 33.599 52.0457 33.687 51.547C33.7823 51.041 33.8703 50.3443 33.951 49.457L34.05 48.544L34.039 48.522H36.954L36.91 52.284L36.932 53.307H37.713ZM36.151 52.35L36.118 49.149H34.721L34.677 49.6C34.5743 50.7147 34.446 51.5507 34.292 52.108C34.138 52.658 33.918 53.0577 33.632 53.307H36.129L36.151 52.35ZM43.3321 54H42.5071L42.3751 53.406L42.0891 52.592L40.7801 52.581L39.6141 52.592L39.3171 53.362L39.1631 54H38.3491L40.4611 48.522H41.4071L43.3321 54ZM41.8581 51.921L40.9451 49.325H40.8791L39.8781 51.921L40.8461 51.932L41.8581 51.921ZM46.4374 48.511C47.0168 48.511 47.4604 48.6503 47.7684 48.929C48.0838 49.2077 48.2414 49.611 48.2414 50.139C48.2414 50.755 48.0434 51.239 47.6474 51.591C47.2588 51.9357 46.7198 52.108 46.0304 52.108H45.3594V52.284L45.3814 54H44.5674L44.6004 52.35L44.5674 48.522L46.4374 48.511ZM46.2944 51.47C47.0204 51.3453 47.3834 50.9237 47.3834 50.205C47.3834 49.8603 47.2844 49.6037 47.0864 49.435C46.8958 49.2663 46.6061 49.1747 46.2174 49.16L45.3814 49.171L45.3704 51.448L46.2944 51.47ZM51.6856 50.722C52.2502 50.722 52.6792 50.8503 52.9726 51.107C53.2732 51.3563 53.4236 51.7193 53.4236 52.196C53.4236 52.768 53.2182 53.2117 52.8076 53.527C52.4042 53.8423 51.8322 54 51.0916 54H49.6286L49.6616 52.35L49.6286 48.5H50.4756L50.4536 50.722H51.6856ZM51.3886 53.395C51.7699 53.351 52.0559 53.2373 52.2466 53.054C52.4446 52.8633 52.5436 52.614 52.5436 52.306C52.5436 51.998 52.4446 51.7597 52.2466 51.591C52.0559 51.415 51.7772 51.3307 51.4106 51.338L50.4426 51.349L50.4316 52.284L50.4536 53.362L51.3886 53.395Z" fill="#F39955"/>
<line x1="17.7832" y1="19.4232" x2="39.2165" y2="19.4232" stroke="#C7BEBE" stroke-width="2" stroke-linecap="round"/>
<line x1="23" y1="14.8324" x2="23" y2="14" stroke="#C7BEBE" stroke-width="4" stroke-linecap="round"/>
<line x1="33" y1="14.8324" x2="33" y2="14" stroke="#C7BEBE" stroke-width="4" stroke-linecap="round"/>
<rect x="18.6333" y="21.4971" width="19.7333" height="12.8863" rx="5" fill="#F8F0E9"/>
<rect x="20.4834" y="28.4773" width="5.55" height="4.29545" rx="2" fill="#F39955"/>
</svg>
