<svg width="58" height="61" viewBox="0 0 58 61" fill="none" xmlns="http://www.w3.org/2000/svg">
<rect width="58" height="61" rx="9" fill="#F8F0E9"/>
<rect x="10.5" y="6.58337" width="33.8333" height="32.9167" rx="11.5" fill="#F8F0E9" stroke="#F39955"/>
<ellipse cx="26.4853" cy="23.5846" rx="11.4559" ry="10.162" fill="#F39955"/>
<path d="M26.1926 23.827L30.4469 7.44158L43.417 18.8655L26.1926 23.827Z" fill="#F8F0E9"/>
<path d="M6.1636 45.894C6.90426 45.894 7.54593 46.07 8.0886 46.422L7.9126 47.225L7.8136 47.247C7.32226 46.8363 6.7576 46.631 6.1196 46.631C5.42293 46.631 4.8876 46.873 4.5136 47.357C4.1396 47.8337 3.9526 48.534 3.9526 49.458C3.9526 50.3893 4.1396 51.1007 4.5136 51.592C4.8876 52.0833 5.4156 52.329 6.0976 52.329C6.42026 52.329 6.73926 52.2703 7.0546 52.153C7.37726 52.0357 7.6706 51.8707 7.9346 51.658L8.0446 51.713L7.9676 52.549C7.3296 52.901 6.6806 53.077 6.0206 53.077C5.0746 53.077 4.34126 52.7727 3.8206 52.164C3.29993 51.548 3.0396 50.6717 3.0396 49.535C3.0396 48.369 3.31093 47.4707 3.8536 46.84C4.39626 46.2093 5.16626 45.894 6.1636 45.894ZM12.7584 47.588L12.7034 48.281L11.6804 48.204H11.1304L11.0974 51.284L11.1304 53H10.3054L10.3384 51.35L10.3164 48.204H9.76636L8.72136 48.281L8.65536 48.204L8.72136 47.522H12.7144L12.7584 47.588ZM17.3682 53H16.5432L16.4112 52.406L16.1252 51.592L14.8162 51.581L13.6502 51.592L13.3532 52.362L13.1992 53H12.3852L14.4972 47.522H15.4432L17.3682 53ZM15.8942 50.921L14.9812 48.325H14.9152L13.9142 50.921L14.8822 50.932L15.8942 50.921ZM21.148 47.588L21.093 48.281L20.07 48.204H19.52L19.487 51.284L19.52 53H18.695L18.728 51.35L18.706 48.204H18.156L17.111 48.281L17.045 48.204L17.111 47.522H21.104L21.148 47.588ZM22.2674 51.35L22.2234 47.533L23.0814 47.478L23.0264 51.68H23.1034L25.9524 47.5H26.8544L26.8104 51.284L26.8434 53H25.9964L26.0294 51.35V48.82H25.9634L23.0924 53H22.2234L22.2674 51.35ZM30.824 47.467C31.4326 47.467 31.9606 47.5953 32.408 47.852L32.254 48.611L32.155 48.644C31.9716 48.49 31.759 48.369 31.517 48.281C31.275 48.193 31.0146 48.149 30.736 48.149C30.1933 48.149 29.779 48.325 29.493 48.677C29.207 49.0217 29.064 49.5387 29.064 50.228C29.064 50.9247 29.207 51.4563 29.493 51.823C29.779 52.1897 30.1933 52.373 30.736 52.373C31 52.373 31.264 52.329 31.528 52.241C31.7993 52.1457 32.0413 52.021 32.254 51.867L32.353 51.9L32.276 52.659C31.7773 52.9303 31.253 53.066 30.703 53.066C29.8963 53.066 29.2766 52.8277 28.844 52.351C28.4113 51.867 28.195 51.1813 28.195 50.294C28.195 49.392 28.4223 48.6953 28.877 48.204C29.339 47.7127 29.988 47.467 30.824 47.467ZM37.0572 47.588L37.0022 48.281L35.9792 48.204H35.4292L35.3962 51.284L35.4292 53H34.6042L34.6372 51.35L34.6152 48.204H34.0652L33.0202 48.281L32.9542 48.204L33.0202 47.522H37.0132L37.0572 47.588ZM38.1766 51.35L38.1326 47.533L38.9906 47.478L38.9356 51.68H39.0126L41.8616 47.5H42.7636L42.7196 51.284L42.7526 53H41.9056L41.9386 51.35V48.82H41.8726L39.0016 53H38.1326L38.1766 51.35ZM46.5748 50.085C47.3521 51.0383 48.1771 51.9477 49.0498 52.813L49.0278 52.934C48.8004 53.0073 48.5364 53.0623 48.2358 53.099L48.1038 53.044C47.1651 51.988 46.3548 51.02 45.6728 50.14V50.074L47.5648 48.006L47.9278 47.522L48.9068 47.511L46.5748 50.085ZM45.5848 51.284L45.6068 53H44.7928L44.8258 51.35L44.7928 47.522H45.6178L45.5848 51.284ZM54.3751 53H53.5501L53.4181 52.406L53.1321 51.592L51.8231 51.581L50.6571 51.592L50.3601 52.362L50.2061 53H49.3921L51.5041 47.522H52.4501L54.3751 53ZM52.9011 50.921L51.9881 48.325H51.9221L50.9211 50.921L51.8891 50.932L52.9011 50.921Z" fill="#F39955"/>
<mask id="mask0_273_2" style="mask-type:alpha" maskUnits="userSpaceOnUse" x="17" y="10" width="24" height="21">
<ellipse cx="28.6628" cy="20.7887" rx="11.3981" ry="9.97182" fill="#D9D9D9"/>
</mask>
<g mask="url(#mask0_273_2)">
<path d="M27.3934 22.3791L32.3921 4.81227L45.8332 16.6512L27.3934 22.3791Z" fill="#D9D9D9"/>
</g>
</svg>
