<svg width="58" height="61" viewBox="0 0 58 61" fill="none" xmlns="http://www.w3.org/2000/svg">
<rect width="58" height="61" rx="9" fill="#F8F0E9"/>
<rect x="12.5" y="4.5" width="34" height="34" rx="11.5" fill="#F8F0E9" stroke="#F39955"/>
<mask id="mask0_273_69" style="mask-type:alpha" maskUnits="userSpaceOnUse" x="14" y="12" width="14" height="10">
<ellipse cx="6.44528" cy="4.50035" rx="6.44528" ry="4.50035" transform="matrix(-0.999961 0.00878776 -0.0153596 -0.999882 27.3408 21.4585)" fill="#F39955"/>
</mask>
<g mask="url(#mask0_273_69)">
<rect width="11.899" height="23.6268" rx="5.94949" transform="matrix(-0.999961 0.00878776 -0.0153596 -0.999882 21.5359 30.8556)" fill="#F39955"/>
</g>
<rect x="21.8281" y="12.4589" width="6.9375" height="8.961" rx="3" fill="#F39955"/>
<mask id="mask1_273_69" style="mask-type:alpha" maskUnits="userSpaceOnUse" x="35" y="12" width="10" height="10">
<ellipse cx="40.0391" cy="17.1882" rx="4.91406" ry="4.23158" fill="#D9D9D9"/>
</mask>
<g mask="url(#mask1_273_69)">
<rect x="40.2977" y="6.7207" width="7.24177" height="17.3718" fill="#D9D9D9"/>
</g>
<mask id="mask2_273_69" style="mask-type:alpha" maskUnits="userSpaceOnUse" x="24" y="7" width="18" height="20">
<path d="M26.8956 20.3618C24.2156 18.8095 24.248 14.9278 26.9536 13.4113L35.9612 8.36269C38.6404 6.86103 41.938 8.80873 41.9124 11.8777L41.8272 22.0942C41.8016 25.1632 38.4719 27.0668 35.818 25.5297L26.8956 20.3618Z" fill="#F39955"/>
</mask>
<g mask="url(#mask2_273_69)">
<rect x="29.2756" y="3.2644" width="17.4266" height="25.5829" rx="4" fill="#F39955"/>
</g>
<path d="M16.8574 43.894C17.5981 43.894 18.2398 44.07 18.7824 44.422L18.6064 45.225L18.5074 45.247C18.0161 44.8363 17.4514 44.631 16.8134 44.631C16.1168 44.631 15.5814 44.873 15.2074 45.357C14.8334 45.8337 14.6464 46.534 14.6464 47.458C14.6464 48.3893 14.8334 49.1007 15.2074 49.592C15.5814 50.0833 16.1094 50.329 16.7914 50.329C17.1141 50.329 17.4331 50.2703 17.7484 50.153C18.0711 50.0357 18.3644 49.8707 18.6284 49.658L18.7384 49.713L18.6614 50.549C18.0234 50.901 17.3744 51.077 16.7144 51.077C15.7684 51.077 15.0351 50.7727 14.5144 50.164C13.9938 49.548 13.7334 48.6717 13.7334 47.535C13.7334 46.369 14.0048 45.4707 14.5474 44.84C15.0901 44.2093 15.8601 43.894 16.8574 43.894ZM23.4522 45.588L23.3972 46.281L22.3742 46.204H21.8242L21.7912 49.284L21.8242 51H20.9992L21.0322 49.35L21.0102 46.204H20.4602L19.4152 46.281L19.3492 46.204L19.4152 45.522H23.4082L23.4522 45.588ZM28.0621 51H27.2371L27.1051 50.406L26.8191 49.592L25.5101 49.581L24.3441 49.592L24.0471 50.362L23.8931 51H23.0791L25.1911 45.522H26.1371L28.0621 51ZM26.5881 48.921L25.6751 46.325H25.6091L24.6081 48.921L25.5761 48.932L26.5881 48.921ZM31.8419 45.588L31.7869 46.281L30.7639 46.204H30.2139L30.1809 49.284L30.2139 51H29.3889L29.4219 49.35L29.3999 46.204H28.8499L27.8049 46.281L27.7389 46.204L27.8049 45.522H31.7979L31.8419 45.588ZM35.0513 47.722C35.6159 47.722 36.0449 47.8503 36.3383 48.107C36.6389 48.3563 36.7893 48.7193 36.7893 49.196C36.7893 49.768 36.5839 50.2117 36.1733 50.527C35.7699 50.8423 35.1979 51 34.4573 51H32.9943L33.0273 49.35L32.9943 45.5H33.8413L33.8193 47.722H35.0513ZM34.7543 50.395C35.1356 50.351 35.4216 50.2373 35.6123 50.054C35.8103 49.8633 35.9093 49.614 35.9093 49.306C35.9093 48.998 35.8103 48.7597 35.6123 48.591C35.4216 48.415 35.1429 48.3307 34.7763 48.338L33.8083 48.349L33.7973 49.284L33.8193 50.362L34.7543 50.395ZM38.2894 49.35L38.2454 45.533L39.1034 45.478L39.0484 49.68H39.1254L41.9744 45.5H42.8764L42.8324 49.284L42.8654 51H42.0184L42.0514 49.35V46.82H41.9854L39.1144 51H38.2454L38.2894 49.35Z" fill="#F39955"/>
<line x1="3.5" y1="-3.5" x2="9.53155" y2="-3.5" transform="matrix(0.416334 0.909212 -0.937779 0.347233 22.9318 22.7097)" stroke="#F39955" stroke-width="7" stroke-linecap="round"/>
</svg>
