<svg width="58" height="61" viewBox="0 0 58 61" fill="none" xmlns="http://www.w3.org/2000/svg">
<rect width="58" height="61" rx="9" fill="#F8F0E9"/>
<rect x="12.5" y="4.5" width="34" height="34" rx="11.5" fill="#F8F0E9" stroke="#F39955"/>
<mask id="mask0_273_69" style="mask-type:alpha" maskUnits="userSpaceOnUse" x="14" y="12" width="14" height="10">
<ellipse cx="6.44528" cy="4.50035" rx="6.44528" ry="4.50035" transform="matrix(-0.999961 0.00878776 -0.0153596 -0.999882 27.3408 21.4585)" fill="#F39955"/>
</mask>
<g mask="url(#mask0_273_69)">
<rect width="11.899" height="23.6268" rx="5.94949" transform="matrix(-0.999961 0.00878776 -0.0153596 -0.999882 21.5359 30.8556)" fill="#F39955"/>
</g>
<rect x="21.8281" y="12.4589" width="6.9375" height="8.961" rx="3" fill="#F39955"/>
<mask id="mask1_273_69" style="mask-type:alpha" maskUnits="userSpaceOnUse" x="35" y="12" width="10" height="10">
<ellipse cx="40.0391" cy="17.1882" rx="4.91406" ry="4.23158" fill="#D9D9D9"/>
</mask>
<g mask="url(#mask1_273_69)">
<rect x="40.2977" y="6.7207" width="7.24177" height="17.3718" fill="#D9D9D9"/>
</g>
<mask id="mask2_273_69" style="mask-type:alpha" maskUnits="userSpaceOnUse" x="24" y="7" width="18" height="20">
<path d="M26.8956 20.3618C24.2156 18.8095 24.248 14.9278 26.9536 13.4113L35.9612 8.36269C38.6404 6.86103 41.938 8.80873 41.9124 11.8777L41.8272 22.0942C41.8016 25.1632 38.4719 27.0668 35.818 25.5297L26.8956 20.3618Z" fill="#F39955"/>
</mask>
<g mask="url(#mask2_273_69)">
<rect x="29.2756" y="3.2644" width="17.4266" height="25.5829" rx="4" fill="#F39955"/>
</g>
<path d="M23.2666 52.309L22.5956 52.386L22.4636 51H17.1946L17.2386 48.877L17.1946 43.949H18.0746L18.0416 48.8L18.0636 50.274H21.3416L21.3636 48.877L21.3306 43.949H22.2106L22.1666 48.8L22.1886 50.274H23.2666V52.309ZM28.0545 50.296L28.1205 50.362L28.0435 51H24.7105L24.7435 49.35L24.7105 45.522H28.0655L28.1205 45.588L28.0545 46.226L26.6685 46.182L25.5245 46.193L25.5135 47.854L26.6025 47.865L27.5595 47.832L27.6145 47.909L27.5485 48.558L26.5365 48.525L25.5135 48.536L25.5025 49.284L25.5135 50.329L26.5915 50.34L28.0545 50.296ZM33.2683 49.284L33.2903 51H32.4543L32.4873 49.35L32.4653 46.16H31.0353L30.9913 46.6C30.8813 47.722 30.7567 48.5947 30.6173 49.218C30.478 49.8413 30.302 50.296 30.0893 50.582C29.8767 50.868 29.598 51.0403 29.2533 51.099L29.0113 51.132L28.8463 50.428C29.1397 50.34 29.3707 50.1677 29.5393 49.911C29.7153 49.6543 29.8547 49.262 29.9573 48.734C30.0673 48.1987 30.1663 47.436 30.2543 46.446L30.3423 45.522L30.3313 45.5H33.3123L33.2683 49.284ZM35.3783 49.35L35.3343 45.533L36.1923 45.478L36.1373 49.68H36.2143L39.0633 45.5H39.9653L39.9213 49.284L39.9543 51H39.1073L39.1403 49.35V46.82H39.0743L36.2033 51H35.3343L35.3783 49.35Z" fill="#F39955"/>
<line x1="3.5" y1="-3.5" x2="9.53155" y2="-3.5" transform="matrix(0.416334 0.909212 -0.937779 0.347233 22.9318 22.7097)" stroke="#F39955" stroke-width="7" stroke-linecap="round"/>
</svg>
