<svg width="58" height="61" viewBox="0 0 58 61" fill="none" xmlns="http://www.w3.org/2000/svg">
<rect width="58" height="61" rx="9" fill="#F8F0E9"/>
<rect x="12" y="7" width="35" height="32.0646" rx="11" fill="#F8F0E9" stroke="#F39955" stroke-width="2"/>
<path d="M12.0183 49.081C12.495 49.1983 12.858 49.4 13.1073 49.686C13.3566 49.972 13.4813 50.3387 13.4813 50.786C13.4813 51.424 13.2466 51.93 12.7773 52.304C12.308 52.678 11.681 52.865 10.8963 52.865C10.5223 52.865 10.1666 52.8173 9.8293 52.722C9.4993 52.6193 9.2133 52.48 8.9713 52.304L9.1473 51.512L9.2353 51.479C9.4553 51.6843 9.7083 51.842 9.9943 51.952C10.2876 52.062 10.5846 52.117 10.8853 52.117C11.384 52.117 11.791 51.9887 12.1063 51.732C12.429 51.4753 12.5903 51.1417 12.5903 50.731C12.5903 50.3937 12.484 50.1187 12.2713 49.906C12.066 49.686 11.7726 49.543 11.3913 49.477H9.9723L9.8953 49.4L9.9503 48.795L11.3363 48.806C11.6076 48.7033 11.824 48.531 11.9853 48.289C12.154 48.0397 12.2383 47.7683 12.2383 47.475C12.2383 47.1377 12.1246 46.881 11.8973 46.705C11.67 46.5217 11.3436 46.43 10.9183 46.43C10.317 46.43 9.7303 46.6353 9.1583 47.046L9.0483 47.013L9.1143 46.199C9.67897 45.8397 10.295 45.66 10.9623 45.66C11.6296 45.66 12.1576 45.814 12.5463 46.122C12.935 46.4227 13.1293 46.8297 13.1293 47.343C13.1293 47.717 13.0303 48.058 12.8323 48.366C12.6416 48.674 12.3703 48.9123 12.0183 49.081ZM19.2642 52.766H18.4392L18.3072 52.172L18.0212 51.358L16.7122 51.347L15.5462 51.358L15.2492 52.128L15.0952 52.766H14.2812L16.3932 47.288H17.3392L19.2642 52.766ZM17.7902 50.687L16.8772 48.091H16.8112L15.8102 50.687L16.7782 50.698L17.7902 50.687ZM26.3516 52.766H25.6146L25.4936 51.094L25.1966 48.564H25.1306L23.5576 52.15H22.9086L21.4236 48.564H21.3576L21.0716 51.028L20.9176 52.766H20.2136L20.8186 47.288H21.7756L22.0506 48.113L23.2496 51.061H23.3156L24.5696 48.069L24.8556 47.288H25.7906L26.3516 52.766ZM31.4813 52.062L31.5473 52.128L31.4703 52.766H28.1373L28.1703 51.116L28.1373 47.288H31.4923L31.5473 47.354L31.4813 47.992L30.0953 47.948L28.9513 47.959L28.9403 49.62L30.0293 49.631L30.9863 49.598L31.0413 49.675L30.9753 50.324L29.9633 50.291L28.9403 50.302L28.9293 51.05L28.9403 52.095L30.0183 52.106L31.4813 52.062ZM36.3321 47.354L36.2771 48.047L35.2541 47.97H34.7041L34.6711 51.05L34.7041 52.766H33.8791L33.9121 51.116L33.8901 47.97H33.3401L32.2951 48.047L32.2291 47.97L32.2951 47.288H36.2881L36.3321 47.354ZM39.1895 49.851C39.9668 50.8043 40.7918 51.7137 41.6645 52.579L41.6425 52.7C41.4152 52.7733 41.1512 52.8283 40.8505 52.865L40.7185 52.81C39.7798 51.754 38.9695 50.786 38.2875 49.906V49.84L40.1795 47.772L40.5425 47.288L41.5215 47.277L39.1895 49.851ZM38.1995 51.05L38.2215 52.766H37.4075L37.4405 51.116L37.4075 47.288H38.2325L38.1995 51.05ZM42.9085 51.116L42.8645 47.299L43.7225 47.244L43.6675 51.446H43.7445L46.5935 47.266H47.4955L47.4515 51.05L47.4845 52.766H46.6375L46.6705 51.116V48.586H46.6045L43.7335 52.766H42.8645L42.9085 51.116Z" fill="#F39955"/>
<rect x="19.0167" y="12.2888" width="20.9667" height="21.4869" rx="4" fill="#F39955"/>
<rect x="21.0909" y="15.2904" width="15.9773" height="2.32258" fill="#F4F2F2"/>
<rect x="22.7727" y="27.6775" width="12.6136" height="1.54839" fill="#F4F2F2"/>
<rect x="22.7727" y="23.8064" width="12.6136" height="1.54839" fill="#F4F2F2"/>
<rect x="22.7727" y="19.9354" width="12.6136" height="1.54839" fill="#F4F2F2"/>
<line x1="2" y1="-2" x2="10.1391" y2="-2" transform="matrix(0.761998 -0.64758 0.761998 0.64758 36.9 23.2944)" stroke="#C7BEBE" stroke-width="4" stroke-linecap="round"/>
</svg>
