<svg width="545" height="545" viewBox="0 0 545 545" fill="none" xmlns="http://www.w3.org/2000/svg">
<circle cx="272.5" cy="272.5" r="272.5" fill="#EEC09D"/>
<path d="M273 501.38C399.683 501.38 502.38 398.683 502.38 272C502.38 145.317 399.683 42.62 273 42.62C146.317 42.62 43.62 145.317 43.62 272C43.62 398.683 146.317 501.38 273 501.38Z" fill="#FDFAF6"/>
<path d="M99.23 175.47C107.63 187.8 102.16 204.99 100.05 212.64C87.45 258.33 100.72 304.72 102.5 310.95C119.63 370.83 172.04 400.58 184.38 407.59C231.17 434.15 275.44 431.71 285.01 431.01C294.89 430.29 367.61 423.85 410.04 364.1C412.64 360.44 438.22 323.53 440 277.63C441.05 250.75 440.68 223.74 438.25 196.95C437.97 193.82 437.12 184.94 442.34 177.63C448.32 169.26 460.45 165.78 469.15 167.21C490.09 170.63 498.51 214.86 501.02 228.07C511.45 282.88 497.56 328.63 493.2 341.8C486.96 360.64 466.94 418.32 407.72 461.32C395 470.55 341.66 507.3 265.77 504.96C248.66 504.43 215.34 501.45 178.02 484.33C165.75 478.7 99.01 446.76 65.33 372.71C54.3 348.47 50.27 327.31 48.02 315.09C40.09 272.08 44.78 239.58 47.5 225.16C51.45 204.22 58.39 167.48 76.62 164.19C85.03 162.67 94.48 168.51 99.23 175.48V175.47Z" fill="#FEE7D0"/>
<path d="M368.77 254.16C368.77 307.05 325.9 349.92 273.01 349.92C249.99 349.92 232.64 341.33 226.95 338.13C198.18 321.97 176.87 289.49 177.25 254.15C177.77 206.59 217.54 158.39 273.01 158.39C328.48 158.39 368.77 201.26 368.77 254.15V254.16Z" fill="#FEE7D0"/>
<path d="M170.22 286.17C186.584 286.17 199.85 271.534 199.85 253.48C199.85 235.426 186.584 220.79 170.22 220.79C153.856 220.79 140.59 235.426 140.59 253.48C140.59 271.534 153.856 286.17 170.22 286.17Z" fill="#FEE7D0"/>
<path d="M368.76 286.17C385.124 286.17 398.39 271.534 398.39 253.48C398.39 235.426 385.124 220.79 368.76 220.79C352.396 220.79 339.13 235.426 339.13 253.48C339.13 271.534 352.396 286.17 368.76 286.17Z" fill="#FEE7D0"/>
<path d="M227.99 361.4C229.64 361.05 231.59 367.89 234.91 373.48C241.52 384.61 252.66 389.21 254.58 389.97C266.02 394.51 276.31 392.16 279.88 391.3C282.6 390.64 292.47 387.97 300.96 379.62C308.15 372.55 312.44 363.28 314.3 364.11C314.7 364.29 314.6 364.77 315.3 366.65C316.02 368.58 316.79 369.82 318.08 371.91C318.08 371.91 320.12 375.22 322.71 378.17C325.49 381.34 331.73 386.91 340.37 390.95C350.38 395.63 366.11 403.34 378.07 396.7C378.98 396.19 380.6 394.86 383.82 392.19C392.6 384.93 398.45 378.43 400.68 375.89C403.11 373.12 408.43 366.83 414.06 357.95C419.11 349.97 422.22 343.36 424.29 338.93C426.57 334.05 428.16 330.07 429.02 327.88C431.59 321.29 433.18 316.07 433.83 313.87C435.08 309.64 435.87 306.34 436.2 304.96C436.2 304.96 437.27 300.41 438.04 295.98C438.24 294.85 438.41 293.76 438.41 293.76C438.73 291.73 438.74 291.35 438.79 291.17C439.69 288.04 468.93 292.92 470.05 293.11C486.21 295.81 502.39 297.61 502.39 297.61C502.39 297.61 502.22 303.27 502.2 303.78C502.06 308.29 501 313.36 499.08 321C497.29 328.11 496.14 332.65 494.23 338.63C485.7 365.31 473.59 386.86 473.59 386.86C462.66 406.32 451.58 419.73 446.96 425.11C433.83 440.41 421.6 450.6 415.41 455.49C409.55 460.12 398.7 468.2 383.99 476.26C381.85 477.43 376.58 480.27 369.5 483.53C353 491.13 339.74 494.99 335.03 496.3C324.8 499.15 316.89 500.54 312 501.38C294.48 504.41 280.94 504.91 277.88 505C267.21 505.34 247.16 505.84 222.63 499.88C211.1 497.08 202.06 493.7 195.28 491.16C188.41 488.59 178.63 484.9 166.85 478.75C162.33 476.39 144.9 467.1 124.95 450.26C113.56 440.64 105.78 432.31 102.99 429.26C89.1 414.08 80.56 400.59 77.53 395.64C76.14 393.37 61.04 368.34 52.57 336.34C48.39 320.55 46.15 304.32 45.71 300.39C45.69 300.17 44.75 291.79 44.75 291.79C63.15 291.41 64.36 291.34 64.36 291.34C77.97 290.52 84.78 290.12 87.3 289.72C90.36 289.24 96.15 288.21 97.89 290.82C98.27 291.39 98.25 291.81 98.56 293.82C98.66 294.49 99.12 296.65 100.02 300.98C100.35 302.58 101.1 305.19 102.57 310.35C104.15 315.89 104.94 318.66 104.95 318.67C107.41 326.65 110.63 332.71 112.27 335.77C113.63 338.3 116.32 342.36 121.65 350.37C126.68 357.93 129.23 361.76 130.99 363.99C134.06 367.88 137.29 371.14 143.75 377.67C151.11 385.11 153.81 387.23 156.78 389.08C159.5 390.78 161.93 392.28 165.49 393.31C171.21 394.97 175.88 394.28 181.75 393.34C183.93 392.99 191.37 391.7 200.35 387.61C203.5 386.18 208.81 383.71 214.56 379.05C218.9 375.52 221.42 372.42 222.48 371.04C223.97 369.1 224.97 367.79 225.96 365.7C227.29 362.91 227.26 361.53 227.98 361.38L227.99 361.4Z" fill="#F8C994"/>
<path d="M228.59 360.23C228.93 358.14 229.74 357.13 230.17 353.43C231.11 345.35 228.42 340.21 230.17 339.16C231.26 338.51 232.94 340.09 235.64 341.66C236.16 341.96 236.66 342.23 237.22 342.49C242.18 344.79 250.08 345.77 250.08 345.77C255.22 346.21 262.34 347.34 272.06 349.23C272.38 349.23 272.69 349.23 273.01 349.23C278.29 349.3 284.56 348.9 291.45 347.46C293.96 346.93 300.36 345.47 308.09 342.12C310.4 341.12 312.31 340.17 313.69 339.45C313.86 339.22 314.08 338.95 314.2 339C314.55 339.15 313.37 342.02 312.73 345.02C311.95 348.68 312.18 351.53 312.55 355.85C312.73 357.99 313.1 360.82 313.86 364.1C313.34 364.3 313.08 364.4 313.08 364.4C313.08 364.4 312.02 365.72 311.9 365.87C310.55 367.55 309.24 369.54 307.53 371.86C306.88 372.75 306.05 373.88 304.96 375.2C304.96 375.2 302.71 377.95 300.4 380.18C293.05 387.29 282.59 390.56 282.59 390.56C279.74 391.45 273.99 393.19 266.38 392.61C264.41 392.46 257.13 391.76 248.94 387.18C239.91 382.13 226.83 370.88 228.58 360.24L228.59 360.23Z" fill="#FEE7D0"/>
<path d="M156.11 224.67C147.19 201.18 153.6 174.02 167.06 152.81C180.52 131.59 200.27 115.23 219.99 99.65C219.7 107.41 220.87 115.22 223.41 122.55C233.98 109.51 244.25 102.36 251.73 98.23C258.18 94.67 263.72 92.72 268.59 86.68C274.59 79.25 275.84 70.28 275.98 63.95C280.53 65.95 287.05 69.43 293.5 75.38C302.13 83.35 306.12 91.61 310.55 101C314.41 109.17 319.17 121.29 322.04 136.92C335.46 130.14 346.05 117.94 350.88 103.7C383.56 134.87 397.95 183.96 387.29 227.85C380.51 223.42 371.8 222.1 364.02 224.37C361.64 216.55 356.68 204.46 346.02 193.72C344.81 192.51 338.64 186.37 328.75 180.78C324.37 178.31 318.56 175.36 309.97 172.96C290.98 167.66 270.87 163.54 251.66 167.99C236.45 171.51 222.79 180.28 211.7 191.28C200.61 202.28 191.93 215.46 184.27 229.07C176.23 223.25 165.46 221.37 156.1 224.66L156.11 224.67Z" fill="#F6A96F"/>
<path d="M206.41 235.64C209.81 239.18 213.07 241.19 215.3 242.34C224.59 247.11 236.91 247.56 246.23 241C248.14 239.66 249.55 238.28 250.45 237.31" stroke="#1D1D1B" stroke-width="4" stroke-miterlimit="10"/>
<path d="M295.09 236.83C298.49 240.37 301.75 242.38 303.98 243.53C313.27 248.3 325.59 248.75 334.91 242.19C336.82 240.85 338.23 239.47 339.13 238.5" stroke="#1D1D1B" stroke-width="4" stroke-miterlimit="10"/>
<path d="M245.11 299.86C247.25 302.99 251.83 308.64 259.56 311.58C271.27 316.04 285.33 312.43 295.83 302.57" stroke="#1D1D1B" stroke-width="4" stroke-miterlimit="10"/>
</svg>
